{
.appVersion = "3326";
.formatVersion = 3;
DisplayStrings = (
"AÄÆBCDEFGHIJKLMNOÖŒ
PQRSTUÜVWXYZ/N.alt 
aäbcdefghijklmnoö
pqrstuüvwxyz/s.hist/c_t/s_t/f_f/f_i  
.,:;*-Nomen&Omen̈",
"AÄÆBCDEFGHIJKLMNOÖŒ
PQRSTUÜVWXYZ/N.alt 
aäbcdefghijklmnoö
pqrstuüvwxyz/s.hist/c_t/f_f/f_i/s_t  
.,:;*-&̈"
);
axes = (
{
name = "Optical size";
tag = opsz;
}
);
date = "2024-11-05 22:07:05 +0000";
familyName = "Groote-Italic";
featurePrefixes = (
{
automatic = 1;
code = "languagesystem DFLT dflt;
";
name = Languagesystems;
}
);
features = (
{
automatic = 1;
code = "feature hist;
";
tag = aalt;
},
{
automatic = 1;
code = "sub s by s.hist;
";
tag = hist;
},
{
automatic = 1;
code = "lookupflag IgnoreMarks;
sub c t by c_t;
sub s t by s_t;
";
tag = dlig;
},
{
automatic = 1;
code = "lookupflag IgnoreMarks;
sub f f by f_f;
sub f i by f_i;
";
tag = liga;
}
);
fontMaster = (
{
axesValues = (
26
);
iconName = Light_Condensed;
id = "F2DFA844-ADB6-4558-8504-1E1502925A9B";
metricValues = (
{
over = 8;
pos = 700;
},
{
over = 8;
pos = 700;
},
{
over = 8;
pos = 435;
},
{
over = -8;
},
{
over = -8;
pos = -150;
},
{
pos = 17;
}
);
name = "Corsyf-26";
stemValues = (
18,
81
);
},
{
axesValues = (
18
);
customParameters = (
{
name = unitizerUnit;
value = 6.64466;
}
);
iconName = SemiLight_SemiCondensed;
id = m003;
metricValues = (
{
over = 8;
pos = 700;
},
{
over = 8;
pos = 700;
},
{
over = 8;
pos = 435;
},
{
over = -8;
},
{
over = -8;
pos = -150;
},
{
pos = 17;
}
);
name = "Corsyf-18";
stemValues = (
28,
81
);
userData = {
GSCornerRadius = 25;
};
},
{
axesValues = (
10
);
customParameters = (
{
name = unitizerUnit;
value = 6.64466;
}
);
iconName = SemiBold_SemiExtended;
id = m002;
metricValues = (
{
over = 8;
pos = 700;
},
{
over = 8;
pos = 700;
},
{
over = 8;
pos = 435;
},
{
over = -8;
},
{
over = -8;
pos = -150;
},
{
pos = 17;
}
);
name = "Corsyf-10";
stemValues = (
38,
81
);
userData = {
GSCornerRadius = 25;
};
},
{
axesValues = (
4
);
iconName = Bold_Extended;
id = m01;
metricValues = (
{
over = 8;

glyphs = (
{
glyphname = A;
lastChange = "2024-11-11 18:59:14 +0000";
layers = (
{
anchors = (
{
name = bottom;
pos = (280,0);
},
{
name = ogonek;
pos = (559,10);
},
{
name = top;
pos = (431,635);
}
);
layerId = m002;
shapes = (
{
closed = 1;
nodes = (
(610,0,l),
(616,38,l),
(596,38,l),
(568,38,o),
(540,82,o),
(535,144,cs),
(496,679,l),
(496,719,l),
(484,728,l),
(463,716,o),
(432,704,o),
(396,700,c),
(388,666,l),
(413,659,l),
(433,388,o),
(449,162,o),
(452,99,cs),
(453,62,o),
(432,36,o),
(403,36,cs),
(350,36,l),
(343,-2,l)
);
},
{
closed = 1;
nodes = (
(216,1,l),
(222,38,l),
(216,38,o),
(220,39,o),
(205,39,cs),
(160,39,o),
(141,69,o),
(158,111,c),
(426,660,l),
(395,686,l),
(289,480,o),
(172,250,o),
(113,115,cs),
(93,70,o),
(54,39,o),
(17,39,cs),
(-32,39,l),
(-38,1,l)
);
},
{
closed = 1;
nodes = (
(493,288,l),
(504,338,l),
(239,338,l),
(228,288,l)
);
}
);
width = 692;
},
{
associatedMasterId = m002;
layerId = "71BEE3E3-4EFD-46D3-A9E9-4E45929C962F";
name = "Groote Garmond Romyn";
shapes = (
{
closed = 1;
nodes = (
(769,0,l),
(769,38,l),
(763,38,l),
(730,38,o),
(684,82,o),
(662,144,cs),
(468,679,l),
(458,719,l),
(447,728,l),
(426,716,o),
(381,704,o),
(339,700,c),
(339,666,l),
(371,659,l),
(467,388,o),
(550,162,o),
(571,99,cs),
(582,62,o),
(565,36,o),
(531,36,cs),
(468,36,l),
(468,-2,l)
);
},
{
closed = 1;
nodes = (
(317,1,l),
(317,38,l),
(310,38,o),
(315,39,o),
(297,39,cs),
(244,39,o),
(213,69,o),
(222,111,c),
(385,660,l),
(342,686,l),
(273,480,o),
(201,250,o),
(168,115,cs),
(157,70,o),
(119,39,o),
(76,39,cs),
(18,39,l),
(18,1,l)
);
},
{
closed = 1;
nodes = (
(565,288,l),
(565,333,l),
(253,333,l),
(253,288,l)
);
}
);
width = 787;
},
{
anchors = (
{
name = bottom;
pos = (273,0);
},
{
name = ogonek;
pos = (554,10);
},
{
name = top;
pos = (417,635);
}
);
layerId = m003;
shapes = (
{
closed = 1;
nodes = (
(603,0,l),
(609,28,l),
(589,28,l),
(561,28,o),
(532,72,o),
(528,134,cs),
(489,679,l),
(489,719,l),
(477,728,l),
(456,716,o),
(425,704,o),
(389,700,c),
(381,666,l),
(406,659,l),
(426,388,o),
(442,152,o),
(445,89,cs),
(446,52,o),
(425,26,o),
(396,26,cs),
(343,26,l),
(336,-2,l)
);
},
{
closed = 1;
nodes = (
(209,1,l),
(215,28,l),
(209,28,o),
(213,29,o),
(198,29,cs),
(153,29,o),
(134,59,o),
(151,101,c),
(419,660,l),
(388,686,l),
(282,480,o),
(165,240,o),
(106,105,cs),
(86,60,o),
(47,29,o),
(10,29,cs),
(-39,29,l),
(-45,1,l)
);
},
{
closed = 1;
nodes = (
(486,288,l),
(497,338,l),
(232,338,l),
(221,288,l)
);
}
);
width = 678;
},
{
associatedMasterId = m003;
layerId = "DE149DD7-0C59-43BC-A8DB-B098D9C903EC";
name = "Groote Garmond Romyn";
shapes = (
{
closed = 1;
nodes = (
(769,0,l),
(769,38,l),
(763,38,l),
(730,38,o),
(684,82,o),
(662,144,cs),
(468,679,l),
(458,719,l),
(447,728,l),
(426,716,o),
(381,704,o),
(339,700,c),
(339,666,l),
(371,659,l),
(467,388,o),
(550,162,o),
(571,99,cs),
(582,62,o),
(565,36,o),
(531,36,cs),
(468,36,l),
(468,-2,l)
);
},
{
closed = 1;
nodes = (
(317,1,l),
(317,38,l),
(310,38,o),
(315,39,o),
(297,39,cs),
(244,39,o),
(213,69,o),
(222,111,c),
(385,660,l),
(342,686,l),
(273,480,o),
(201,250,o),
(168,115,cs),
(157,70,o),
(119,39,o),
(76,39,cs),
(18,39,l),
(18,1,l)
);
},
{
closed = 1;
nodes = (
(565,288,l),
(565,333,l),
(253,333,l),
(253,288,l)
);
}
);
width = 787;
},
{
anchors = (
{
name = bottom;
pos = (286,0);
},
{
name = ogonek;
pos = (570,10);
},
{
name = top;
pos = (442,635);
}
);
layerId = m01;
shapes = (
{
closed = 1;
nodes = (
(615,0,l),
(621,46,l),
(601,46,ls),
(573,46,o),
(546,90,o),
(540,152,cs),
(501,679,l),
(501,719,l),
(489,728,l),
(468,716,o),
(437,704,o),
(401,700,c),
(393,666,l),
(418,659,l),
(438,388,o),
(454,170,o),
(457,107,cs),
(458,70,o),
(437,44,o),
(408,44,cs),
(355,44,l),
(348,-2,l)
);
},
{
closed = 1;
nodes = (
(221,1,l),
(227,46,l),
(221,46,o),
(225,47,o),
(210,47,cs),
(165,47,o),
(146,77,o),
(163,119,c),
(431,660,l),
(400,686,l),
(294,480,o),
(177,258,o),
(118,123,cs),
(98,78,o),
(59,47,o),
(22,47,cs),
(-27,47,l),
(-33,1,l)
);
},
{
closed = 1;
nodes = (
(498,288,l),
(509,338,l),
(244,338,l),
(233,288,l)
);
}
);
width = 703;
},
{
anchors = (
{
name = bottom;
pos = (266,0);
},
{
name = ogonek;
pos = (535,10);
},
{
name = top;
pos = (403,635);
}
);
layerId = "F2DFA844-ADB6-4558-8504-1E1502925A9B";
shapes = (
{
closed = 1;
nodes = (
(596,0,l),
(602,18,l),
(582,18,ls),
(554,18,o),
(524,62,o),
(521,124,cs),
(482,679,l),
(482,719,l),
(470,728,l),
(449,716,o),
(418,704,o),
(382,700,c),
(374,666,l),
(399,659,l),
(419,388,o),
(435,142,o),
(438,79,cs),
(439,42,o),
(418,16,o),
(389,16,cs),
(336,16,l),
(329,-2,l)
);
},
{
closed = 1;
nodes = (
(202,1,l),
(208,18,l),
(202,18,o),
(206,19,o),
(191,19,cs),
(146,19,o),
(127,49,o),
(144,91,c),
(412,660,l),
(381,686,l),
(275,480,o),
(158,230,o),
(99,95,cs),
(79,50,o),
(40,19,o),
(3,19,cs),
(-46,19,l),
(-52,1,l)
);
},
{
closed = 1;
nodes = (
(479,288,l),
(490,338,l),
(225,338,l),
(214,288,l)
);
}
);
width = 664;
}
);
unicode = 65;
},
{
glyphname = AE;
lastChange = "2024-11-11 18:59:14 +0000";
layers = (
{
layerId = m002;
shapes = (
{
closed = 1;
nodes = (
(669,0,l),
(778,131,l),
(764,149,l),
(696,82,o),
(638,44,o),
(613,44,cs),
(577,44,o),
(519,44,o),
(501,44,cs),
(470,44,o),
(452,66,o),
(459,96,cs),
(466,126,o),
(583,623,o),
(586,635,cs),
(590,653,o),
(613,665,o),
(641,665,cs),
(658,665,o),
(695,665,o),
(710,665,cs),
(745,665,o),
(782,613,o),
(801,539,c),
(824,552,l),
(801,700,l),
(717,700,o),
(643,698,o),
(558,698,cs),
(518,698,o),
(383,700,o),
(338,700,c),
(331,672,l),
(375,672,o),
(437,672,o),
(461,672,cs),
(489,672,o),
(507,661,o),
(500,633,cs),
(483,559,o),
(388,157,o),
(378,116,cs),
(368,70,o),
(343,38,o),
(317,38,cs),
(290,38,l),
(283,0,l),
(318,0,o),
(363,2,o),
(394,2,cs),
(424,2,o),
(498,-2,o),
(532,-2,cs)
);
},
{
closed = 1;
nodes = (
(204,0,l),
(211,38,l),
(196,38,l),
(163,38,o),
(146,68,o),
(168,108,c),
(505,686,l),
(477,689,l),
(276,371,o),
(173,222,o),
(138,166,cs),
(93,93,o),
(32,38,o),
(-9,38,cs),
(-32,38,l),
(-39,0,l)
);
},
{
closed = 1;
nodes = (
(672,200,l),
(685,271,o),
(708,371,o),
(728,442,c),
(704,442,l),
(690,379,o),
(657,334,o),
(626,334,cs),
(270,334,l),
(262,298,l),
(315,298,o),
(598,298,o),
(619,298,cs),
(650,298,o),
(663,261,o),
(649,200,c)
);
}
);
width = 817;
},
{
associatedMasterId = m002;
layerId = "E24BD2E1-5A37-43FA-A372-5972EE87F895";
name = "Groote Garmond Romyn";
shapes = (
{
closed = 1;
nodes = (
(850,0,l),
(943,131,l),
(912,149,l),
(850,82,o),
(805,44,o),
(776,44,cs),
(733,44,o),
(665,44,o),
(644,44,cs),
(607,44,o),
(580,66,o),
(580,96,cs),
(580,126,o),
(580,613,o),
(580,625,cs),
(580,643,o),
(604,655,o),
(637,655,cs),
(657,655,o),
(701,655,o),
(718,655,cs),
(759,655,o),
(807,613,o),
(849,539,c),
(883,552,l),
(816,700,l),
(717,700,o),
(630,698,o),
(531,698,cs),
(483,698,o),
(324,700,o),
(271,700,c),
(271,662,l),
(322,662,o),
(395,662,o),
(423,662,cs),
(456,662,o),
(480,651,o),
(480,623,cs),
(480,549,o),
(480,157,o),
(480,116,cs),
(480,70,o),
(459,38,o),
(429,38,cs),
(397,38,l),
(397,0,l),
(438,0,o),
(490,2,o),
(526,2,cs),
(562,2,o),
(650,-2,o),
(690,-2,cs)
);
},
{
closed = 1;
nodes = (
(304,0,l),
(304,38,l),
(286,38,l),
(248,38,o),
(220,68,o),
(234,108,c),
(481,686,l),
(437,689,l),
(288,371,o),
(210,222,o),
(184,166,cs),
(150,93,o),
(94,38,o),
(45,38,cs),
(18,38,l),
(18,0,l)
);
},
{
closed = 1;
nodes = (
(805,200,l),
(801,271,o),
(801,371,o),
(805,442,c),
(772,442,l),
(772,379,o),
(746,344,o),
(709,344,cs),
(290,344,l),
(289,299,l),
(352,299,o),
(684,299,o),
(709,299,cs),
(746,299,o),
(773,261,o),
(773,200,c)
);
}
);
width = 988;
},
{
layerId = m003;
shapes = (
{
closed = 1;
nodes = (
(662,0,l),
(771,131,l),
(757,149,l),
(689,82,o),
(631,34,o),
(606,34,cs),
(570,34,o),
(512,34,o),
(494,34,cs),
(463,34,o),
(445,56,o),
(452,86,cs),
(459,116,o),
(576,623,o),
(579,635,cs),
(583,653,o),
(606,665,o),
(634,665,cs),
(651,665,o),
(688,665,o),
(703,665,cs),
(738,665,o),
(775,613,o),
(794,539,c),
(817,552,l),
(794,700,l),
(710,700,o),
(636,698,o),
(551,698,cs),
(511,698,o),
(376,700,o),
(331,700,c),
(324,672,l),
(368,672,o),
(430,672,o),
(454,672,cs),
(482,672,o),
(500,661,o),
(493,633,cs),
(476,559,o),
(381,147,o),
(371,106,cs),
(361,60,o),
(336,28,o),
(310,28,cs),
(283,28,l),
(276,0,l),
(311,0,o),
(356,2,o),
(387,2,cs),
(417,2,o),
(491,-2,o),
(525,-2,cs)
);
},
{
closed = 1;
nodes = (
(197,0,l),
(204,28,l),
(189,28,l),
(156,28,o),
(139,58,o),
(161,98,c),
(498,686,l),
(470,689,l),
(269,371,o),
(166,212,o),
(131,156,cs),
(86,83,o),
(25,28,o),
(-16,28,cs),
(-39,28,l),
(-46,0,l)
);
},
{
closed = 1;
nodes = (
(665,200,l),
(678,271,o),
(701,371,o),
(721,442,c),
(697,442,l),
(683,379,o),
(650,334,o),
(619,334,cs),
(263,334,l),
(255,304,l),
(308,304,o),
(591,304,o),
(612,304,cs),
(643,304,o),
(656,261,o),
(642,200,c)
);
}
);
width = 803;
},
{
associatedMasterId = m003;
layerId = "1E3A629C-74B4-4024-8ECA-1D51C6B6EBA9";
name = "Groote Garmond Romyn";
shapes = (
{
closed = 1;
nodes = (
(850,0,l),
(943,131,l),
(912,149,l),
(850,82,o),
(805,44,o),
(776,44,cs),
(733,44,o),
(665,44,o),
(644,44,cs),
(607,44,o),
(580,66,o),
(580,96,cs),
(580,126,o),
(580,613,o),
(580,625,cs),
(580,643,o),
(604,655,o),
(637,655,cs),
(657,655,o),
(701,655,o),
(718,655,cs),
(759,655,o),
(807,613,o),
(849,539,c),
(883,552,l),
(816,700,l),
(717,700,o),
(630,698,o),
(531,698,cs),
(483,698,o),
(324,700,o),
(271,700,c),
(271,662,l),
(322,662,o),
(395,662,o),
(423,662,cs),
(456,662,o),
(480,651,o),
(480,623,cs),
(480,549,o),
(480,157,o),
(480,116,cs),
(480,70,o),
(459,38,o),
(429,38,cs),
(397,38,l),
(397,0,l),
(438,0,o),
(490,2,o),
(526,2,cs),
(562,2,o),
(650,-2,o),
(690,-2,cs)
);
},
{
closed = 1;
nodes = (
(304,0,l),
(304,38,l),
(286,38,l),
(248,38,o),
(220,68,o),
(234,108,c),
(481,686,l),
(437,689,l),
(288,371,o),
(210,222,o),
(184,166,cs),
(150,93,o),
(94,38,o),
(45,38,cs),
(18,38,l),
(18,0,l)
);
},
{
closed = 1;
nodes = (
(805,200,l),
(801,271,o),
(801,371,o),
(805,442,c),
(772,442,l),
(772,379,o),
(746,344,o),
(709,344,cs),
(290,344,l),
(289,299,l),
(352,299,o),
(684,299,o),
(709,299,cs),
(746,299,o),
(773,261,o),
(773,200,c)
);
}
);
width = 988;
},
{
layerId = m01;
shapes = (
{
closed = 1;
nodes = (
(674,0,l),
(783,131,l),
(769,149,l),
(701,82,o),
(643,52,o),
(618,52,cs),
(582,52,o),
(524,52,o),
(506,52,cs),
(475,52,o),
(457,74,o),
(464,104,cs),
(471,134,o),
(588,623,o),
(591,635,cs),
(595,653,o),
(618,665,o),
(646,665,cs),
(663,665,o),
(700,665,o),
(715,665,cs),
(750,665,o),
(787,613,o),
(806,539,c),
(829,552,l),
(806,700,l),
(722,700,o),
(648,698,o),
(563,698,cs),
(523,698,o),
(388,700,o),
(343,700,c),
(336,672,l),
(380,672,o),
(442,672,o),
(466,672,cs),
(494,672,o),
(512,661,o),
(505,633,cs),
(488,559,o),
(393,165,o),
(383,124,cs),
(373,78,o),
(348,46,o),
(322,46,cs),
(295,46,l),
(288,0,l),
(323,0,o),
(368,2,o),
(399,2,cs),
(429,2,o),
(503,-2,o),
(537,-2,cs)
);
},
{
closed = 1;
nodes = (
(209,0,l),
(216,46,l),
(201,46,ls),
(168,46,o),
(151,76,o),
(173,116,cs),
(510,686,l),
(482,689,l),
(281,371,o),
(178,230,o),
(143,174,cs),
(98,101,o),
(37,46,o),
(-4,46,cs),
(-27,46,l),
(-34,0,l)
);
},
{
closed = 1;
nodes = (
(677,200,l),
(690,271,o),
(713,371,o),
(733,442,c),
(709,442,l),
(695,379,o),
(662,334,o),
(631,334,cs),
(275,334,l),
(267,294,l),
(320,294,o),
(603,294,o),
(624,294,cs),
(655,294,o),
(668,261,o),
(654,200,c)
);
}
);
width = 828;
},
{
layerId = "F2DFA844-ADB6-4558-8504-1E1502925A9B";
shapes = (
{
closed = 1;
nodes = (
(655,0,l),
(764,131,l),
(750,149,l),
(682,82,o),
(624,24,o),
(599,24,cs),
(563,24,o),
(505,24,o),
(487,24,cs),
(456,24,o),
(438,46,o),
(445,76,cs),
(452,106,o),
(569,623,o),
(572,635,cs),
(576,653,o),
(599,665,o),
(627,665,cs),
(644,665,o),
(681,665,o),
(696,665,cs),
(731,665,o),
(768,613,o),
(787,539,c),
(810,552,l),
(787,700,l),
(703,700,o),
(629,698,o),
(544,698,cs),
(504,698,o),
(369,700,o),
(324,700,c),
(317,672,l),
(361,672,o),
(423,672,o),
(447,672,cs),
(475,672,o),
(493,661,o),
(486,633,cs),
(469,559,o),
(374,137,o),
(364,96,cs),
(354,50,o),
(329,18,o),
(303,18,cs),
(276,18,l),
(269,0,l),
(304,0,o),
(349,2,o),
(380,2,cs),
(410,2,o),
(484,-2,o),
(518,-2,cs)
);
},
{
closed = 1;
nodes = (
(190,0,l),
(197,18,l),
(182,18,ls),
(149,18,o),
(132,48,o),
(154,88,cs),
(491,686,l),
(463,689,l),
(262,371,o),
(159,202,o),
(124,146,cs),
(79,73,o),
(18,18,o),
(-23,18,cs),
(-46,18,l),
(-53,0,l)
);
},
{
closed = 1;
nodes = (
(658,200,l),
(671,271,o),
(694,371,o),
(714,442,c),
(690,442,l),
(676,379,o),
(643,334,o),
(612,334,cs),
(256,334,l),
(248,310,l),
(301,310,o),
(584,310,o),
(605,310,cs),
(636,310,o),
(649,261,o),
(635,200,c)
);
}
);
width = 789;
}
);
metricLeft = A;
metricRight = E;
unicode = 198;
},
{
glyphname = B;
lastChange = "2024-11-11 18:59:14 +0000";
layers = (
{
layerId = m002;
shapes = (
{
closed = 1;
nodes = (
(30,0,o),
(61,2,o),
(104,2,cs),
(148,2,o),
(254,0,o),
(298,0,cs),
(414,0,o),
(514,78,o),
(539,188,cs),
(565,299,o),
(485,377,o),
(348,377,cs),
(218,377,l),
(208,336,l),
(251,336,o),
(302,336,o),
(338,336,cs),
(411,336,o),
(449,273,o),
(428,185,cs),
(407,95,o),
(345,31,o),
(279,31,cs),
(216,31,o),
(175,57,o),
(184,94,cs),
(316,669,l),
(341,669,o),
(380,669,o),
(407,669,cs),
(469,669,o),
(500,609,o),
(480,523,cs),
(460,437,o),
(389,377,o),
(308,377,c),
(301,344,l),
(440,344,o),
(558,426,o),
(584,541,cs),
(605,629,o),
(536,694,o),
(419,699,cs),
(422,698,o),
(363,698,o),
(278,698,cs),
(254,698,o),
(164,700,o),
(149,700,c),
(143,662,l),
(150,662,o),
(156,662,o),
(165,662,cs),
(204,662,o),
(226,637,o),
(218,601,cs),
(207,552,o),
(101,114,o),
(93,81,cs),
(88,56,o),
(62,38,o),
(32,38,cs),
(1,38,l),
(-5,0,l)
);
}
);
width = 616;
},
{
associatedMasterId = m002;
layerId = "2358FA11-0F5E-45F7-A804-451CE7B8CD72";
name = "Groote Garmond Romyn";
shapes = (
{
closed = 1;
nodes = (
(72,0,o),
(108,2,o),
(158,2,cs),
(210,2,o),
(335,0,o),
(387,0,cs),
(523,0,o),
(620,78,o),
(620,188,cs),
(620,299,o),
(505,382,o),
(343,382,cs),
(190,382,l),
(190,331,l),
(241,331,o),
(300,331,o),
(343,331,cs),
(429,331,o),
(490,273,o),
(490,185,cs),
(490,95,o),
(434,41,o),
(356,41,cs),
(282,41,o),
(227,67,o),
(227,104,cs),
(227,659,l),
(256,659,o),
(302,659,o),
(333,659,cs),
(407,659,o),
(459,609,o),
(459,523,cs),
(459,437,o),
(392,382,o),
(297,382,c),
(297,339,l),
(461,339,o),
(577,426,o),
(577,541,cs),
(577,629,o),
(478,694,o),
(339,699,cs),
(343,698,o),
(274,698,o),
(174,698,cs),
(146,698,o),
(39,700,o),
(22,700,c),
(22,662,l),
(31,662,o),
(37,662,o),
(48,662,cs),
(94,662,o),
(127,647,o),
(127,611,cs),
(127,562,o),
(127,104,o),
(127,71,cs),
(127,46,o),
(102,38,o),
(67,38,cs),
(30,38,l),
(30,0,l)
);
}
);
width = 675;
},
{
layerId = m003;
shapes = (
{
closed = 1;
nodes = (
(23,0,o),
(54,2,o),
(97,2,cs),
(141,2,o),
(247,0,o),
(291,0,cs),
(407,0,o),
(507,78,o),
(532,188,cs),
(558,299,o),
(478,377,o),
(341,377,cs),
(211,377,l),
(201,336,l),
(244,336,o),
(295,336,o),
(331,336,cs),
(404,336,o),
(442,273,o),
(421,185,cs),
(400,95,o),
(338,31,o),
(272,31,cs),
(209,31,o),
(168,57,o),
(177,94,cs),
(309,669,l),
(334,669,o),
(373,669,o),
(400,669,cs),
(462,669,o),
(493,609,o),
(473,523,cs),
(453,437,o),
(382,377,o),
(301,377,c),
(294,344,l),
(433,344,o),
(551,426,o),
(577,541,cs),
(598,629,o),
(529,694,o),
(412,699,cs),
(415,698,o),
(356,698,o),
(271,698,cs),
(247,698,o),
(157,700,o),
(142,700,c),
(136,672,l),
(143,672,o),
(149,672,o),
(158,672,cs),
(197,672,o),
(219,647,o),
(211,611,cs),
(200,562,o),
(94,104,o),
(86,71,cs),
(81,46,o),
(55,28,o),
(25,28,cs),
(-6,28,l),
(-12,0,l)
);
}
);
width = 602;
},
{
associatedMasterId = m003;
layerId = "ED94B8C8-6114-4A8B-8E63-C8FFDB935BA0";
name = "Groote Garmond Romyn";
shapes = (
{
closed = 1;
nodes = (
(72,0,o),
(108,2,o),
(158,2,cs),
(210,2,o),
(335,0,o),
(387,0,cs),
(523,0,o),
(620,78,o),
(620,188,cs),
(620,299,o),
(505,382,o),
(343,382,cs),
(190,382,l),
(190,331,l),
(241,331,o),
(300,331,o),
(343,331,cs),
(429,331,o),
(490,273,o),
(490,185,cs),
(490,95,o),
(434,41,o),
(356,41,cs),
(282,41,o),
(227,67,o),
(227,104,cs),
(227,659,l),
(256,659,o),
(302,659,o),
(333,659,cs),
(407,659,o),
(459,609,o),
(459,523,cs),
(459,437,o),
(392,382,o),
(297,382,c),
(297,339,l),
(461,339,o),
(577,426,o),
(577,541,cs),
(577,629,o),
(478,694,o),
(339,699,cs),
(343,698,o),
(274,698,o),
(174,698,cs),
(146,698,o),
(39,700,o),
(22,700,c),
(22,662,l),
(31,662,o),
(37,662,o),
(48,662,cs),
(94,662,o),
(127,647,o),
(127,611,cs),
(127,562,o),
(127,104,o),
(127,71,cs),
(127,46,o),
(102,38,o),
(67,38,cs),
(30,38,l),
(30,0,l)
);
}
);
width = 675;
},
{
layerId = m01;
shapes = (
{
closed = 1;
nodes = (
(35,0,o),
(66,2,o),
(109,2,cs),
(153,2,o),
(259,0,o),
(303,0,cs),
(419,0,o),
(519,78,o),
(544,188,cs),
(570,299,o),
(490,377,o),
(353,377,cs),
(223,377,l),
(213,336,l),
(256,336,o),
(307,336,o),
(343,336,cs),
(416,336,o),
(454,273,o),
(433,185,cs),
(412,95,o),
(350,31,o),
(284,31,cs),
(221,31,o),
(180,57,o),
(189,94,cs),
(321,669,l),
(346,669,o),
(385,669,o),
(412,669,cs),
(474,669,o),
(505,609,o),
(485,523,cs),
(465,437,o),
(394,377,o),
(313,377,c),
(306,344,l),
(445,344,o),
(563,426,o),
(589,541,cs),
(610,629,o),
(541,694,o),
(424,699,c),
(427,698,o),
(368,698,o),
(283,698,cs),
(259,698,o),
(169,700,o),
(154,700,c),
(148,655,l),
(155,655,o),
(161,655,o),
(170,655,cs),
(209,655,o),
(231,630,o),
(223,594,cs),
(212,545,o),
(106,122,o),
(98,89,cs),
(93,64,o),
(67,46,o),
(37,46,cs),
(6,46,l),
(0,0,l)
);
}
);
width = 627;
},
{
layerId = "F2DFA844-ADB6-4558-8504-1E1502925A9B";
shapes = (
{
closed = 1;
nodes = (
(16,0,o),
(47,2,o),
(90,2,cs),
(134,2,o),
(240,0,o),
(284,0,cs),
(400,0,o),
(500,78,o),
(525,188,cs),
(551,299,o),
(471,377,o),
(334,377,cs),
(204,377,l),
(194,336,l),
(237,336,o),
(288,336,o),
(324,336,cs),
(397,336,o),
(435,273,o),
(414,185,cs),
(393,95,o),
(331,31,o),
(265,31,cs),
(202,31,o),
(161,57,o),
(170,94,cs),
(302,669,l),
(327,669,o),
(366,669,o),
(393,669,cs),
(455,669,o),
(486,609,o),
(466,523,cs),
(446,437,o),
(375,377,o),
(294,377,c),
(287,344,l),
(426,344,o),
(544,426,o),
(570,541,cs),
(591,629,o),
(522,694,o),
(405,699,c),
(408,698,o),
(349,698,o),
(264,698,cs),
(240,698,o),
(150,700,o),
(135,700,c),
(129,682,l),
(136,682,o),
(142,682,o),
(151,682,cs),
(190,682,o),
(212,657,o),
(204,621,cs),
(193,572,o),
(87,94,o),
(79,61,cs),
(74,36,o),
(48,18,o),
(18,18,cs),
(-13,18,l),
(-19,0,l)
);
}
);
width = 588;
}
);
metricLeft = H;
metricRight = O;
unicode = 66;
},
{
glyphname = C;
lastChange = "2024-11-11 18:59:14 +0000";
layers = (
{
layerId = m002;
shapes = (
{
closed = 1;
nodes = (
(433,-8,o),
(542,44,o),
(609,118,c),
(642,249,l),
(613,251,l),
(572,124,o),
(475,34,o),
(363,34,cs),
(222,34,o),
(151,192,o),
(202,415,cs),
(239,574,o),
(356,687,o),
(472,687,cs),
(580,687,o),
(646,624,o),
(645,536,c),
(676,536,l),
(707,707,l),
(674,707,l),
(665,689,o),
(663,677,o),
(655,677,c),
(623,705,o),
(544,725,o),
(480,725,cs),
(290,725,o),
(132,573,o),
(82,359,cs),
(33,144,o),
(143,-8,o),
(334,-8,cs)
);
}
);
width = 696;
},
{
associatedMasterId = m002;
layerId = "FBDAC0B6-408B-4C38-A19F-5783C7DE9842";
name = "Groote Garmond Romyn";
shapes = (
{
closed = 1;
nodes = (
(565,-8,o),
(690,44,o),
(749,118,c),
(752,259,l),
(729,261,l),
(716,134,o),
(614,44,o),
(483,44,cs),
(317,44,o),
(190,192,o),
(190,415,cs),
(190,574,o),
(297,677,o),
(433,677,cs),
(560,677,o),
(667,614,o),
(690,526,c),
(714,526,l),
(704,707,l),
(677,707,l),
(672,689,o),
(661,677,o),
(651,677,c),
(606,705,o),
(520,725,o),
(444,725,cs),
(221,725,o),
(64,573,o),
(64,359,cs),
(64,144,o),
(223,-8,o),
(448,-8,cs)
);
}
);
width = 816;
},
{
layerId = m003;
shapes = (
{
closed = 1;
nodes = (
(426,-8,o),
(535,44,o),
(602,118,c),
(635,249,l),
(616,251,l),
(575,124,o),
(468,34,o),
(356,34,cs),
(215,34,o),
(144,192,o),
(195,415,cs),
(232,574,o),
(349,687,o),
(465,687,cs),
(573,687,o),
(649,624,o),
(648,536,c),
(669,536,l),
(700,707,l),
(677,707,l),
(668,689,o),
(656,677,o),
(648,677,c),
(616,705,o),
(537,725,o),
(473,725,cs),
(283,725,o),
(125,573,o),
(75,359,cs),
(26,144,o),
(136,-8,o),
(327,-8,cs)
);
}
);
width = 682;
},
{
associatedMasterId = m003;
layerId = "FA6D4EC4-0B5E-4426-9F98-9979CD939AB6";
name = "Groote Garmond Romyn";
shapes = (
{
closed = 1;
nodes = (
(565,-8,o),
(690,44,o),
(749,118,c),
(752,259,l),
(729,261,l),
(716,134,o),
(614,44,o),
(483,44,cs),
(317,44,o),
(190,192,o),
(190,415,cs),
(190,574,o),
(297,677,o),
(433,677,cs),
(560,677,o),
(667,614,o),
(690,526,c),
(714,526,l),
(704,707,l),
(677,707,l),
(672,689,o),
(661,677,o),
(651,677,c),
(606,705,o),
(520,725,o),
(444,725,cs),
(221,725,o),
(64,573,o),
(64,359,cs),
(64,144,o),
(223,-8,o),
(448,-8,cs)
);
}
);
width = 816;
},
{
layerId = m01;
shapes = (
{
closed = 1;
nodes = (
(438,-8,o),
(547,44,o),
(614,118,c),
(647,249,l),
(611,251,l),
(570,124,o),
(480,34,o),
(368,34,cs),
(227,34,o),
(156,192,o),
(207,415,cs),
(244,574,o),
(361,687,o),
(477,687,cs),
(585,687,o),
(644,624,o),
(643,536,c),
(681,536,l),
(712,707,l),
(672,707,l),
(663,689,o),
(668,677,o),
(660,677,c),
(628,705,o),
(549,725,o),
(485,725,cs),
(295,725,o),
(137,573,o),
(87,359,cs),
(38,144,o),
(148,-8,o),
(339,-8,cs)
);
}
);
width = 707;
},
{
layerId = "F2DFA844-ADB6-4558-8504-1E1502925A9B";
shapes = (
{
closed = 1;
nodes = (
(419,-8,o),
(528,44,o),
(595,118,c),
(628,249,l),
(619,251,l),
(578,124,o),
(461,34,o),
(349,34,cs),
(208,34,o),
(137,192,o),
(188,415,cs),
(225,574,o),
(342,687,o),
(458,687,cs),
(566,687,o),
(652,624,o),
(651,536,c),
(662,536,l),
(693,707,l),
(680,707,l),
(671,689,o),
(649,677,o),
(641,677,c),
(609,705,o),
(530,725,o),
(466,725,cs),
(276,725,o),
(118,573,o),
(68,359,cs),
(19,144,o),
(129,-8,o),
(320,-8,cs)
);
}
);
width = 668;
}
);
metricLeft = O;
metricRight = O;
unicode = 67;
},
{
glyphname = D;
lastChange = "2024-11-11 18:59:14 +0000";
layers = (
{
layerId = m002;
shapes = (
{
closed = 1;
nodes = (
(41,-1,o),
(107,0,o),
(145,0,cs),
(194,0,o),
(255,-3,o),
(312,-3,cs),
(502,-3,o),
(675,160,o),
(728,390,cs),
(770,573,o),
(677,702,o),
(502,702,cs),
(449,702,o),
(328,700,o),
(302,700,cs),
(277,700,o),
(233,702,o),
(221,702,cs),
(159,702,l),
(152,662,l),
(163,662,o),
(163,662,o),
(186,662,cs),
(230,662,o),
(253,626,o),
(241,576,cs),
(226,509,o),
(144,163,o),
(136,132,cs),
(122,71,o),
(76,37,o),
(25,37,cs),
(-5,37,l),
(-12,-3,l)
);
},
{
closed = 1;
nodes = (
(252,42,o),
(206,63,o),
(216,107,cs),
(345,656,l),
(383,656,o),
(436,656,o),
(466,656,cs),
(588,656,o),
(655,546,o),
(614,368,cs),
(568,168,o),
(444,42,o),
(326,42,cs)
);
}
);
width = 734;
},
{
associatedMasterId = m002;
layerId = "7071D6A5-3071-441D-846F-16DB423121E4";
name = "Groote Garmond Romyn";
shapes = (
{
closed = 1;
nodes = (
(51,-1,o),
(128,0,o),
(173,0,cs),
(231,0,o),
(303,-3,o),
(370,-3,cs),
(594,-3,o),
(753,160,o),
(753,390,cs),
(753,573,o),
(608,702,o),
(402,702,cs),
(340,702,o),
(198,700,o),
(168,700,cs),
(138,700,o),
(86,702,o),
(72,702,cs),
(-1,702,l),
(-1,662,l),
(12,662,o),
(12,662,o),
(39,662,cs),
(90,662,o),
(127,636,o),
(127,586,cs),
(127,519,o),
(127,163,o),
(127,132,cs),
(127,71,o),
(84,37,o),
(25,37,cs),
(-11,37,l),
(-11,-3,l)
);
},
{
closed = 1;
nodes = (
(290,42,o),
(227,63,o),
(227,107,cs),
(227,656,l),
(272,656,o),
(334,656,o),
(370,656,cs),
(513,656,o),
(625,546,o),
(625,368,cs),
(625,168,o),
(516,42,o),
(377,42,cs)
);
}
);
width = 817;
},
{
layerId = m003;
shapes = (
{
closed = 1;
nodes = (
(34,-1,o),
(100,0,o),
(138,0,cs),
(187,0,o),
(248,-3,o),
(305,-3,cs),
(495,-3,o),
(668,160,o),
(721,390,cs),
(763,573,o),
(670,702,o),
(495,702,cs),
(442,702,o),
(321,700,o),
(295,700,cs),
(270,700,o),
(226,702,o),
(214,702,cs),
(152,702,l),
(145,672,l),
(156,672,o),
(156,672,o),
(179,672,cs),
(223,672,o),
(246,636,o),
(234,586,cs),
(219,519,o),
(137,163,o),
(129,132,cs),
(115,71,o),
(69,27,o),
(18,27,cs),
(-12,27,l),
(-19,-3,l)
);
},
{
closed = 1;
nodes = (
(245,32,o),
(198,63,o),
(209,107,cs),
(338,666,l),
(376,666,o),
(429,666,o),
(459,666,cs),
(581,666,o),
(648,546,o),
(607,368,cs),
(561,168,o),
(437,32,o),
(319,32,cs)
);
}
);
width = 720;
},
{
associatedMasterId = m003;
layerId = "24BAA199-E0B1-4DBF-8A28-0A8DD0AB8195";
name = "Groote Garmond Romyn";
shapes = (
{
closed = 1;
nodes = (
(51,-1,o),
(128,0,o),
(173,0,cs),
(231,0,o),
(303,-3,o),
(370,-3,cs),
(594,-3,o),
(753,160,o),
(753,390,cs),
(753,573,o),
(608,702,o),
(402,702,cs),
(340,702,o),
(198,700,o),
(168,700,cs),
(138,700,o),
(86,702,o),
(72,702,cs),
(-1,702,l),
(-1,662,l),
(12,662,o),
(12,662,o),
(39,662,cs),
(90,662,o),
(127,636,o),
(127,586,cs),
(127,519,o),
(127,163,o),
(127,132,cs),
(127,71,o),
(84,37,o),
(25,37,cs),
(-11,37,l),
(-11,-3,l)
);
},
{
closed = 1;
nodes = (
(290,42,o),
(227,63,o),
(227,107,cs),
(227,656,l),
(272,656,o),
(334,656,o),
(370,656,cs),
(513,656,o),
(625,546,o),
(625,368,cs),
(625,168,o),
(516,42,o),
(377,42,cs)
);
}
);
width = 817;
},
{
layerId = m01;
shapes = (
{
closed = 1;
nodes = (
(46,-1,o),
(112,0,o),
(150,0,cs),
(199,0,o),
(260,-3,o),
(317,-3,cs),
(507,-3,o),
(680,160,o),
(733,390,cs),
(775,573,o),
(682,702,o),
(507,702,cs),
(454,702,o),
(333,700,o),
(307,700,cs),
(282,700,o),
(238,702,o),
(226,702,cs),
(164,702,l),
(157,655,l),
(168,655,o),
(168,655,o),
(191,655,cs),
(235,655,o),
(258,619,o),
(246,569,cs),
(231,502,o),
(149,163,o),
(141,132,cs),
(127,71,o),
(81,45,o),
(30,45,cs),
(0,45,l),
(-7,-3,l)
);
},
{
closed = 1;
nodes = (
(257,50,o),
(212,63,o),
(221,107,cs),
(350,649,l),
(388,649,o),
(441,649,o),
(471,649,cs),
(593,649,o),
(660,546,o),
(619,368,cs),
(573,168,o),
(449,50,o),
(331,50,cs)
);
}
);
width = 745;
},
{
layerId = "F2DFA844-ADB6-4558-8504-1E1502925A9B";
shapes = (
{
closed = 1;
nodes = (
(27,-1,o),
(93,0,o),
(131,0,cs),
(180,0,o),
(241,-3,o),
(298,-3,cs),
(488,-3,o),
(661,160,o),
(714,390,cs),
(756,573,o),
(663,702,o),
(488,702,cs),
(435,702,o),
(314,700,o),
(288,700,cs),
(263,700,o),
(219,702,o),
(207,702,cs),
(145,702,l),
(138,682,l),
(149,682,o),
(149,682,o),
(172,682,cs),
(216,682,o),
(239,646,o),
(227,596,cs),
(212,529,o),
(130,163,o),
(122,132,cs),
(108,71,o),
(62,17,o),
(11,17,cs),
(-19,17,l),
(-26,-3,l)
);
},
{
closed = 1;
nodes = (
(238,22,o),
(190,63,o),
(202,107,c),
(331,676,l),
(369,676,o),
(422,676,o),
(452,676,cs),
(574,676,o),
(641,546,o),
(600,368,cs),
(554,168,o),
(430,22,o),
(312,22,cs)
);
}
);
width = 706;
}
);
metricLeft = H;
metricRight = O;
unicode = 68;
},
{
glyphname = E;
lastChange = "2024-11-11 18:59:14 +0000";
layers = (
{
layerId = m002;
shapes = (
{
closed = 1;
nodes = (
(435,-1,l),
(535,143,l),
(507,158,l),
(451,82,o),
(385,44,o),
(347,44,cs),
(330,44,o),
(214,44,o),
(192,44,cs),
(168,44,o),
(158,56,o),
(165,88,cs),
(192,202,o),
(283,599,o),
(288,620,cs),
(294,646,o),
(322,655,o),
(358,655,cs),
(375,655,o),
(464,655,o),
(475,655,cs),
(527,655,o),
(545,625,o),
(531,561,c),
(564,561,l),
(596,700,l),
(525,700,o),
(400,700,o),
(383,700,cs),
(366,700,o),
(285,697,o),
(273,697,cs),
(260,697,o),
(178,700,o),
(159,700,c),
(151,657,l),
(189,657,o),
(208,643,o),
(201,609,cs),
(195,585,o),
(102,181,o),
(92,137,cs),
(77,76,o),
(51,43,o),
(24,43,cs),
(-6,43,l),
(-13,0,l),
(13,0,o),
(65,0,o),
(102,0,cs),
(140,0,o),
(194,-1,o),
(225,-1,cs)
);
},
{
closed = 1;
nodes = (
(446,260,l),
(458,327,o),
(474,395,o),
(493,462,c),
(459,462,l),
(445,403,o),
(418,379,o),
(385,379,cs),
(207,379,l),
(200,339,l),
(253,339,o),
(357,339,o),
(378,339,cs),
(412,339,o),
(421,295,o),
(413,260,c)
);
}
);
width = 589;
},
{
associatedMasterId = m002;
layerId = "1AB3F247-CAAB-456A-B478-6211DD28D4BA";
name = "Groote Garmond Romyn";
shapes = (
{
closed = 1;
nodes = (
(568,-1,l),
(647,143,l),
(612,158,l),
(566,82,o),
(512,44,o),
(467,44,cs),
(447,44,o),
(299,44,o),
(273,44,cs),
(245,44,o),
(227,66,o),
(227,88,cs),
(227,202,o),
(227,589,o),
(227,610,cs),
(227,636,o),
(255,655,o),
(297,655,cs),
(317,655,o),
(422,655,o),
(435,655,cs),
(496,655,o),
(530,625,o),
(530,561,c),
(568,561,l),
(568,700,l),
(484,700,o),
(337,700,o),
(317,700,cs),
(297,700,o),
(203,697,o),
(188,697,cs),
(173,697,o),
(76,700,o),
(53,700,c),
(53,657,l),
(98,657,o),
(127,633,o),
(127,599,cs),
(127,575,o),
(127,181,o),
(127,137,cs),
(127,76,o),
(107,43,o),
(76,43,cs),
(41,43,l),
(41,0,l),
(72,0,o),
(133,0,o),
(177,0,cs),
(221,0,o),
(285,-1,o),
(322,-1,cs)
);
},
{
closed = 1;
nodes = (
(504,260,l),
(500,327,o),
(500,395,o),
(504,462,c),
(471,462,l),
(471,403,o),
(447,379,o),
(408,379,cs),
(199,379,l),
(198,339,l),
(261,339,o),
(383,339,o),
(408,339,cs),
(448,339,o),
(472,295,o),
(472,260,c)
);
}
);
width = 692;
},
{
layerId = m003;
shapes = (
{
closed = 1;
nodes = (
(428,-1,l),
(528,143,l),
(510,158,l),
(454,82,o),
(388,34,o),
(350,34,cs),
(333,34,o),
(207,34,o),
(185,34,cs),
(161,34,o),
(151,56,o),
(158,88,cs),
(185,202,o),
(276,599,o),
(281,620,cs),
(287,646,o),
(315,665,o),
(351,665,cs),
(368,665,o),
(457,665,o),
(468,665,cs),
(520,665,o),
(548,625,o),
(534,561,c),
(557,561,l),
(589,700,l),
(518,700,o),
(393,700,o),
(376,700,cs),
(359,700,o),
(278,697,o),
(266,697,cs),
(253,697,o),
(171,700,o),
(152,700,c),
(144,667,l),
(182,667,o),
(201,643,o),
(194,609,cs),
(188,585,o),
(95,181,o),
(85,137,cs),
(70,76,o),
(44,33,o),
(17,33,cs),
(-13,33,l),
(-20,0,l),
(6,0,o),
(58,0,o),
(95,0,cs),
(133,0,o),
(187,-1,o),
(218,-1,cs)
);
},
{
closed = 1;
nodes = (
(429,260,l),
(441,327,o),
(457,395,o),
(476,462,c),
(452,462,l),
(438,403,o),
(411,374,o),
(378,374,cs),
(200,374,l),
(193,344,l),
(246,344,o),
(350,344,o),
(371,344,cs),
(405,344,o),
(414,295,o),
(406,260,c)
);
}
);
width = 575;
},
{
associatedMasterId = m003;
layerId = "34B9DF5E-0FDC-4ECD-89E3-7871CBFD0CDD";
name = "Groote Garmond Romyn";
shapes = (
{
closed = 1;
nodes = (
(568,-1,l),
(647,143,l),
(612,158,l),
(566,82,o),
(512,44,o),
(467,44,cs),
(447,44,o),
(299,44,o),
(273,44,cs),
(245,44,o),
(227,66,o),
(227,88,cs),
(227,202,o),
(227,589,o),
(227,610,cs),
(227,636,o),
(255,655,o),
(297,655,cs),
(317,655,o),
(422,655,o),
(435,655,cs),
(496,655,o),
(530,625,o),
(530,561,c),
(568,561,l),
(568,700,l),
(484,700,o),
(337,700,o),
(317,700,cs),
(297,700,o),
(203,697,o),
(188,697,cs),
(173,697,o),
(76,700,o),
(53,700,c),
(53,657,l),
(98,657,o),
(127,633,o),
(127,599,cs),
(127,575,o),
(127,181,o),
(127,137,cs),
(127,76,o),
(107,43,o),
(76,43,cs),
(41,43,l),
(41,0,l),
(72,0,o),
(133,0,o),
(177,0,cs),
(221,0,o),
(285,-1,o),
(322,-1,cs)
);
},
{
closed = 1;
nodes = (
(504,260,l),
(500,327,o),
(500,395,o),
(504,462,c),
(471,462,l),
(471,403,o),
(447,379,o),
(408,379,cs),
(199,379,l),
(198,339,l),
(261,339,o),
(383,339,o),
(408,339,cs),
(448,339,o),
(472,295,o),
(472,260,c)
);
}
);
width = 692;
},
{
layerId = m01;
shapes = (
{
closed = 1;
nodes = (
(440,-1,l),
(540,143,l),
(505,158,l),
(449,82,o),
(383,52,o),
(345,52,cs),
(328,52,o),
(219,52,o),
(197,52,cs),
(173,52,o),
(163,56,o),
(170,88,cs),
(197,202,o),
(288,599,o),
(293,620,cs),
(299,646,o),
(327,648,o),
(363,648,cs),
(380,648,o),
(469,648,o),
(480,648,cs),
(532,648,o),
(543,625,o),
(529,561,c),
(569,561,l),
(601,700,l),
(530,700,o),
(405,700,o),
(388,700,cs),
(371,700,o),
(290,697,o),
(278,697,cs),
(265,697,o),
(183,700,o),
(164,700,c),
(156,650,l),
(194,650,o),
(213,643,o),
(206,609,cs),
(200,585,o),
(107,181,o),
(97,137,cs),
(82,76,o),
(56,51,o),
(29,51,cs),
(-1,51,l),
(-8,0,l),
(18,0,o),
(70,0,o),
(107,0,cs),
(145,0,o),
(199,-1,o),
(230,-1,cs)
);
},
{
closed = 1;
nodes = (
(459,260,l),
(471,327,o),
(487,395,o),
(506,462,c),
(464,462,l),
(450,403,o),
(423,383,o),
(390,383,cs),
(212,383,l),
(205,335,l),
(258,335,o),
(362,335,o),
(383,335,cs),
(417,335,o),
(426,295,o),
(418,260,c)
);
}
);
width = 600;
},
{
layerId = "F2DFA844-ADB6-4558-8504-1E1502925A9B";
shapes = (
{
closed = 1;
nodes = (
(421,-1,l),
(521,143,l),
(513,158,l),
(457,82,o),
(391,24,o),
(353,24,cs),
(336,24,o),
(200,24,o),
(178,24,cs),
(154,24,o),
(144,56,o),
(151,88,cs),
(178,202,o),
(269,599,o),
(274,620,cs),
(280,646,o),
(308,675,o),
(344,675,cs),
(361,675,o),
(450,675,o),
(461,675,cs),
(513,675,o),
(551,625,o),
(537,561,c),
(550,561,l),
(582,700,l),
(511,700,o),
(386,700,o),
(369,700,cs),
(352,700,o),
(271,697,o),
(259,697,cs),
(246,697,o),
(164,700,o),
(145,700,c),
(137,677,l),
(175,677,o),
(194,643,o),
(187,609,cs),
(181,585,o),
(88,181,o),
(78,137,cs),
(63,76,o),
(37,23,o),
(10,23,cs),
(-20,23,l),
(-27,0,l),
(-1,0,o),
(51,0,o),
(88,0,cs),
(126,0,o),
(180,-1,o),
(211,-1,cs)
);
},
{
closed = 1;
nodes = (
(412,260,l),
(424,327,o),
(440,395,o),
(459,462,c),
(445,462,l),
(431,403,o),
(404,369,o),
(371,369,cs),
(193,369,l),
(186,349,l),
(239,349,o),
(343,349,o),
(364,349,cs),
(398,349,o),
(407,295,o),
(399,260,c)
);
}
);
width = 561;
}
);
metricLeft = H;
metricRight = H;
unicode = 69;
},
{
glyphname = F;
lastChange = "2024-11-11 18:59:14 +0000";
layers = (
{
layerId = m002;
shapes = (
{
closed = 1;
nodes = (
(230,37,l),
(212,37,o),
(197,37,o),
(190,37,cs),
(166,37,o),
(156,49,o),
(164,81,cs),
(190,195,o),
(280,600,o),
(288,620,cs),
(294,636,o),
(322,655,o),
(358,655,cs),
(375,655,o),
(464,655,o),
(475,655,cs),
(527,655,o),
(537,625,o),
(531,561,c),
(564,561,l),
(588,700,l),
(517,700,o),
(400,700,o),
(383,700,cs),
(366,700,o),
(285,697,o),
(273,697,cs),
(260,697,o),
(178,700,o),
(159,700,c),
(151,657,l),
(189,657,o),
(208,633,o),
(201,609,cs),
(194,585,o),
(102,181,o),
(92,137,cs),
(76,69,o),
(49,36,o),
(23,36,cs),
(-7,36,l),
(-13,0,l),
(13,0,o),
(65,0,o),
(102,0,cs),
(139,0,o),
(192,-1,o),
(224,-1,c)
);
},
{
closed = 1;
nodes = (
(425,240,l),
(437,307,o),
(462,415,o),
(480,482,c),
(447,482,l),
(433,423,o),
(401,379,o),
(368,379,cs),
(207,379,l),
(200,344,l),
(253,344,o),
(340,344,o),
(361,344,cs),
(395,344,o),
(400,275,o),
(392,240,c)
);
}
);
width = 520;
},
{
associatedMasterId = m002;
layerId = "376A225D-D448-4A82-B5A8-13CBEC3AFDCB";
name = "Groote Garmond Romyn";
shapes = (
{
closed = 1;
nodes = (
(320,37,l),
(298,37,o),
(281,37,o),
(273,37,cs),
(245,37,o),
(227,49,o),
(227,81,cs),
(227,195,o),
(227,589,o),
(227,610,cs),
(227,636,o),
(255,655,o),
(297,655,cs),
(317,655,o),
(422,655,o),
(435,655,cs),
(496,655,o),
(520,625,o),
(530,561,c),
(568,561,l),
(558,700,l),
(474,700,o),
(337,700,o),
(317,700,cs),
(297,700,o),
(203,697,o),
(188,697,cs),
(173,697,o),
(76,700,o),
(53,700,c),
(53,657,l),
(98,657,o),
(127,633,o),
(127,599,cs),
(127,575,o),
(127,181,o),
(127,137,cs),
(127,69,o),
(107,36,o),
(76,36,cs),
(41,36,l),
(41,0,l),
(72,0,o),
(133,0,o),
(177,0,cs),
(220,0,o),
(283,-1,o),
(320,-1,c)
);
},
{
closed = 1;
nodes = (
(484,240,l),
(480,307,o),
(480,415,o),
(484,482,c),
(451,482,l),
(451,423,o),
(427,379,o),
(388,379,cs),
(199,379,l),
(198,339,l),
(261,339,o),
(363,339,o),
(388,339,cs),
(428,339,o),
(452,275,o),
(452,240,c)
);
}
);
width = 586;
},
{
layerId = m003;
shapes = (
{
closed = 1;
nodes = (
(223,27,l),
(205,27,o),
(190,27,o),
(183,27,cs),
(159,27,o),
(149,49,o),
(157,81,cs),
(183,195,o),
(276,599,o),
(281,620,cs),
(287,646,o),
(315,665,o),
(351,665,cs),
(368,665,o),
(457,665,o),
(468,665,cs),
(520,665,o),
(540,625,o),
(534,561,c),
(557,561,l),
(581,700,l),
(510,700,o),
(393,700,o),
(376,700,cs),
(359,700,o),
(278,697,o),
(266,697,cs),
(253,697,o),
(171,700,o),
(152,700,c),
(144,667,l),
(182,667,o),
(201,643,o),
(194,609,cs),
(188,585,o),
(95,181,o),
(85,137,cs),
(69,69,o),
(42,26,o),
(16,26,cs),
(-14,26,l),
(-20,0,l),
(6,0,o),
(58,0,o),
(95,0,cs),
(132,0,o),
(185,-1,o),
(217,-1,c)
);
},
{
closed = 1;
nodes = (
(408,240,l),
(420,307,o),
(445,415,o),
(463,482,c),
(440,482,l),
(426,423,o),
(394,374,o),
(361,374,cs),
(200,374,l),
(193,344,l),
(246,344,o),
(333,344,o),
(354,344,cs),
(388,344,o),
(393,275,o),
(385,240,c)
);
}
);
width = 506;
},
{
associatedMasterId = m003;
layerId = "1A9C66C1-D8F2-4BA7-8588-3ABD404EDBCA";
name = "Groote Garmond Romyn";
shapes = (
{
closed = 1;
nodes = (
(320,37,l),
(298,37,o),
(281,37,o),
(273,37,cs),
(245,37,o),
(227,49,o),
(227,81,cs),
(227,195,o),
(227,589,o),
(227,610,cs),
(227,636,o),
(255,655,o),
(297,655,cs),
(317,655,o),
(422,655,o),
(435,655,cs),
(496,655,o),
(520,625,o),
(530,561,c),
(568,561,l),
(558,700,l),
(474,700,o),
(337,700,o),
(317,700,cs),
(297,700,o),
(203,697,o),
(188,697,cs),
(173,697,o),
(76,700,o),
(53,700,c),
(53,657,l),
(98,657,o),
(127,633,o),
(127,599,cs),
(127,575,o),
(127,181,o),
(127,137,cs),
(127,69,o),
(107,36,o),
(76,36,cs),
(41,36,l),
(41,0,l),
(72,0,o),
(133,0,o),
(177,0,cs),
(220,0,o),
(283,-1,o),
(320,-1,c)
);
},
{
closed = 1;
nodes = (
(484,240,l),
(480,307,o),
(480,415,o),
(484,482,c),
(451,482,l),
(451,423,o),
(427,379,o),
(388,379,cs),
(199,379,l),
(198,339,l),
(261,339,o),
(363,339,o),
(388,339,cs),
(428,339,o),
(452,275,o),
(452,240,c)
);
}
);
width = 586;
},
{
layerId = m01;
shapes = (
{
closed = 1;
nodes = (
(235,45,l),
(217,45,o),
(202,45,o),
(195,45,cs),
(171,45,o),
(161,49,o),
(169,81,cs),
(195,195,o),
(283,601,o),
(293,620,cs),
(299,629,o),
(327,648,o),
(363,648,cs),
(380,648,o),
(469,648,o),
(480,648,cs),
(532,648,o),
(535,625,o),
(529,561,c),
(569,561,l),
(593,700,l),
(522,700,o),
(405,700,o),
(388,700,cs),
(371,700,o),
(290,697,o),
(278,697,cs),
(265,697,o),
(183,700,o),
(164,700,c),
(156,650,l),
(194,650,o),
(213,626,o),
(206,609,c),
(199,585,o),
(107,181,o),
(97,137,cs),
(81,69,o),
(54,44,o),
(28,44,cs),
(-2,44,l),
(-8,0,l),
(18,0,o),
(70,0,o),
(107,0,cs),
(144,0,o),
(197,-1,o),
(229,-1,c)
);
},
{
closed = 1;
nodes = (
(438,240,l),
(450,307,o),
(475,415,o),
(493,482,c),
(452,482,l),
(438,423,o),
(406,383,o),
(373,383,cs),
(212,383,l),
(205,344,l),
(258,344,o),
(345,344,o),
(366,344,cs),
(400,344,o),
(405,275,o),
(397,240,c)
);
}
);
width = 531;
},
{
layerId = "F2DFA844-ADB6-4558-8504-1E1502925A9B";
shapes = (
{
closed = 1;
nodes = (
(216,17,l),
(198,17,o),
(183,17,o),
(176,17,cs),
(152,17,o),
(142,49,o),
(150,81,cs),
(176,195,o),
(272,598,o),
(274,620,cs),
(280,656,o),
(308,675,o),
(344,675,cs),
(361,675,o),
(450,675,o),
(461,675,cs),
(513,675,o),
(543,625,o),
(537,561,c),
(550,561,l),
(574,700,l),
(503,700,o),
(386,700,o),
(369,700,cs),
(352,700,o),
(271,697,o),
(259,697,cs),
(246,697,o),
(164,700,o),
(145,700,c),
(137,677,l),
(175,677,o),
(194,653,o),
(187,609,cs),
(182,585,o),
(88,181,o),
(78,137,cs),
(62,69,o),
(35,16,o),
(9,16,cs),
(-21,16,l),
(-27,0,l),
(-1,0,o),
(51,0,o),
(88,0,cs),
(125,0,o),
(178,-1,o),
(210,-1,c)
);
},
{
closed = 1;
nodes = (
(391,240,l),
(403,307,o),
(428,415,o),
(446,482,c),
(433,482,l),
(419,423,o),
(387,369,o),
(354,369,cs),
(193,369,l),
(186,344,l),
(239,344,o),
(326,344,o),
(347,344,cs),
(381,344,o),
(386,275,o),
(378,240,c)
);
}
);
width = 492;
}
);
metricLeft = H;
metricRight = H;
unicode = 70;
},
{
glyphname = G;
lastChange = "2024-11-11 18:59:14 +0000";
layers = (
{
layerId = m002;
shapes = (
{
closed = 1;
nodes = (
(409,-20,o),
(514,13,o),
(595,59,c),
(598,76,l),
(590,82,o),
(586,92,o),
(587,99,cs),
(590,112,o),
(611,199,o),
(616,222,cs),
(623,252,o),
(645,274,o),
(668,274,cs),
(688,274,l),
(696,319,l),
(428,319,l),
(420,273,l),
(440,273,o),
(500,273,o),
(505,273,cs),
(526,273,o),
(533,234,o),
(520,180,cs),
(497,80,o),
(425,10,o),
(358,10,cs),
(225,10,o),
(147,150,o),
(192,347,cs),
(237,540,o),
(371,676,o),
(517,676,cs),
(609,676,o),
(664,606,o),
(665,507,c),
(692,507,l),
(736,694,l),
(678,694,o),
(588,712,o),
(510,712,cs),
(306,712,o),
(127,561,o),
(78,348,cs),
(28,132,o),
(138,-20,o),
(343,-20,cs)
);
}
);
width = 728;
},
{
associatedMasterId = m002;
layerId = "E728789F-F541-4868-851F-AC3A7ECD1FC8";
name = "Groote Garmond Romyn";
shapes = (
{
closed = 1;
nodes = (
(554,-20,o),
(668,13,o),
(751,59,c),
(751,73,l),
(740,79,o),
(732,89,o),
(732,96,cs),
(732,109,o),
(732,199,o),
(732,222,cs),
(732,252,o),
(751,274,o),
(778,274,cs),
(802,274,l),
(802,319,l),
(487,319,l),
(487,273,l),
(510,273,o),
(581,273,o),
(587,273,cs),
(612,273,o),
(630,234,o),
(630,180,cs),
(630,80,o),
(564,20,o),
(485,20,cs),
(329,20,o),
(199,150,o),
(199,347,cs),
(199,540,o),
(320,666,o),
(492,666,cs),
(600,666,o),
(695,596,o),
(723,497,c),
(744,497,l),
(744,694,l),
(676,694,o),
(566,712,o),
(474,712,cs),
(234,712,o),
(64,561,o),
(64,348,cs),
(64,132,o),
(235,-20,o),
(476,-20,cs)
);
}
);
width = 859;
},
{
layerId = m003;
shapes = (
{
closed = 1;
nodes = (
(402,-20,o),
(507,13,o),
(588,59,c),
(591,73,l),
(583,79,o),
(579,89,o),
(580,96,cs),
(583,109,o),
(604,199,o),
(609,222,cs),
(616,252,o),
(638,274,o),
(661,274,cs),
(681,274,l),
(689,309,l),
(421,309,l),
(413,273,l),
(433,273,o),
(493,273,o),
(498,273,cs),
(519,273,o),
(526,234,o),
(513,180,cs),
(490,80,o),
(418,10,o),
(351,10,cs),
(218,10,o),
(140,150,o),
(185,347,cs),
(230,540,o),
(364,676,o),
(510,676,cs),
(602,676,o),
(667,606,o),
(668,507,c),
(685,507,l),
(729,694,l),
(671,694,o),
(581,712,o),
(503,712,cs),
(299,712,o),
(120,561,o),
(71,348,cs),
(21,132,o),
(131,-20,o),
(336,-20,cs)
);
}
);
width = 714;
},
{
associatedMasterId = m003;
layerId = "1B3C6BD8-3EAF-43AC-BA9B-E6B8FDABBF4A";
name = "Groote Garmond Romyn";
shapes = (
{
closed = 1;
nodes = (
(554,-20,o),
(668,13,o),
(751,59,c),
(751,73,l),
(740,79,o),
(732,89,o),
(732,96,cs),
(732,109,o),
(732,199,o),
(732,222,cs),
(732,252,o),
(751,274,o),
(778,274,cs),
(802,274,l),
(802,319,l),
(487,319,l),
(487,273,l),
(510,273,o),
(581,273,o),
(587,273,cs),
(612,273,o),
(630,234,o),
(630,180,cs),
(630,80,o),
(564,20,o),
(485,20,cs),
(329,20,o),
(199,150,o),
(199,347,cs),
(199,540,o),
(320,666,o),
(492,666,cs),
(600,666,o),
(695,596,o),
(723,497,c),
(744,497,l),
(744,694,l),
(676,694,o),
(566,712,o),
(474,712,cs),
(234,712,o),
(64,561,o),
(64,348,cs),
(64,132,o),
(235,-20,o),
(476,-20,cs)
);
}
);
width = 859;
},
{
layerId = m01;
shapes = (
{
closed = 1;
nodes = (
(414,-20,o),
(519,13,o),
(600,59,c),
(603,78,l),
(595,84,o),
(591,94,o),
(592,101,cs),
(595,114,o),
(616,199,o),
(621,222,cs),
(628,252,o),
(650,274,o),
(673,274,cs),
(693,274,l),
(701,327,l),
(433,327,l),
(425,273,l),
(445,273,o),
(505,273,o),
(510,273,cs),
(531,273,o),
(538,234,o),
(525,180,cs),
(502,80,o),
(430,10,o),
(363,10,cs),
(230,10,o),
(152,150,o),
(197,347,cs),
(242,540,o),
(376,676,o),
(522,676,cs),
(614,676,o),
(662,606,o),
(663,507,c),
(697,507,l),
(741,694,l),
(683,694,o),
(593,712,o),
(515,712,cs),
(311,712,o),
(132,561,o),
(83,348,cs),
(33,132,o),
(143,-20,o),
(348,-20,cs)
);
}
);
width = 739;
},
{
layerId = "F2DFA844-ADB6-4558-8504-1E1502925A9B";
shapes = (
{
closed = 1;
nodes = (
(395,-20,o),
(500,13,o),
(581,59,c),
(584,70,l),
(576,76,o),
(572,86,o),
(573,93,cs),
(576,106,o),
(597,199,o),
(602,222,cs),
(609,252,o),
(631,274,o),
(654,274,cs),
(674,274,l),
(682,299,l),
(414,299,l),
(406,273,l),
(426,273,o),
(486,273,o),
(491,273,cs),
(512,273,o),
(519,234,o),
(506,180,cs),
(483,80,o),
(411,10,o),
(344,10,cs),
(211,10,o),
(133,150,o),
(178,347,cs),
(223,540,o),
(357,676,o),
(503,676,cs),
(595,676,o),
(670,606,o),
(671,507,c),
(678,507,l),
(722,694,l),
(664,694,o),
(574,712,o),
(496,712,cs),
(292,712,o),
(113,561,o),
(64,348,cs),
(14,132,o),
(124,-20,o),
(329,-20,cs)
);
}
);
width = 700;
}
);
metricLeft = O;
metricRight = O;
unicode = 71;
},
{
glyphname = H;
lastChange = "2024-11-11 18:59:14 +0000";
layers = (
{
layerId = m002;
shapes = (
{
closed = 1;
nodes = (
(688,0,l),
(695,38,l),
(690,38,o),
(685,38,o),
(679,38,cs),
(637,38,o),
(604,63,o),
(616,112,cs),
(621,137,o),
(724,581,o),
(729,605,cs),
(738,644,o),
(774,662,o),
(798,662,cs),
(822,662,l),
(829,700,l),
(569,700,l),
(563,662,l),
(572,662,o),
(580,662,o),
(591,662,cs),
(625,662,o),
(655,652,o),
(649,624,cs),
(644,601,o),
(538,146,o),
(534,125,cs),
(520,68,o),
(477,38,o),
(445,38,cs),
(411,38,l),
(404,0,l)
);
},
{
closed = 1;
nodes = (
(261,0,l),
(267,38,l),
(261,38,o),
(261,38,o),
(249,38,cs),
(206,38,o),
(172,61,o),
(183,108,cs),
(190,138,o),
(294,591,o),
(299,612,cs),
(307,647,o),
(337,662,o),
(356,662,cs),
(398,662,l),
(405,700,l),
(159,700,l),
(152,662,l),
(159,662,o),
(165,662,o),
(174,662,cs),
(197,662,o),
(227,659,o),
(223,649,cs),
(202,597,o),
(111,164,o),
(103,132,cs),
(89,71,o),
(48,38,o),
(26,38,cs),
(-7,38,l),
(-14,0,l)
);
},
{
closed = 1;
nodes = (
(623,335,l),
(631,380,l),
(237,380,l),
(229,335,l)
);
}
);
width = 785;
},
{
associatedMasterId = m002;
layerId = "6A4E8356-6A8A-4D0A-879E-EE3180E6DD20";
name = "Groote Garmond Romyn";
shapes = (
{
closed = 1;
nodes = (
(851,0,l),
(851,38,l),
(845,38,o),
(840,38,o),
(832,38,cs),
(783,38,o),
(735,73,o),
(735,112,cs),
(735,137,o),
(735,581,o),
(735,605,cs),
(735,634,o),
(769,662,o),
(798,662,cs),
(826,662,l),
(826,700,l),
(521,700,l),
(521,662,l),
(532,662,o),
(541,662,o),
(554,662,cs),
(594,662,o),
(635,642,o),
(635,624,cs),
(635,601,o),
(635,146,o),
(635,125,cs),
(635,78,o),
(595,38,o),
(557,38,cs),
(517,38,l),
(517,0,l)
);
},
{
closed = 1;
nodes = (
(348,0,l),
(348,38,l),
(341,38,o),
(341,38,o),
(327,38,cs),
(276,38,o),
(227,71,o),
(227,108,cs),
(227,138,o),
(227,591,o),
(227,612,cs),
(227,637,o),
(255,662,o),
(277,662,cs),
(327,662,l),
(327,700,l),
(38,700,l),
(38,662,l),
(46,662,o),
(53,662,o),
(63,662,cs),
(91,662,o),
(127,659,o),
(127,639,cs),
(127,585,o),
(127,164,o),
(127,132,cs),
(127,81,o),
(90,38,o),
(64,38,cs),
(25,38,l),
(25,0,l)
);
},
{
closed = 1;
nodes = (
(680,345,l),
(680,390,l),
(217,390,l),
(217,345,l)
);
}
);
width = 862;
},
{
layerId = m003;
shapes = (
{
closed = 1;
nodes = (
(681,0,l),
(688,28,l),
(683,28,o),
(678,28,o),
(672,28,cs),
(630,28,o),
(597,63,o),
(609,112,cs),
(614,137,o),
(717,581,o),
(722,605,cs),
(731,644,o),
(767,672,o),
(791,672,cs),
(815,672,l),
(822,700,l),
(562,700,l),
(556,672,l),
(565,672,o),
(573,672,o),
(584,672,cs),
(618,672,o),
(648,652,o),
(642,624,cs),
(637,601,o),
(531,146,o),
(527,125,cs),
(513,68,o),
(470,28,o),
(438,28,cs),
(404,28,l),
(397,0,l)
);
},
{
closed = 1;
nodes = (
(254,0,l),
(260,28,l),
(254,28,o),
(254,28,o),
(242,28,cs),
(199,28,o),
(165,61,o),
(176,108,cs),
(183,138,o),
(287,591,o),
(292,612,cs),
(300,647,o),
(330,672,o),
(349,672,cs),
(391,672,l),
(398,700,l),
(152,700,l),
(145,672,l),
(152,672,o),
(158,672,o),
(167,672,cs),
(190,672,o),
(220,669,o),
(216,649,cs),
(203,595,o),
(104,164,o),
(96,132,cs),
(82,71,o),
(41,28,o),
(19,28,cs),
(-14,28,l),
(-21,0,l)
);
},
{
closed = 1;
nodes = (
(616,345,l),
(624,380,l),
(230,380,l),
(222,345,l)
);
}
);
width = 771;
},
{
associatedMasterId = m003;
layerId = "19A71292-6EDC-4E59-9C2E-4AD0D6A240A6";
name = "Groote Garmond Romyn";
shapes = (
{
closed = 1;
nodes = (
(851,0,l),
(851,38,l),
(845,38,o),
(840,38,o),
(832,38,cs),
(783,38,o),
(735,73,o),
(735,112,cs),
(735,137,o),
(735,581,o),
(735,605,cs),
(735,634,o),
(769,662,o),
(798,662,cs),
(826,662,l),
(826,700,l),
(521,700,l),
(521,662,l),
(532,662,o),
(541,662,o),
(554,662,cs),
(594,662,o),
(635,642,o),
(635,624,cs),
(635,601,o),
(635,146,o),
(635,125,cs),
(635,78,o),
(595,38,o),
(557,38,cs),
(517,38,l),
(517,0,l)
);
},
{
closed = 1;
nodes = (
(348,0,l),
(348,38,l),
(341,38,o),
(341,38,o),
(327,38,cs),
(276,38,o),
(227,71,o),
(227,108,cs),
(227,138,o),
(227,591,o),
(227,612,cs),
(227,637,o),
(255,662,o),
(277,662,cs),
(327,662,l),
(327,700,l),
(38,700,l),
(38,662,l),
(46,662,o),
(53,662,o),
(63,662,cs),
(91,662,o),
(127,659,o),
(127,639,cs),
(127,585,o),
(127,164,o),
(127,132,cs),
(127,81,o),
(90,38,o),
(64,38,cs),
(25,38,l),
(25,0,l)
);
},
{
closed = 1;
nodes = (
(680,345,l),
(680,390,l),
(217,390,l),
(217,345,l)
);
}
);
width = 862;
},
{
layerId = m01;
shapes = (
{
closed = 1;
nodes = (
(693,0,l),
(700,46,l),
(695,46,o),
(690,46,o),
(684,46,cs),
(642,46,o),
(609,63,o),
(621,112,cs),
(626,137,o),
(729,581,o),
(734,605,cs),
(743,644,o),
(779,655,o),
(803,655,cs),
(827,655,l),
(834,700,l),
(574,700,l),
(568,655,l),
(577,655,o),
(585,655,o),
(596,655,cs),
(630,655,o),
(660,652,o),
(654,624,cs),
(649,601,o),
(543,146,o),
(539,125,cs),
(525,68,o),
(482,46,o),
(450,46,cs),
(416,46,l),
(409,0,l)
);
},
{
closed = 1;
nodes = (
(266,0,l),
(272,46,l),
(266,46,o),
(266,46,o),
(254,46,cs),
(211,46,o),
(177,61,o),
(188,108,cs),
(195,138,o),
(299,591,o),
(304,612,cs),
(312,647,o),
(342,655,o),
(361,655,cs),
(403,655,l),
(410,700,l),
(164,700,l),
(157,655,l),
(164,655,o),
(170,655,o),
(179,655,cs),
(202,655,o),
(232,652,o),
(228,649,c),
(201,599,o),
(116,164,o),
(108,132,cs),
(94,71,o),
(53,46,o),
(31,46,cs),
(-2,46,l),
(-9,0,l)
);
},
{
closed = 1;
nodes = (
(628,328,l),
(636,380,l),
(242,380,l),
(234,328,l)
);
}
);
width = 796;
},
{
layerId = "F2DFA844-ADB6-4558-8504-1E1502925A9B";
shapes = (
{
closed = 1;
nodes = (
(674,0,l),
(681,18,l),
(676,18,o),
(671,18,o),
(665,18,cs),
(623,18,o),
(590,63,o),
(602,112,cs),
(607,137,o),
(710,581,o),
(715,605,cs),
(724,644,o),
(760,682,o),
(784,682,cs),
(808,682,l),
(815,700,l),
(555,700,l),
(549,682,l),
(558,682,o),
(566,682,o),
(577,682,cs),
(611,682,o),
(641,652,o),
(635,624,cs),
(630,601,o),
(524,146,o),
(520,125,cs),
(506,68,o),
(463,18,o),
(431,18,cs),
(397,18,l),
(390,0,l)
);
},
{
closed = 1;
nodes = (
(247,0,l),
(253,18,l),
(247,18,o),
(247,18,o),
(235,18,cs),
(192,18,o),
(158,61,o),
(169,108,cs),
(176,138,o),
(280,591,o),
(285,612,cs),
(293,647,o),
(323,682,o),
(342,682,cs),
(384,682,l),
(391,700,l),
(145,700,l),
(138,682,l),
(145,682,o),
(151,682,o),
(160,682,cs),
(183,682,o),
(213,679,o),
(209,649,cs),
(204,593,o),
(97,164,o),
(89,132,cs),
(75,71,o),
(34,18,o),
(12,18,cs),
(-21,18,l),
(-28,0,l)
);
},
{
closed = 1;
nodes = (
(609,355,l),
(617,380,l),
(223,380,l),
(215,355,l)
);
}
);
width = 757;
}
);
unicode = 72;
},
{
glyphname = I;
lastChange = "2024-11-11 18:59:14 +0000";
layers = (
{
layerId = m002;
shapes = (
{
closed = 1;
nodes = (
(222,0,l),
(229,38,l),
(223,38,o),
(214,38,o),
(202,38,cs),
(184,38,o),
(176,71,o),
(187,108,cs),
(196,138,o),
(298,591,o),
(303,612,cs),
(311,647,o),
(336,662,o),
(360,662,cs),
(396,662,l),
(403,700,l),
(159,700,l),
(152,662,l),
(159,662,o),
(165,662,o),
(173,662,cs),
(207,662,o),
(230,652,o),
(227,639,cs),
(214,585,o),
(115,164,o),
(107,132,cs),
(93,71,o),
(56,38,o),
(21,38,cs),
(5,38,l),
(-1,0,l)
);
}
);
width = 329;
},
{
associatedMasterId = m002;
layerId = "39A67F10-5AE9-4527-A186-71D57AC98AD7";
name = "Groote Garmond Romyn";
shapes = (
{
closed = 1;
nodes = (
(298,0,l),
(298,38,l),
(291,38,o),
(281,38,o),
(267,38,cs),
(245,38,o),
(227,61,o),
(227,108,cs),
(227,138,o),
(227,591,o),
(227,612,cs),
(227,637,o),
(249,662,o),
(277,662,cs),
(320,662,l),
(320,700,l),
(33,700,l),
(33,662,l),
(41,662,o),
(48,662,o),
(58,662,cs),
(97,662,o),
(127,652,o),
(127,639,cs),
(127,585,o),
(127,164,o),
(127,132,cs),
(127,71,o),
(95,38,o),
(54,38,cs),
(35,38,l),
(35,0,l)
);
}
);
width = 354;
},
{
layerId = m003;
shapes = (
{
closed = 1;
nodes = (
(215,0,l),
(222,28,l),
(216,28,o),
(207,28,o),
(195,28,cs),
(177,28,o),
(169,61,o),
(180,108,cs),
(187,138,o),
(291,591,o),
(296,612,cs),
(304,647,o),
(329,672,o),
(353,672,cs),
(389,672,l),
(396,700,l),
(152,700,l),
(145,672,l),
(152,672,o),
(158,672,o),
(166,672,cs),
(200,672,o),
(223,662,o),
(220,649,cs),
(207,595,o),
(108,164,o),
(100,132,cs),
(86,71,o),
(49,28,o),
(14,28,cs),
(-2,28,l),
(-8,0,l)
);
}
);
width = 315;
},
{
associatedMasterId = m003;
layerId = "896C0740-5B96-4F45-AF40-B4185E07A668";
name = "Groote Garmond Romyn";
shapes = (
{
closed = 1;
nodes = (
(298,0,l),
(298,38,l),
(291,38,o),
(281,38,o),
(267,38,cs),
(245,38,o),
(227,61,o),
(227,108,cs),
(227,138,o),
(227,591,o),
(227,612,cs),
(227,637,o),
(249,662,o),
(277,662,cs),
(320,662,l),
(320,700,l),
(33,700,l),
(33,662,l),
(41,662,o),
(48,662,o),
(58,662,cs),
(97,662,o),
(127,652,o),
(127,639,cs),
(127,585,o),
(127,164,o),
(127,132,cs),
(127,71,o),
(95,38,o),
(54,38,cs),
(35,38,l),
(35,0,l)
);
}
);
width = 354;
},
{
layerId = m01;
shapes = (
{
closed = 1;
nodes = (
(227,0,l),
(234,46,l),
(228,46,o),
(219,46,o),
(207,46,cs),
(189,46,o),
(181,79,o),
(192,108,cs),
(203,138,o),
(303,591,o),
(308,612,cs),
(316,647,o),
(341,655,o),
(365,655,cs),
(401,655,l),
(408,700,l),
(164,700,l),
(157,655,l),
(164,655,o),
(170,655,o),
(178,655,cs),
(212,655,o),
(235,645,o),
(232,632,cs),
(219,578,o),
(120,164,o),
(112,132,cs),
(98,71,o),
(61,46,o),
(26,46,cs),
(10,46,l),
(4,0,l)
);
}
);
width = 340;
},
{
layerId = "F2DFA844-ADB6-4558-8504-1E1502925A9B";
shapes = (
{
closed = 1;
nodes = (
(208,0,l),
(215,18,l),
(209,18,o),
(200,18,o),
(188,18,cs),
(170,18,o),
(162,51,o),
(173,108,cs),
(178,138,o),
(284,591,o),
(289,612,cs),
(297,647,o),
(322,682,o),
(346,682,cs),
(382,682,l),
(389,700,l),
(145,700,l),
(138,682,l),
(145,682,o),
(151,682,o),
(159,682,cs),
(193,682,o),
(216,672,o),
(213,659,cs),
(200,605,o),
(101,164,o),
(93,132,cs),
(79,71,o),
(42,18,o),
(7,18,cs),
(-9,18,l),
(-15,0,l)
);
}
);
width = 301;
}
);
metricLeft = H;
metricRight = H;
unicode = 73;
},
{
glyphname = J;
lastChange = "2024-11-11 18:59:14 +0000";
layers = (
{
layerId = m002;
shapes = (
{
closed = 1;
nodes = (
(-16,-373,o),
(65,-294,o),
(91,-183,cs),
(112,-92,o),
(265,570,o),
(274,611,cs),
(283,649,o),
(321,664,o),
(365,662,cs),
(390,661,l),
(397,700,l),
(134,700,l),
(127,661,l),
(135,661,o),
(141,662,o),
(150,662,cs),
(181,662,o),
(199,654,o),
(193,628,cs),
(184,591,o),
(-2,-217,o),
(-11,-254,cs),
(-23,-306,o),
(-58,-332,o),
(-96,-332,cs),
(-138,-332,o),
(-163,-320,o),
(-155,-288,cs),
(-149,-262,o),
(-136,-256,o),
(-132,-239,cs),
(-129,-227,o),
(-142,-219,o),
(-162,-219,cs),
(-186,-219,o),
(-209,-249,o),
(-219,-292,cs),
(-230,-339,o),
(-184,-373,o),
(-107,-373,cs)
);
}
);
width = 322;
},
{
associatedMasterId = m002;
layerId = "AEA07DFB-3F0F-465C-8B2C-5A49589849B1";
name = "Groote Garmond Romyn";
shapes = (
{
closed = 1;
nodes = (
(153,-373,o),
(227,-294,o),
(227,-183,cs),
(227,-92,o),
(227,570,o),
(227,611,cs),
(227,649,o),
(265,664,o),
(318,662,cs),
(347,661,l),
(347,700,l),
(38,700,l),
(38,661,l),
(47,661,o),
(54,662,o),
(65,662,cs),
(101,662,o),
(127,654,o),
(127,628,cs),
(127,591,o),
(127,-207,o),
(127,-244,cs),
(127,-296,o),
(95,-332,o),
(51,-332,cs),
(1,-332,o),
(-34,-310,o),
(-34,-278,cs),
(-34,-252,o),
(-20,-256,o),
(-20,-239,cs),
(-20,-227,o),
(-37,-219,o),
(-61,-219,cs),
(-89,-219,o),
(-108,-249,o),
(-108,-292,cs),
(-108,-339,o),
(-44,-373,o),
(46,-373,cs)
);
}
);
width = 336;
},
{
layerId = m003;
shapes = (
{
closed = 1;
nodes = (
(-23,-373,o),
(58,-294,o),
(84,-183,cs),
(105,-92,o),
(258,570,o),
(267,611,cs),
(276,649,o),
(314,674,o),
(358,672,cs),
(383,671,l),
(390,700,l),
(127,700,l),
(120,671,l),
(128,671,o),
(134,672,o),
(143,672,cs),
(174,672,o),
(192,654,o),
(186,628,cs),
(177,591,o),
(-9,-217,o),
(-18,-254,cs),
(-30,-306,o),
(-65,-342,o),
(-103,-342,cs),
(-145,-342,o),
(-170,-320,o),
(-162,-288,cs),
(-156,-262,o),
(-143,-256,o),
(-139,-239,cs),
(-136,-227,o),
(-149,-219,o),
(-169,-219,cs),
(-193,-219,o),
(-216,-249,o),
(-226,-292,cs),
(-237,-339,o),
(-191,-373,o),
(-114,-373,cs)
);
}
);
width = 308;
},
{
associatedMasterId = m003;
layerId = "26F76F9F-F375-4A75-B201-A38276D4A77C";
name = "Groote Garmond Romyn";
shapes = (
{
closed = 1;
nodes = (
(153,-373,o),
(227,-294,o),
(227,-183,cs),
(227,-92,o),
(227,570,o),
(227,611,cs),
(227,649,o),
(265,664,o),
(318,662,cs),
(347,661,l),
(347,700,l),
(38,700,l),
(38,661,l),
(47,661,o),
(54,662,o),
(65,662,cs),
(101,662,o),
(127,654,o),
(127,628,cs),
(127,591,o),
(127,-207,o),
(127,-244,cs),
(127,-296,o),
(95,-332,o),
(51,-332,cs),
(1,-332,o),
(-34,-310,o),
(-34,-278,cs),
(-34,-252,o),
(-20,-256,o),
(-20,-239,cs),
(-20,-227,o),
(-37,-219,o),
(-61,-219,cs),
(-89,-219,o),
(-108,-249,o),
(-108,-292,cs),
(-108,-339,o),
(-44,-373,o),
(46,-373,cs)
);
}
);
width = 336;
},
{
layerId = m01;
shapes = (
{
closed = 1;
nodes = (
(-11,-373,o),
(70,-294,o),
(96,-183,cs),
(117,-92,o),
(270,570,o),
(279,611,cs),
(288,649,o),
(326,657,o),
(370,655,cs),
(395,654,l),
(402,700,l),
(139,700,l),
(132,654,l),
(140,654,o),
(146,655,o),
(155,655,cs),
(186,655,o),
(204,654,o),
(198,628,cs),
(189,591,o),
(3,-217,o),
(-6,-254,cs),
(-18,-306,o),
(-53,-324,o),
(-91,-324,cs),
(-133,-324,o),
(-158,-320,o),
(-150,-288,cs),
(-144,-262,o),
(-131,-256,o),
(-127,-239,cs),
(-124,-227,o),
(-137,-219,o),
(-157,-219,cs),
(-181,-219,o),
(-204,-249,o),
(-214,-292,cs),
(-225,-339,o),
(-179,-373,o),
(-102,-373,cs)
);
}
);
width = 333;
},
{
layerId = "F2DFA844-ADB6-4558-8504-1E1502925A9B";
shapes = (
{
closed = 1;
nodes = (
(-30,-373,o),
(51,-294,o),
(77,-183,cs),
(98,-92,o),
(251,570,o),
(260,611,cs),
(269,649,o),
(307,684,o),
(351,682,cs),
(376,681,l),
(383,700,l),
(120,700,l),
(113,681,l),
(121,681,o),
(127,682,o),
(136,682,cs),
(167,682,o),
(185,654,o),
(179,628,cs),
(170,591,o),
(-16,-217,o),
(-25,-254,cs),
(-37,-306,o),
(-72,-352,o),
(-110,-352,cs),
(-152,-352,o),
(-177,-320,o),
(-169,-288,cs),
(-163,-262,o),
(-150,-256,o),
(-146,-239,cs),
(-143,-227,o),
(-156,-219,o),
(-176,-219,cs),
(-200,-219,o),
(-223,-249,o),
(-233,-292,cs),
(-244,-339,o),
(-198,-373,o),
(-121,-373,cs)
);
}
);
width = 294;
}
);
metricRight = H;
unicode = 74;
},
{
glyphname = K;
lastChange = "2024-11-11 18:59:14 +0000";
layers = (
{
layerId = m002;
shapes = (
{
closed = 1;
nodes = (
(577,0,l),
(584,38,l),
(578,38,ls),
(554,38,o),
(527,45,o),
(501,87,cs),
(310,398,l),
(397,477,o),
(489,568,o),
(509,589,cs),
(540,621,o),
(608,649,o),
(629,649,cs),
(669,649,l),
(677,696,l),
(452,696,l),
(444,650,l),
(468,650,ls),
(475,650,o),
(498,631,o),
(460,589,c),
(224,368,l),
(249,478,o),
(276,575,o),
(280,594,cs),
(291,640,o),
(316,662,o),
(338,662,cs),
(367,662,l),
(373,700,l),
(159,700,l),
(153,662,l),
(176,662,ls),
(196,662,o),
(206,646,o),
(202,630,cs),
(76,83,ls),
(69,51,o),
(48,38,o),
(30,38,cs),
(17,38,l),
(10,0,l),
(224,0,l),
(231,38,l),
(205,38,ls),
(172,38,o),
(155,52,o),
(163,87,cs),
(215,318,l),
(231,333,l),
(406,36,ls),
(418,15,o),
(435,0,o),
(449,0,cs)
);
}
);
width = 656;
},
{
associatedMasterId = m002;
layerId = "1F64C1FF-A67F-4106-8B77-21B6609B8B33";
name = "3. Nov. 24, 11:35";
shapes = (
{
closed = 1;
nodes = (
(739,0,l),
(739,28,l),
(732,28,ls),
(704,28,o),
(669,57,o),
(627,99,cs),
(307,421,l),
(234,340,l),
(528,36,ls),
(548,15,o),
(572,0,o),
(588,0,cs)
);
},
{
closed = 1;
nodes = (
(324,0,l),
(324,28,l),
(293,28,ls),
(255,28,o),
(228,52,o),
(228,87,cs),
(228,111,o),
(226,229,o),
(226,345,cs),
(226,460,o),
(228,574,o),
(228,594,cs),
(228,640,o),
(249,672,o),
(275,672,cs),
(309,672,l),
(309,700,l),
(57,700,l),
(57,672,l),
(85,672,ls),
(108,672,o),
(127,655,o),
(127,630,cs),
(127,83,ls),
(127,51,o),
(109,28,o),
(88,28,cs),
(72,28,l),
(72,0,l)
);
},
{
closed = 1;
nodes = (
(297,391,o),
(471,557,o),
(499,589,cs),
(527,621,o),
(596,659,o),
(621,659,cs),
(668,659,l),
(668,696,l),
(403,696,l),
(403,660,l),
(431,660,ls),
(440,660,o),
(480,631,o),
(447,589,c),
(187,317,l),
(201,292,l)
);
}
);
width = 748;
},
{
associatedMasterId = m002;
layerId = "8C1C2218-978D-4D4A-886F-77EC90C89430";
name = "Groote Garmond Romyn";
shapes = (
{
closed = 1;
nodes = (
(739,0,l),
(739,38,l),
(732,38,ls),
(704,38,o),
(670,58,o),
(627,99,cs),
(318,400,l),
(399,479,o),
(479,569,o),
(499,589,cs),
(531,622,o),
(578,662,o),
(621,662,cs),
(668,662,l),
(668,700,l),
(403,700,l),
(403,662,l),
(431,662,ls),
(477,662,o),
(482,631,o),
(446,589,c),
(225,358,l),
(225,468,o),
(228,575,o),
(228,594,cs),
(228,640,o),
(249,662,o),
(275,662,cs),
(309,662,l),
(309,700,l),
(57,700,l),
(57,662,l),
(85,662,ls),
(108,662,o),
(127,645,o),
(127,630,cs),
(127,83,ls),
(127,51,o),
(109,38,o),
(88,38,cs),
(72,38,l),
(72,0,l),
(324,0,l),
(324,38,l),
(293,38,ls),
(255,38,o),
(228,52,o),
(228,87,cs),
(226,308,l),
(241,323,l),
(523,36,ls),
(544,15,o),
(572,0,o),
(588,0,cs)
);
}
);
width = 748;
},
{
associatedMasterId = m002;
layerId = "833D1891-66C0-4DC5-ACA4-8E4BF17CF2AD";
name = "Groote Garmond Romyn";
shapes = (
{
closed = 1;
nodes = (
(739,0,l),
(739,28,l),
(732,28,ls),
(704,28,o),
(669,57,o),
(627,99,cs),
(307,421,l),
(234,340,l),
(528,36,ls),
(548,15,o),
(572,0,o),
(588,0,cs)
);
},
{
closed = 1;
nodes = (
(324,0,l),
(324,28,l),
(293,28,ls),
(255,28,o),
(228,52,o),
(228,87,cs),
(228,111,o),
(226,229,o),
(226,345,cs),
(226,460,o),
(228,574,o),
(228,594,cs),
(228,640,o),
(249,672,o),
(275,672,cs),
(309,672,l),
(309,700,l),
(57,700,l),
(57,672,l),
(85,672,ls),
(108,672,o),
(127,655,o),
(127,630,cs),
(127,83,ls),
(127,51,o),
(109,28,o),
(88,28,cs),
(72,28,l),
(72,0,l)
);
},
{
closed = 1;
nodes = (
(297,391,o),
(471,557,o),
(499,589,cs),
(527,621,o),
(596,659,o),
(621,659,cs),
(668,659,l),
(668,696,l),
(403,696,l),
(403,660,l),
(431,660,ls),
(440,660,o),
(480,631,o),
(447,589,c),
(187,317,l),
(201,292,l)
);
}
);
width = 748;
},
{
layerId = m003;
shapes = (
{
closed = 1;
nodes = (
(570,0,l),
(577,28,l),
(571,28,ls),
(547,28,o),
(520,45,o),
(494,87,cs),
(303,398,l),
(390,477,o),
(482,568,o),
(502,589,cs),
(533,621,o),
(601,659,o),
(622,659,cs),
(662,659,l),
(670,696,l),
(445,696,l),
(437,660,l),
(461,660,ls),
(468,660,o),
(496,631,o),
(458,589,c),
(217,358,l),
(242,468,o),
(269,575,o),
(273,594,cs),
(284,640,o),
(309,672,o),
(331,672,cs),
(360,672,l),
(366,700,l),
(152,700,l),
(146,672,l),
(169,672,ls),
(189,672,o),
(201,655,o),
(195,630,cs),
(69,83,ls),
(62,51,o),
(41,28,o),
(23,28,cs),
(10,28,l),
(3,0,l),
(217,0,l),
(224,28,l),
(198,28,ls),
(165,28,o),
(148,52,o),
(156,87,cs),
(208,318,l),
(224,333,l),
(399,36,ls),
(411,15,o),
(428,0,o),
(442,0,cs)
);
}
);
width = 642;
},
{
associatedMasterId = m003;
layerId = "30713842-B3AB-4D22-9141-9F5D2967A003";
name = "3. Nov. 24, 11:35";
shapes = (
{
closed = 1;
nodes = (
(739,0,l),
(739,28,l),
(732,28,ls),
(704,28,o),
(669,57,o),
(627,99,cs),
(307,421,l),
(234,340,l),
(528,36,ls),
(548,15,o),
(572,0,o),
(588,0,cs)
);
},
{
closed = 1;
nodes = (
(324,0,l),
(324,28,l),
(293,28,ls),
(255,28,o),
(228,52,o),
(228,87,cs),
(228,111,o),
(226,229,o),
(226,345,cs),
(226,460,o),
(228,574,o),
(228,594,cs),
(228,640,o),
(249,672,o),
(275,672,cs),
(309,672,l),
(309,700,l),
(57,700,l),
(57,672,l),
(85,672,ls),
(108,672,o),
(127,655,o),
(127,630,cs),
(127,83,ls),
(127,51,o),
(109,28,o),
(88,28,cs),
(72,28,l),
(72,0,l)
);
},
{
closed = 1;
nodes = (
(297,391,o),
(471,557,o),
(499,589,cs),
(527,621,o),
(596,659,o),
(621,659,cs),
(668,659,l),
(668,696,l),
(403,696,l),
(403,660,l),
(431,660,ls),
(440,660,o),
(480,631,o),
(447,589,c),
(187,317,l),
(201,292,l)
);
}
);
width = 748;
},
{
associatedMasterId = m003;
layerId = "00A6F74D-5240-4CE8-99E5-816BEECF8EA3";
name = "Groote Garmond Romyn";
shapes = (
{
closed = 1;
nodes = (
(739,0,l),
(739,38,l),
(732,38,ls),
(704,38,o),
(670,58,o),
(627,99,cs),
(318,400,l),
(399,479,o),
(479,569,o),
(499,589,cs),
(531,622,o),
(578,662,o),
(621,662,cs),
(668,662,l),
(668,700,l),
(403,700,l),
(403,662,l),
(431,662,ls),
(477,662,o),
(482,631,o),
(446,589,c),
(225,358,l),
(225,468,o),
(228,575,o),
(228,594,cs),
(228,640,o),
(249,662,o),
(275,662,cs),
(309,662,l),
(309,700,l),
(57,700,l),
(57,662,l),
(85,662,ls),
(108,662,o),
(127,645,o),
(127,630,cs),
(127,83,ls),
(127,51,o),
(109,38,o),
(88,38,cs),
(72,38,l),
(72,0,l),
(324,0,l),
(324,38,l),
(293,38,ls),
(255,38,o),
(228,52,o),
(228,87,cs),
(226,308,l),
(241,323,l),
(523,36,ls),
(544,15,o),
(572,0,o),
(588,0,cs)
);
}
);
width = 748;
},
{
associatedMasterId = m003;
layerId = "A2A4E4AA-909C-4E8F-8D4E-3D4A3A6E95EC";
name = "Groote Garmond Romyn";
shapes = (
{
closed = 1;
nodes = (
(739,0,l),
(739,28,l),
(732,28,ls),
(704,28,o),
(669,57,o),
(627,99,cs),
(307,421,l),
(234,340,l),
(528,36,ls),
(548,15,o),
(572,0,o),
(588,0,cs)
);
},
{
closed = 1;
nodes = (
(324,0,l),
(324,28,l),
(293,28,ls),
(255,28,o),
(228,52,o),
(228,87,cs),
(228,111,o),
(226,229,o),
(226,345,cs),
(226,460,o),
(228,574,o),
(228,594,cs),
(228,640,o),
(249,672,o),
(275,672,cs),
(309,672,l),
(309,700,l),
(57,700,l),
(57,672,l),
(85,672,ls),
(108,672,o),
(127,655,o),
(127,630,cs),
(127,83,ls),
(127,51,o),
(109,28,o),
(88,28,cs),
(72,28,l),
(72,0,l)
);
},
{
closed = 1;
nodes = (
(297,391,o),
(471,557,o),
(499,589,cs),
(527,621,o),
(596,659,o),
(621,659,cs),
(668,659,l),
(668,696,l),
(403,696,l),
(403,660,l),
(431,660,ls),
(440,660,o),
(480,631,o),
(447,589,c),
(187,317,l),
(201,292,l)
);
}
);
width = 748;
},
{
layerId = m01;
shapes = (
{
closed = 1;
nodes = (
(582,0,l),
(589,46,l),
(583,46,ls),
(559,46,o),
(532,45,o),
(506,87,cs),
(315,398,l),
(402,477,o),
(494,568,o),
(514,589,cs),
(545,621,o),
(613,642,o),
(634,642,cs),
(674,642,l),
(682,696,l),
(457,696,l),
(449,643,l),
(473,643,ls),
(480,643,o),
(500,631,o),
(462,589,c),
(229,376,l),
(254,486,o),
(281,575,o),
(285,594,cs),
(296,640,o),
(321,655,o),
(343,655,cs),
(372,655,l),
(378,700,l),
(164,700,l),
(158,655,l),
(181,655,ls),
(201,655,o),
(210,639,o),
(207,630,c),
(81,83,ls),
(74,51,o),
(53,46,o),
(35,46,cs),
(22,46,l),
(15,0,l),
(229,0,l),
(236,46,l),
(210,46,ls),
(177,46,o),
(160,52,o),
(168,87,cs),
(220,318,l),
(236,333,l),
(411,36,ls),
(423,15,o),
(440,0,o),
(454,0,cs)
);
}
);
width = 667;
},
{
layerId = "F2DFA844-ADB6-4558-8504-1E1502925A9B";
shapes = (
{
closed = 1;
nodes = (
(563,0,l),
(570,18,l),
(564,18,ls),
(540,18,o),
(513,45,o),
(487,87,cs),
(296,398,l),
(383,477,o),
(475,568,o),
(495,589,cs),
(526,621,o),
(594,669,o),
(615,669,cs),
(655,669,l),
(663,696,l),
(438,696,l),
(430,670,l),
(454,670,ls),
(461,670,o),
(494,631,o),
(456,589,c),
(210,348,l),
(235,458,o),
(262,575,o),
(266,594,cs),
(277,640,o),
(302,682,o),
(324,682,cs),
(353,682,l),
(359,700,l),
(145,700,l),
(139,682,l),
(162,682,ls),
(182,682,o),
(196,664,o),
(188,630,cs),
(62,83,ls),
(55,51,o),
(34,18,o),
(16,18,cs),
(3,18,l),
(-4,0,l),
(210,0,l),
(217,18,l),
(191,18,ls),
(158,18,o),
(141,52,o),
(149,87,cs),
(201,318,l),
(217,333,l),
(392,36,ls),
(404,15,o),
(421,0,o),
(435,0,cs)
);
}
);
width = 628;
}
);
metricLeft = H;
unicode = 75;
},
{
glyphname = L;
lastChange = "2024-11-11 18:59:14 +0000";
layers = (
{
layerId = m002;
shapes = (
{
closed = 1;
nodes = (
(499,0,l),
(594,162,l),
(559,169,l),
(515,91,o),
(448,45,o),
(397,45,cs),
(338,45,o),
(268,45,o),
(249,45,cs),
(215,45,o),
(195,74,o),
(208,130,cs),
(219,179,o),
(307,558,o),
(318,608,cs),
(327,645,o),
(378,662,o),
(437,662,cs),
(454,662,l),
(460,700,l),
(159,700,l),
(152,662,l),
(174,662,l),
(216,662,o),
(240,636,o),
(228,584,cs),
(216,533,o),
(131,166,o),
(122,125,cs),
(110,72,o),
(82,45,o),
(60,45,cs),
(45,45,o),
(19,45,o),
(7,45,c),
(-1,0,l)
);
}
);
width = 641;
},
{
associatedMasterId = m002;
layerId = "1CB1DBB4-6ACE-4923-AA5D-DA226D71674B";
name = "Groote Garmond Romyn";
shapes = (
{
closed = 1;
nodes = (
(605,0,l),
(673,162,l),
(631,169,l),
(600,91,o),
(547,45,o),
(487,45,cs),
(418,45,o),
(324,45,o),
(301,45,cs),
(261,45,o),
(227,74,o),
(227,130,cs),
(227,179,o),
(227,558,o),
(227,608,cs),
(227,645,o),
(280,662,o),
(349,662,cs),
(369,662,l),
(369,700,l),
(14,700,l),
(14,662,l),
(40,662,l),
(89,662,o),
(127,636,o),
(127,584,cs),
(127,533,o),
(127,166,o),
(127,125,cs),
(127,72,o),
(105,45,o),
(79,45,cs),
(61,45,o),
(30,45,o),
(16,45,c),
(16,0,l)
);
}
);
width = 709;
},
{
layerId = m003;
shapes = (
{
closed = 1;
nodes = (
(492,0,l),
(587,162,l),
(562,169,l),
(518,91,o),
(451,35,o),
(400,35,cs),
(341,35,o),
(261,35,o),
(242,35,cs),
(208,35,o),
(188,74,o),
(201,130,cs),
(212,179,o),
(300,558,o),
(311,608,cs),
(320,645,o),
(371,672,o),
(430,672,cs),
(447,672,l),
(453,700,l),
(152,700,l),
(145,672,l),
(167,672,l),
(209,672,o),
(233,636,o),
(221,584,cs),
(209,533,o),
(124,166,o),
(115,125,cs),
(103,72,o),
(75,35,o),
(53,35,cs),
(38,35,o),
(12,35,o),
(0,35,c),
(-8,0,l)
);
}
);
width = 627;
},
{
associatedMasterId = m003;
layerId = "C071BEBF-29B3-49DA-9314-892BFF9B541C";
name = "Groote Garmond Romyn";
shapes = (
{
closed = 1;
nodes = (
(605,0,l),
(673,162,l),
(631,169,l),
(600,91,o),
(547,45,o),
(487,45,cs),
(418,45,o),
(324,45,o),
(301,45,cs),
(261,45,o),
(227,74,o),
(227,130,cs),
(227,179,o),
(227,558,o),
(227,608,cs),
(227,645,o),
(280,662,o),
(349,662,cs),
(369,662,l),
(369,700,l),
(14,700,l),
(14,662,l),
(40,662,l),
(89,662,o),
(127,636,o),
(127,584,cs),
(127,533,o),
(127,166,o),
(127,125,cs),
(127,72,o),
(105,45,o),
(79,45,cs),
(61,45,o),
(30,45,o),
(16,45,c),
(16,0,l)
);
}
);
width = 709;
},
{
layerId = m01;
shapes = (
{
closed = 1;
nodes = (
(504,0,l),
(599,162,l),
(557,169,l),
(513,91,o),
(446,53,o),
(395,53,cs),
(336,53,o),
(273,53,o),
(254,53,cs),
(220,53,o),
(200,74,o),
(213,130,cs),
(224,179,o),
(312,558,o),
(323,608,cs),
(332,645,o),
(383,655,o),
(442,655,cs),
(459,655,l),
(465,700,l),
(164,700,l),
(157,655,l),
(179,655,ls),
(221,655,o),
(245,636,o),
(233,584,cs),
(221,533,o),
(136,166,o),
(127,125,cs),
(115,72,o),
(87,53,o),
(65,53,cs),
(50,53,o),
(24,53,o),
(12,53,c),
(4,0,l)
);
}
);
width = 652;
},
{
layerId = "F2DFA844-ADB6-4558-8504-1E1502925A9B";
shapes = (
{
closed = 1;
nodes = (
(485,0,l),
(580,162,l),
(565,169,l),
(521,91,o),
(454,25,o),
(403,25,cs),
(344,25,o),
(254,25,o),
(235,25,cs),
(201,25,o),
(181,74,o),
(194,130,cs),
(205,179,o),
(293,558,o),
(304,608,cs),
(313,645,o),
(364,682,o),
(423,682,cs),
(440,682,l),
(446,700,l),
(145,700,l),
(138,682,l),
(160,682,ls),
(202,682,o),
(226,636,o),
(214,584,cs),
(202,533,o),
(117,166,o),
(108,125,cs),
(96,72,o),
(68,25,o),
(46,25,cs),
(31,25,o),
(5,25,o),
(-7,25,c),
(-15,0,l)
);
}
);
width = 613;
}
);
metricLeft = H;
metricRight = n;
unicode = 76;
},
{
glyphname = M;
lastChange = "2024-11-11 18:59:14 +0000";
layers = (
{
layerId = m002;
shapes = (
{
closed = 1;
nodes = (
(359,0,l),
(753,640,l),
(747,700,l),
(409,150,l),
(346,700,l),
(159,700,l),
(149,649,l),
(167,649,o),
(192,649,o),
(212,649,cs),
(239,649,o),
(264,609,o),
(273,538,cs),
(335,0,l)
);
},
{
closed = 1;
nodes = (
(217,0,l),
(223,37,l),
(214,37,o),
(207,37,o),
(198,37,cs),
(154,37,o),
(129,54,o),
(138,92,cs),
(268,646,l),
(226,646,l),
(187,474,o),
(118,187,o),
(108,141,cs),
(92,74,o),
(66,37,o),
(30,37,cs),
(-7,37,l),
(-14,0,l)
);
},
{
closed = 1;
nodes = (
(761,0,l),
(767,38,l),
(758,38,o),
(751,38,o),
(740,38,cs),
(702,38,o),
(682,53,o),
(690,88,cs),
(699,126,o),
(803,580,o),
(811,611,cs),
(817,640,o),
(837,650,o),
(859,650,cs),
(894,650,l),
(903,700,l),
(746,700,l),
(700,498,o),
(611,114,o),
(606,91,cs),
(597,54,o),
(584,38,o),
(573,38,cs),
(506,38,l),
(498,0,l)
);
}
);
width = 858;
},
{
associatedMasterId = m002;
layerId = "8AA99534-BDA9-4BA7-8425-E7242871C104";
name = "Groote Garmond Romyn";
shapes = (
{
closed = 1;
nodes = (
(442,0,l),
(731,640,l),
(714,700,l),
(466,150,l),
(242,700,l),
(22,700,l),
(22,662,l),
(43,662,o),
(72,662,o),
(96,662,cs),
(128,662,o),
(171,609,o),
(200,538,cs),
(419,0,l)
);
},
{
closed = 1;
nodes = (
(280,0,l),
(280,37,l),
(270,37,o),
(262,37,o),
(251,37,cs),
(199,37,o),
(163,54,o),
(163,92,cs),
(163,656,l),
(127,656,l),
(127,484,o),
(127,187,o),
(127,141,cs),
(127,74,o),
(107,37,o),
(65,37,cs),
(21,37,l),
(21,0,l)
);
},
{
closed = 1;
nodes = (
(920,0,l),
(920,38,l),
(909,38,o),
(901,38,o),
(888,38,cs),
(843,38,o),
(813,53,o),
(813,88,cs),
(813,126,o),
(813,580,o),
(813,611,cs),
(813,640,o),
(831,662,o),
(857,662,cs),
(898,662,l),
(898,700,l),
(713,700,l),
(713,498,o),
(713,114,o),
(713,91,cs),
(713,54,o),
(705,38,o),
(692,38,cs),
(613,38,l),
(611,0,l)
);
}
);
width = 940;
},
{
layerId = m003;
shapes = (
{
closed = 1;
nodes = (
(347,0,l),
(741,640,l),
(740,700,l),
(402,150,l),
(339,700,l),
(152,700,l),
(142,659,l),
(160,659,o),
(185,659,o),
(205,659,cs),
(232,659,o),
(257,609,o),
(266,538,cs),
(328,0,l)
);
},
{
closed = 1;
nodes = (
(210,0,l),
(216,27,l),
(207,27,o),
(200,27,o),
(191,27,cs),
(147,27,o),
(123,54,o),
(131,92,cs),
(261,656,l),
(229,656,l),
(190,484,o),
(121,187,o),
(111,141,cs),
(95,74,o),
(59,27,o),
(23,27,cs),
(-14,27,l),
(-21,0,l)
);
},
{
closed = 1;
nodes = (
(754,0,l),
(760,28,l),
(751,28,o),
(744,28,o),
(733,28,cs),
(695,28,o),
(675,53,o),
(683,88,cs),
(692,126,o),
(796,580,o),
(804,611,cs),
(810,640,o),
(830,660,o),
(852,660,cs),
(887,660,l),
(896,700,l),
(739,700,l),
(693,498,o),
(604,114,o),
(599,91,cs),
(590,54,o),
(577,28,o),
(566,28,cs),
(499,28,l),
(491,0,l)
);
}
);
width = 844;
},
{
associatedMasterId = m003;
layerId = "B10F72A2-F543-4F3C-913D-1BB69EE1B8FA";
name = "Groote Garmond Romyn";
shapes = (
{
closed = 1;
nodes = (
(442,0,l),
(731,640,l),
(714,700,l),
(466,150,l),
(242,700,l),
(22,700,l),
(22,662,l),
(43,662,o),
(72,662,o),
(96,662,cs),
(128,662,o),
(171,609,o),
(200,538,cs),
(419,0,l)
);
},
{
closed = 1;
nodes = (
(280,0,l),
(280,37,l),
(270,37,o),
(262,37,o),
(251,37,cs),
(199,37,o),
(163,54,o),
(163,92,cs),
(163,656,l),
(127,656,l),
(127,484,o),
(127,187,o),
(127,141,cs),
(127,74,o),
(107,37,o),
(65,37,cs),
(21,37,l),
(21,0,l)
);
},
{
closed = 1;
nodes = (
(920,0,l),
(920,38,l),
(909,38,o),
(901,38,o),
(888,38,cs),
(843,38,o),
(813,53,o),
(813,88,cs),
(813,126,o),
(813,580,o),
(813,611,cs),
(813,640,o),
(831,662,o),
(857,662,cs),
(898,662,l),
(898,700,l),
(713,700,l),
(713,498,o),
(713,114,o),
(713,91,cs),
(713,54,o),
(705,38,o),
(692,38,cs),
(613,38,l),
(611,0,l)
);
}
);
width = 940;
},
{
layerId = m01;
shapes = (
{
closed = 1;
nodes = (
(368,0,l),
(762,640,l),
(752,700,l),
(414,150,l),
(351,700,l),
(164,700,l),
(154,642,l),
(172,642,o),
(197,642,o),
(217,642,cs),
(244,642,o),
(269,609,o),
(278,538,cs),
(340,0,l)
);
},
{
closed = 1;
nodes = (
(222,0,l),
(228,45,l),
(219,45,o),
(212,45,o),
(203,45,cs),
(159,45,o),
(134,54,o),
(143,92,cs),
(273,639,l),
(224,639,l),
(185,467,o),
(116,187,o),
(106,141,cs),
(90,74,o),
(71,45,o),
(35,45,cs),
(-2,45,l),
(-9,0,l)
);
},
{
closed = 1;
nodes = (
(766,0,l),
(772,46,l),
(763,46,o),
(756,46,o),
(745,46,cs),
(707,46,o),
(687,53,o),
(695,88,cs),
(704,126,o),
(808,580,o),
(816,611,cs),
(822,640,o),
(842,643,o),
(864,643,cs),
(899,643,l),
(908,700,l),
(751,700,l),
(705,498,o),
(616,114,o),
(611,91,cs),
(602,54,o),
(589,46,o),
(578,46,cs),
(511,46,l),
(503,0,l)
);
}
);
width = 869;
},
{
layerId = "F2DFA844-ADB6-4558-8504-1E1502925A9B";
shapes = (
{
closed = 1;
nodes = (
(335,0,l),
(729,640,l),
(733,700,l),
(395,150,l),
(332,700,l),
(145,700,l),
(135,669,l),
(153,669,o),
(178,669,o),
(198,669,cs),
(225,669,o),
(250,609,o),
(259,538,cs),
(321,0,l)
);
},
{
closed = 1;
nodes = (
(203,0,l),
(209,17,l),
(200,17,o),
(193,17,o),
(184,17,cs),
(140,17,o),
(117,54,o),
(124,92,cs),
(254,666,l),
(232,666,l),
(193,494,o),
(124,187,o),
(114,141,cs),
(98,74,o),
(52,17,o),
(16,17,cs),
(-21,17,l),
(-28,0,l)
);
},
{
closed = 1;
nodes = (
(747,0,l),
(753,18,l),
(744,18,o),
(737,18,o),
(726,18,cs),
(688,18,o),
(668,53,o),
(676,88,cs),
(685,126,o),
(789,580,o),
(797,611,cs),
(803,640,o),
(823,670,o),
(845,670,cs),
(880,670,l),
(889,700,l),
(732,700,l),
(686,498,o),
(597,114,o),
(592,91,cs),
(583,54,o),
(570,18,o),
(559,18,cs),
(492,18,l),
(484,0,l)
);
}
);
width = 830;
}
);
metricLeft = H;
metricRight = H;
unicode = 77;
},
{
glyphname = N;
lastChange = "2024-11-11 18:59:14 +0000";
layers = (
{
layerId = m002;
shapes = (
{
closed = 1;
nodes = (
(612,-6,l),
(657,189,o),
(737,535,o),
(748,579,cs),
(760,633,o),
(800,672,o),
(844,672,cs),
(877,672,l),
(883,700,l),
(613,700,l),
(607,672,l),
(616,672,o),
(651,672,o),
(663,672,cs),
(699,672,o),
(718,640,o),
(707,594,cs),
(605,164,l),
(317,700,l),
(158,697,l),
(151,669,l),
(162,669,o),
(172,669,o),
(184,669,cs),
(206,669,o),
(229,654,o),
(241,634,cs),
(584,-6,l)
);
},
{
closed = 1;
nodes = (
(270,0,l),
(276,27,l),
(225,27,o),
(221,27,o),
(212,27,cs),
(168,27,o),
(144,54,o),
(152,92,cs),
(282,656,l),
(240,656,l),
(201,484,o),
(132,187,o),
(122,141,cs),
(106,74,o),
(80,27,o),
(44,27,cs),
(18,27,l),
(12,0,l)
);
}
);
width = 769;
},
{
associatedMasterId = m002;
layerId = "A2145A88-5BC4-424B-850B-9F9F40C82DE9";
name = "Groote Garmond Romyn";
shapes = (
{
closed = 1;
nodes = (
(731,-6,l),
(731,189,o),
(731,535,o),
(731,579,cs),
(731,633,o),
(767,662,o),
(819,662,cs),
(858,662,l),
(858,700,l),
(540,700,l),
(540,662,l),
(551,662,o),
(592,662,o),
(606,662,cs),
(649,662,o),
(679,640,o),
(679,594,cs),
(679,164,l),
(195,700,l),
(5,697,l),
(5,659,l),
(18,659,o),
(29,659,o),
(43,659,cs),
(69,659,o),
(101,654,o),
(120,634,cs),
(698,-6,l)
);
},
{
closed = 1;
nodes = (
(326,0,l),
(326,37,l),
(266,37,o),
(262,37,o),
(251,37,cs),
(199,37,o),
(163,64,o),
(163,92,cs),
(163,656,l),
(127,656,l),
(127,484,o),
(127,187,o),
(127,141,cs),
(127,74,o),
(107,37,o),
(65,37,cs),
(35,37,l),
(35,0,l)
);
}
);
width = 840;
},
{
layerId = m003;
shapes = (
{
closed = 1;
nodes = (
(605,-6,l),
(650,189,o),
(730,535,o),
(741,579,cs),
(753,633,o),
(793,672,o),
(837,672,cs),
(870,672,l),
(876,700,l),
(606,700,l),
(600,672,l),
(609,672,o),
(644,672,o),
(656,672,cs),
(692,672,o),
(711,640,o),
(700,594,cs),
(598,164,l),
(310,700,l),
(151,697,l),
(144,669,l),
(155,669,o),
(165,669,o),
(177,669,cs),
(199,669,o),
(222,654,o),
(234,634,cs),
(577,-6,l)
);
},
{
closed = 1;
nodes = (
(263,0,l),
(269,27,l),
(218,27,o),
(214,27,o),
(205,27,cs),
(161,27,o),
(137,54,o),
(145,92,cs),
(275,656,l),
(243,656,l),
(204,484,o),
(135,187,o),
(125,141,cs),
(109,74,o),
(73,27,o),
(37,27,cs),
(11,27,l),
(5,0,l)
);
}
);
width = 755;
},
{
associatedMasterId = m003;
layerId = "31385D10-2325-4DCE-A494-6CF8A131B4BB";
name = "Groote Garmond Romyn";
shapes = (
{
closed = 1;
nodes = (
(731,-6,l),
(731,189,o),
(731,535,o),
(731,579,cs),
(731,633,o),
(767,662,o),
(819,662,cs),
(858,662,l),
(858,700,l),
(540,700,l),
(540,662,l),
(551,662,o),
(592,662,o),
(606,662,cs),
(649,662,o),
(679,640,o),
(679,594,cs),
(679,164,l),
(195,700,l),
(5,697,l),
(5,659,l),
(18,659,o),
(29,659,o),
(43,659,cs),
(69,659,o),
(101,654,o),
(120,634,cs),
(698,-6,l)
);
},
{
closed = 1;
nodes = (
(326,0,l),
(326,37,l),
(266,37,o),
(262,37,o),
(251,37,cs),
(199,37,o),
(163,64,o),
(163,92,cs),
(163,656,l),
(127,656,l),
(127,484,o),
(127,187,o),
(127,141,cs),
(127,74,o),
(107,37,o),
(65,37,cs),
(35,37,l),
(35,0,l)
);
}
);
width = 840;
},
{
layerId = m01;
shapes = (
{
closed = 1;
nodes = (
(617,-6,l),
(662,189,o),
(742,535,o),
(753,579,cs),
(765,633,o),
(805,672,o),
(849,672,cs),
(882,672,l),
(888,700,l),
(618,700,l),
(612,672,l),
(621,672,o),
(656,672,o),
(668,672,cs),
(704,672,o),
(723,640,o),
(712,594,cs),
(610,164,l),
(322,700,l),
(163,697,l),
(156,669,l),
(167,669,o),
(177,669,o),
(189,669,cs),
(211,669,o),
(234,654,o),
(246,634,cs),
(589,-6,l)
);
},
{
closed = 1;
nodes = (
(275,0,l),
(281,27,l),
(230,27,o),
(226,27,o),
(217,27,cs),
(173,27,o),
(149,54,o),
(157,92,cs),
(287,656,l),
(238,656,l),
(199,484,o),
(130,187,o),
(120,141,cs),
(104,74,o),
(85,27,o),
(49,27,cs),
(23,27,l),
(17,0,l)
);
}
);
width = 780;
},
{
layerId = "F2DFA844-ADB6-4558-8504-1E1502925A9B";
shapes = (
{
closed = 1;
nodes = (
(598,-6,l),
(643,189,o),
(723,535,o),
(734,579,cs),
(746,633,o),
(786,672,o),
(830,672,cs),
(863,672,l),
(869,700,l),
(599,700,l),
(593,672,l),
(602,672,o),
(637,672,o),
(649,672,cs),
(685,672,o),
(704,640,o),
(693,594,cs),
(591,164,l),
(303,700,l),
(144,697,l),
(137,669,l),
(148,669,o),
(158,669,o),
(170,669,cs),
(192,669,o),
(215,654,o),
(227,634,cs),
(570,-6,l)
);
},
{
closed = 1;
nodes = (
(256,0,l),
(262,27,l),
(211,27,o),
(207,27,o),
(198,27,cs),
(154,27,o),
(130,54,o),
(138,92,cs),
(268,656,l),
(246,656,l),
(207,484,o),
(138,187,o),
(128,141,cs),
(112,74,o),
(66,27,o),
(30,27,cs),
(4,27,l),
(-2,0,l)
);
}
);
width = 741;
}
);
metricLeft = H;
metricRight = H;
unicode = 78;
},
{
glyphname = O;
lastChange = "2024-11-11 18:59:14 +0000";
layers = (
{
anchors = (
{
name = bottom;
pos = (322,0);
},
{
name = center;
pos = (429,350);
},
{
name = ogonek;
pos = (634,10);
},
{
name = top;
pos = (465,635);
},
{
name = topleft;
pos = (169,700);
},
{
name = topright;
pos = (902,700);
}
);
layerId = m002;
shapes = (
{
closed = 1;
nodes = (
(516,-11,o),
(691,145,o),
(742,365,cs),
(789,572,o),
(686,719,o),
(492,719,cs),
(301,719,o),
(131,572,o),
(84,365,cs),
(33,145,o),
(130,-11,o),
(320,-11,cs)
);
},
{
closed = 1;
nodes = (
(191,29,o),
(155,179,o),
(207,405,cs),
(245,571,o),
(367,679,o),
(488,679,cs),
(620,679,o),
(669,539,o),
(620,326,cs),
(578,146,o),
(444,29,o),
(323,29,c)
);
}
);
width = 775;
},
{
associatedMasterId = m002;
layerId = "5C8BAD41-14BE-4CE0-9599-C83F7A52D1BA";
name = "Groote Garmond Romyn";
shapes = (
{
closed = 1;
nodes = (
(675,-11,o),
(838,145,o),
(838,365,cs),
(838,572,o),
(676,719,o),
(448,719,cs),
(223,719,o),
(64,572,o),
(64,365,cs),
(64,145,o),
(221,-11,o),
(444,-11,cs)
);
},
{
closed = 1;
nodes = (
(308,29,o),
(198,179,o),
(198,405,cs),
(198,571,o),
(298,679,o),
(440,679,cs),
(595,679,o),
(705,539,o),
(705,326,cs),
(705,146,o),
(605,29,o),
(463,29,c)
);
}
);
width = 902;
},
{
anchors = (
{
name = bottom;
pos = (315,0);
},
{
name = center;
pos = (422,350);
},
{
name = ogonek;
pos = (629,10);
},
{
name = top;
pos = (479,635);
},
{
name = topleft;
pos = (159,700);
},
{
name = topright;
pos = (898,700);
}
);
layerId = m003;
shapes = (
{
closed = 1;
nodes = (
(509,-11,o),
(684,145,o),
(735,365,cs),
(782,572,o),
(679,719,o),
(485,719,cs),
(294,719,o),
(124,572,o),
(77,365,cs),
(26,145,o),
(123,-11,o),
(313,-11,cs)
);
},
{
closed = 1;
nodes = (
(184,19,o),
(148,179,o),
(200,405,cs),
(238,571,o),
(360,689,o),
(481,689,cs),
(613,689,o),
(662,539,o),
(613,326,cs),
(571,146,o),
(437,19,o),
(316,19,c)
);
}
);
width = 761;
},
{
associatedMasterId = m003;
layerId = "1EEE1FB6-CC32-4165-B465-92C2FEBEA496";
name = "Groote Garmond Romyn";
shapes = (
{
closed = 1;
nodes = (
(675,-11,o),
(838,145,o),
(838,365,cs),
(838,572,o),
(676,719,o),
(448,719,cs),
(223,719,o),
(64,572,o),
(64,365,cs),
(64,145,o),
(221,-11,o),
(444,-11,cs)
);
},
{
closed = 1;
nodes = (
(308,29,o),
(198,179,o),
(198,405,cs),
(198,571,o),
(298,679,o),
(440,679,cs),
(595,679,o),
(705,539,o),
(705,326,cs),
(705,146,o),
(605,29,o),
(463,29,c)
);
}
);
width = 902;
},
{
anchors = (
{
name = bottom;
pos = (327,0);
},
{
name = center;
pos = (434,350);
},
{
name = ogonek;
pos = (644,10);
},
{
name = top;
pos = (455,635);
},
{
name = topleft;
pos = (168,700);
},
{
name = topright;
pos = (914,700);
}
);
layerId = m01;
shapes = (
{
closed = 1;
nodes = (
(521,-11,o),
(696,145,o),
(747,365,cs),
(794,572,o),
(691,719,o),
(497,719,cs),
(306,719,o),
(136,572,o),
(89,365,cs),
(38,145,o),
(135,-11,o),
(325,-11,cs)
);
},
{
closed = 1;
nodes = (
(196,37,o),
(160,179,o),
(212,405,cs),
(250,571,o),
(372,672,o),
(493,672,cs),
(625,672,o),
(674,539,o),
(625,326,cs),
(583,146,o),
(449,37,o),
(328,37,cs)
);
}
);
width = 786;
},
{
anchors = (
{
name = bottom;
pos = (308,0);
},
{
name = center;
pos = (415,350);
},
{
name = ogonek;
pos = (609,10);
},
{
name = top;
pos = (493,635);
},
{
name = topleft;
pos = (168,700);
},
{
name = topright;
pos = (875,700);
}
);
layerId = "F2DFA844-ADB6-4558-8504-1E1502925A9B";
shapes = (
{
closed = 1;
nodes = (
(502,-11,o),
(677,145,o),
(728,365,cs),
(775,572,o),
(672,719,o),
(478,719,cs),
(287,719,o),
(117,572,o),
(70,365,cs),
(19,145,o),
(116,-11,o),
(306,-11,cs)
);
},
{
closed = 1;
nodes = (
(177,9,o),
(141,179,o),
(193,405,cs),
(231,571,o),
(353,699,o),
(474,699,cs),
(606,699,o),
(655,539,o),
(606,326,cs),
(564,146,o),
(430,9,o),
(309,9,cs)
);
}
);
width = 747;
}
);
metricLeft = o;
metricRight = o;
unicode = 79;
},
{
glyphname = OE;
lastChange = "2024-11-11 18:59:14 +0000";
layers = (
{
layerId = m002;
shapes = (
{
closed = 1;
nodes = (
(459,-11,o),
(616,136,o),
(665,345,cs),
(715,564,o),
(628,719,o),
(455,719,cs),
(285,719,o),
(129,564,o),
(78,345,cs),
(30,136,o),
(115,-11,o),
(284,-11,cs)
);
},
{
closed = 1;
nodes = (
(192,29,o),
(148,171,o),
(197,385,cs),
(238,563,o),
(339,679,o),
(442,679,cs),
(554,679,o),
(598,530,o),
(546,306,cs),
(507,138,o),
(407,29,o),
(305,29,c)
);
},
{
closed = 1;
nodes = (
(841,200,l),
(855,277,o),
(880,385,o),
(901,462,c),
(868,462,l),
(853,399,o),
(820,354,o),
(789,354,cs),
(611,354,l),
(607,304,l),
(661,304,o),
(765,304,o),
(786,304,cs),
(813,304,o),
(822,261,o),
(808,200,c)
);
},
{
closed = 1;
nodes = (
(364,-1,l),
(860,-1,l),
(965,163,l),
(937,178,l),
(883,105,o),
(817,54,o),
(777,54,cs),
(767,54,o),
(478,54,o),
(436,54,c)
);
},
{
closed = 1;
nodes = (
(539,645,l),
(571,645,o),
(879,645,o),
(886,645,cs),
(938,645,o),
(965,598,o),
(949,531,c),
(983,531,l),
(1022,700,l),
(965,700,o),
(570,700,o),
(526,700,c)
);
}
);
width = 997;
},
{
associatedMasterId = m002;
layerId = "022F4CD3-50D0-4976-9B88-D6FA4A96713D";
name = "Groote Garmond Romyn";
shapes = (
{
closed = 1;
nodes = (
(609,-11,o),
(754,136,o),
(754,345,cs),
(754,564,o),
(610,719,o),
(406,719,cs),
(206,719,o),
(64,564,o),
(64,345,cs),
(64,136,o),
(204,-11,o),
(403,-11,cs)
);
},
{
closed = 1;
nodes = (
(287,29,o),
(193,171,o),
(193,385,cs),
(193,563,o),
(278,679,o),
(399,679,cs),
(531,679,o),
(625,530,o),
(625,306,cs),
(625,138,o),
(540,29,o),
(420,29,c)
);
},
{
closed = 1;
nodes = (
(999,200,l),
(995,277,o),
(995,385,o),
(999,462,c),
(961,462,l),
(961,399,o),
(935,354,o),
(898,354,cs),
(689,354,l),
(698,304,l),
(761,304,o),
(883,304,o),
(908,304,cs),
(940,304,o),
(962,261,o),
(962,200,c)
);
},
{
closed = 1;
nodes = (
(494,-1,l),
(1078,-1,l),
(1157,163,l),
(1122,178,l),
(1078,105,o),
(1024,59,o),
(977,59,cs),
(965,59,o),
(614,59,o),
(564,59,c)
);
},
{
closed = 1;
nodes = (
(525,640,l),
(562,640,o),
(937,640,o),
(945,640,cs),
(1006,640,o),
(1040,598,o),
(1040,531,c),
(1078,531,l),
(1078,700,l),
(1011,700,o),
(546,700,o),
(495,700,c)
);
}
);
width = 1202;
},
{
layerId = m003;
shapes = (
{
closed = 1;
nodes = (
(452,-11,o),
(609,136,o),
(658,345,cs),
(708,564,o),
(621,719,o),
(448,719,cs),
(278,719,o),
(122,564,o),
(71,345,cs),
(23,136,o),
(108,-11,o),
(277,-11,cs)
);
},
{
closed = 1;
nodes = (
(185,19,o),
(141,171,o),
(190,385,cs),
(231,563,o),
(332,689,o),
(435,689,cs),
(547,689,o),
(591,530,o),
(539,306,cs),
(500,138,o),
(400,19,o),
(298,19,c)
);
},
{
closed = 1;
nodes = (
(824,200,l),
(838,277,o),
(863,385,o),
(884,462,c),
(861,462,l),
(846,399,o),
(813,354,o),
(782,354,cs),
(604,354,l),
(600,304,l),
(654,304,o),
(758,304,o),
(779,304,cs),
(806,304,o),
(815,261,o),
(801,200,c)
);
},
{
closed = 1;
nodes = (
(357,-1,l),
(853,-1,l),
(958,163,l),
(940,178,l),
(886,105,o),
(820,54,o),
(780,54,cs),
(770,54,o),
(471,54,o),
(429,54,c)
);
},
{
closed = 1;
nodes = (
(532,645,l),
(564,645,o),
(882,645,o),
(889,645,cs),
(941,645,o),
(968,598,o),
(952,531,c),
(976,531,l),
(1015,700,l),
(958,700,o),
(563,700,o),
(519,700,c)
);
}
);
width = 983;
},
{
associatedMasterId = m003;
layerId = "7DD8C20A-4E06-4442-A422-9F18044EC776";
name = "Groote Garmond Romyn";
shapes = (
{
closed = 1;
nodes = (
(609,-11,o),
(754,136,o),
(754,345,cs),
(754,564,o),
(610,719,o),
(406,719,cs),
(206,719,o),
(64,564,o),
(64,345,cs),
(64,136,o),
(204,-11,o),
(403,-11,cs)
);
},
{
closed = 1;
nodes = (
(287,29,o),
(193,171,o),
(193,385,cs),
(193,563,o),
(278,679,o),
(399,679,cs),
(531,679,o),
(625,530,o),
(625,306,cs),
(625,138,o),
(540,29,o),
(420,29,c)
);
},
{
closed = 1;
nodes = (
(999,200,l),
(995,277,o),
(995,385,o),
(999,462,c),
(961,462,l),
(961,399,o),
(935,354,o),
(898,354,cs),
(689,354,l),
(698,304,l),
(761,304,o),
(883,304,o),
(908,304,cs),
(940,304,o),
(962,261,o),
(962,200,c)
);
},
{
closed = 1;
nodes = (
(494,-1,l),
(1078,-1,l),
(1157,163,l),
(1122,178,l),
(1078,105,o),
(1024,59,o),
(977,59,cs),
(965,59,o),
(614,59,o),
(564,59,c)
);
},
{
closed = 1;
nodes = (
(525,640,l),
(562,640,o),
(937,640,o),
(945,640,cs),
(1006,640,o),
(1040,598,o),
(1040,531,c),
(1078,531,l),
(1078,700,l),
(1011,700,o),
(546,700,o),
(495,700,c)
);
}
);
width = 1202;
},
{
layerId = m01;
shapes = (
{
closed = 1;
nodes = (
(464,-11,o),
(621,136,o),
(670,345,cs),
(720,564,o),
(633,719,o),
(460,719,cs),
(290,719,o),
(134,564,o),
(83,345,cs),
(35,136,o),
(120,-11,o),
(289,-11,cs)
);
},
{
closed = 1;
nodes = (
(197,37,o),
(153,171,o),
(202,385,cs),
(243,563,o),
(344,672,o),
(447,672,cs),
(559,672,o),
(603,530,o),
(551,306,cs),
(512,138,o),
(412,37,o),
(310,37,cs)
);
},
{
closed = 1;
nodes = (
(854,200,l),
(868,277,o),
(893,385,o),
(914,462,c),
(873,462,l),
(858,399,o),
(825,354,o),
(794,354,cs),
(616,354,l),
(612,304,l),
(666,304,o),
(770,304,o),
(791,304,cs),
(818,304,o),
(827,261,o),
(813,200,c)
);
},
{
closed = 1;
nodes = (
(369,-1,l),
(865,-1,l),
(970,163,l),
(935,178,l),
(881,105,o),
(815,54,o),
(775,54,cs),
(765,54,o),
(483,54,o),
(441,54,c)
);
},
{
closed = 1;
nodes = (
(544,645,l),
(576,645,o),
(877,645,o),
(884,645,cs),
(936,645,o),
(963,598,o),
(947,531,c),
(988,531,l),
(1027,700,l),
(970,700,o),
(575,700,o),
(531,700,c)
);
}
);
width = 1008;
},
{
layerId = "F2DFA844-ADB6-4558-8504-1E1502925A9B";
shapes = (
{
closed = 1;
nodes = (
(445,-11,o),
(602,136,o),
(651,345,cs),
(701,564,o),
(614,719,o),
(441,719,cs),
(271,719,o),
(115,564,o),
(64,345,cs),
(16,136,o),
(101,-11,o),
(270,-11,cs)
);
},
{
closed = 1;
nodes = (
(178,9,o),
(134,171,o),
(183,385,cs),
(224,563,o),
(325,699,o),
(428,699,cs),
(540,699,o),
(584,530,o),
(532,306,cs),
(493,138,o),
(393,9,o),
(291,9,cs)
);
},
{
closed = 1;
nodes = (
(807,200,l),
(821,277,o),
(846,385,o),
(867,462,c),
(854,462,l),
(839,399,o),
(806,354,o),
(775,354,cs),
(597,354,l),
(593,304,l),
(647,304,o),
(751,304,o),
(772,304,cs),
(799,304,o),
(808,261,o),
(794,200,c)
);
},
{
closed = 1;
nodes = (
(350,-1,l),
(846,-1,l),
(951,163,l),
(943,178,l),
(889,105,o),
(823,54,o),
(783,54,cs),
(773,54,o),
(464,54,o),
(422,54,c)
);
},
{
closed = 1;
nodes = (
(525,645,l),
(557,645,o),
(885,645,o),
(892,645,cs),
(944,645,o),
(971,598,o),
(955,531,c),
(969,531,l),
(1008,700,l),
(951,700,o),
(556,700,o),
(512,700,c)
);
}
);
width = 969;
}
);
metricLeft = O;
metricRight = E;
unicode = 338;
},
{
glyphname = P;
lastChange = "2024-11-11 18:59:14 +0000";
layers = (
{
layerId = m002;
shapes = (
{
closed = 1;
nodes = (
(263,0,l),
(269,38,l),
(264,38,o),
(244,38,o),
(235,38,cs),
(201,38,o),
(180,57,o),
(190,98,cs),
(201,148,o),
(311,626,o),
(315,642,cs),
(319,657,o),
(342,657,o),
(366,657,cs),
(454,657,o),
(501,595,o),
(476,486,cs),
(451,382,o),
(382,309,o),
(307,309,c),
(300,279,l),
(435,279,o),
(550,369,o),
(579,497,cs),
(607,616,o),
(537,702,o),
(411,702,cs),
(365,702,o),
(293,699,o),
(269,699,cs),
(255,699,o),
(210,702,o),
(159,702,c),
(152,662,l),
(199,662,o),
(233,653,o),
(226,625,cs),
(216,579,o),
(101,81,o),
(96,63,cs),
(92,43,o),
(69,38,o),
(49,38,cs),
(18,38,l),
(11,0,l)
);
}
);
width = 591;
},
{
associatedMasterId = m002;
layerId = "1E992AEC-3BFB-4B5A-9919-F479B2D11F0A";
name = "Groote Garmond Romyn";
shapes = (
{
closed = 1;
nodes = (
(340,0,l),
(340,38,l),
(333,38,o),
(310,38,o),
(300,38,cs),
(260,38,o),
(227,57,o),
(227,98,cs),
(227,148,o),
(227,616,o),
(227,632,cs),
(227,647,o),
(252,657,o),
(280,657,cs),
(384,657,o),
(458,595,o),
(458,486,cs),
(458,382,o),
(396,319,o),
(308,319,c),
(308,279,l),
(466,279,o),
(577,369,o),
(577,497,cs),
(577,616,o),
(472,702,o),
(323,702,cs),
(269,702,o),
(185,699,o),
(157,699,cs),
(141,699,o),
(87,702,o),
(27,702,c),
(27,662,l),
(82,662,o),
(127,653,o),
(127,625,cs),
(127,579,o),
(127,81,o),
(127,63,cs),
(127,43,o),
(104,38,o),
(81,38,cs),
(44,38,l),
(44,0,l)
);
}
);
width = 604;
},
{
layerId = m003;
shapes = (
{
closed = 1;
nodes = (
(256,0,l),
(262,28,l),
(257,28,o),
(237,28,o),
(228,28,cs),
(194,28,o),
(173,57,o),
(183,98,cs),
(194,148,o),
(304,626,o),
(308,642,cs),
(312,657,o),
(335,667,o),
(359,667,cs),
(447,667,o),
(494,595,o),
(469,486,cs),
(444,382,o),
(375,309,o),
(300,309,c),
(293,279,l),
(428,279,o),
(543,369,o),
(572,497,cs),
(600,616,o),
(530,702,o),
(404,702,cs),
(358,702,o),
(286,699,o),
(262,699,cs),
(248,699,o),
(203,702,o),
(152,702,c),
(145,672,l),
(192,672,o),
(226,653,o),
(219,625,cs),
(209,579,o),
(94,81,o),
(89,63,cs),
(85,43,o),
(62,28,o),
(42,28,cs),
(11,28,l),
(4,0,l)
);
}
);
width = 577;
},
{
associatedMasterId = m003;
layerId = "05470292-9480-414D-9D83-0793041B2DD9";
name = "Groote Garmond Romyn";
shapes = (
{
closed = 1;
nodes = (
(340,0,l),
(340,38,l),
(333,38,o),
(310,38,o),
(300,38,cs),
(260,38,o),
(227,57,o),
(227,98,cs),
(227,148,o),
(227,616,o),
(227,632,cs),
(227,647,o),
(252,657,o),
(280,657,cs),
(384,657,o),
(458,595,o),
(458,486,cs),
(458,382,o),
(396,319,o),
(308,319,c),
(308,279,l),
(466,279,o),
(577,369,o),
(577,497,cs),
(577,616,o),
(472,702,o),
(323,702,cs),
(269,702,o),
(185,699,o),
(157,699,cs),
(141,699,o),
(87,702,o),
(27,702,c),
(27,662,l),
(82,662,o),
(127,653,o),
(127,625,cs),
(127,579,o),
(127,81,o),
(127,63,cs),
(127,43,o),
(104,38,o),
(81,38,cs),
(44,38,l),
(44,0,l)
);
}
);
width = 604;
},
{
layerId = m01;
shapes = (
{
closed = 1;
nodes = (
(268,0,l),
(274,46,l),
(269,46,o),
(249,46,o),
(240,46,cs),
(206,46,o),
(185,57,o),
(195,98,cs),
(206,148,o),
(316,626,o),
(320,642,cs),
(324,657,o),
(347,650,o),
(371,650,cs),
(459,650,o),
(506,595,o),
(481,486,cs),
(456,382,o),
(387,309,o),
(312,309,c),
(305,279,l),
(440,279,o),
(555,369,o),
(584,497,cs),
(612,616,o),
(542,702,o),
(416,702,cs),
(370,702,o),
(298,699,o),
(274,699,cs),
(260,699,o),
(215,702,o),
(164,702,c),
(157,655,l),
(204,655,o),
(238,653,o),
(231,625,cs),
(221,579,o),
(106,81,o),
(101,63,cs),
(97,43,o),
(74,46,o),
(54,46,cs),
(23,46,l),
(16,0,l)
);
}
);
width = 602;
},
{
layerId = "F2DFA844-ADB6-4558-8504-1E1502925A9B";
shapes = (
{
closed = 1;
nodes = (
(249,0,l),
(255,18,l),
(250,18,o),
(230,18,o),
(221,18,cs),
(187,18,o),
(166,57,o),
(176,98,cs),
(187,148,o),
(297,626,o),
(301,642,cs),
(305,657,o),
(328,677,o),
(352,677,cs),
(440,677,o),
(487,595,o),
(462,486,cs),
(437,382,o),
(368,309,o),
(293,309,c),
(286,279,l),
(421,279,o),
(536,369,o),
(565,497,cs),
(593,616,o),
(523,702,o),
(397,702,cs),
(351,702,o),
(279,699,o),
(255,699,cs),
(241,699,o),
(196,702,o),
(145,702,c),
(138,682,l),
(185,682,o),
(219,653,o),
(212,625,cs),
(202,579,o),
(87,81,o),
(82,63,cs),
(78,43,o),
(55,18,o),
(35,18,cs),
(4,18,l),
(-3,0,l)
);
}
);
width = 563;
}
);
metricLeft = H;
metricRight = O;
unicode = 80;
},
{
glyphname = Q;
lastChange = "2024-11-11 18:59:14 +0000";
layers = (
{
layerId = m002;
shapes = (
{
closed = 1;
nodes = (
(514,-18,o),
(688,138,o),
(739,358,cs),
(787,565,o),
(683,712,o),
(489,712,cs),
(298,712,o),
(129,565,o),
(81,358,cs),
(30,138,o),
(128,-18,o),
(317,-18,cs)
);
},
{
closed = 1;
nodes = (
(824,-175,o),
(862,-171,o),
(889,-165,c),
(894,-130,l),
(676,-143,o),
(490,-84,o),
(444,27,c),
(394,8,o),
(349,-5,o),
(336,-5,cs),
(310,-5,o),
(267,13,o),
(232,38,c),
(231,8,l),
(348,-99,o),
(583,-175,o),
(796,-175,c)
);
},
{
closed = 1;
nodes = (
(199,22,o),
(152,172,o),
(204,398,cs),
(243,564,o),
(365,672,o),
(485,672,cs),
(617,672,o),
(666,532,o),
(617,319,cs),
(575,139,o),
(451,22,o),
(330,22,c)
);
}
);
width = 755;
},
{
associatedMasterId = m002;
layerId = "B9511206-4199-41D4-B127-33FCAEFF1C55";
name = "Groote Garmond Romyn";
shapes = (
{
closed = 1;
nodes = (
(675,-18,o),
(838,138,o),
(838,358,cs),
(838,565,o),
(676,712,o),
(448,712,cs),
(223,712,o),
(64,565,o),
(64,358,cs),
(64,138,o),
(221,-18,o),
(444,-18,cs)
);
},
{
closed = 1;
nodes = (
(463,22,c),
(308,22,o),
(198,172,o),
(198,398,cs),
(198,564,o),
(298,672,o),
(440,672,cs),
(595,672,o),
(705,532,o),
(705,319,cs),
(705,139,o),
(605,22,o)
);
},
{
closed = 1;
nodes = (
(1083,-175,o),
(1127,-171,o),
(1156,-165,c),
(1156,-130,l),
(903,-143,o),
(665,-84,o),
(581,27,c),
(527,8,o),
(478,-5,o),
(463,-5,cs),
(432,-5,o),
(376,13,o),
(329,38,c),
(335,8,l),
(502,-99,o),
(799,-175,o),
(1050,-175,c)
);
}
);
width = 902;
},
{
layerId = m003;
shapes = (
{
closed = 1;
nodes = (
(507,-18,o),
(681,138,o),
(732,358,cs),
(780,565,o),
(676,712,o),
(482,712,cs),
(291,712,o),
(122,565,o),
(74,358,cs),
(23,138,o),
(121,-18,o),
(310,-18,cs)
);
},
{
closed = 1;
nodes = (
(817,-175,o),
(855,-171,o),
(882,-165,c),
(887,-140,l),
(669,-153,o),
(483,-84,o),
(437,27,c),
(387,8,o),
(342,-5,o),
(329,-5,cs),
(303,-5,o),
(260,13,o),
(225,38,c),
(224,8,l),
(341,-99,o),
(576,-175,o),
(789,-175,c)
);
},
{
closed = 1;
nodes = (
(192,12,o),
(145,172,o),
(197,398,cs),
(236,564,o),
(358,682,o),
(478,682,cs),
(610,682,o),
(659,532,o),
(610,319,cs),
(568,139,o),
(444,12,o),
(323,12,c)
);
}
);
width = 741;
},
{
associatedMasterId = m003;
layerId = "ACB1CD23-C5B2-4C45-81BA-4D5960A8FE17";
name = "Groote Garmond Romyn";
shapes = (
{
closed = 1;
nodes = (
(675,-18,o),
(838,138,o),
(838,358,cs),
(838,565,o),
(676,712,o),
(448,712,cs),
(223,712,o),
(64,565,o),
(64,358,cs),
(64,138,o),
(221,-18,o),
(444,-18,cs)
);
},
{
closed = 1;
nodes = (
(463,22,c),
(308,22,o),
(198,172,o),
(198,398,cs),
(198,564,o),
(298,672,o),
(440,672,cs),
(595,672,o),
(705,532,o),
(705,319,cs),
(705,139,o),
(605,22,o)
);
},
{
closed = 1;
nodes = (
(1083,-175,o),
(1127,-171,o),
(1156,-165,c),
(1156,-130,l),
(903,-143,o),
(665,-84,o),
(581,27,c),
(527,8,o),
(478,-5,o),
(463,-5,cs),
(432,-5,o),
(376,13,o),
(329,38,c),
(335,8,l),
(502,-99,o),
(799,-175,o),
(1050,-175,c)
);
}
);
width = 902;
},
{
layerId = m01;
shapes = (
{
closed = 1;
nodes = (
(519,-18,o),
(693,138,o),
(744,358,cs),
(792,565,o),
(688,712,o),
(494,712,cs),
(303,712,o),
(134,565,o),
(86,358,cs),
(35,138,o),
(133,-18,o),
(322,-18,cs)
);
},
{
closed = 1;
nodes = (
(829,-175,o),
(867,-171,o),
(894,-165,c),
(899,-122,l),
(681,-135,o),
(495,-84,o),
(449,27,c),
(399,8,o),
(354,-5,o),
(341,-5,cs),
(315,-5,o),
(272,13,o),
(237,38,c),
(236,8,l),
(353,-99,o),
(588,-175,o),
(801,-175,cs)
);
},
{
closed = 1;
nodes = (
(204,30,o),
(157,172,o),
(209,398,cs),
(248,564,o),
(370,665,o),
(490,665,cs),
(622,665,o),
(671,532,o),
(622,319,cs),
(580,139,o),
(456,30,o),
(335,30,cs)
);
}
);
width = 766;
},
{
layerId = "F2DFA844-ADB6-4558-8504-1E1502925A9B";
shapes = (
{
closed = 1;
nodes = (
(500,-18,o),
(674,138,o),
(725,358,cs),
(773,565,o),
(669,712,o),
(475,712,cs),
(284,712,o),
(115,565,o),
(67,358,cs),
(16,138,o),
(114,-18,o),
(303,-18,cs)
);
},
{
closed = 1;
nodes = (
(810,-175,o),
(848,-171,o),
(875,-165,c),
(880,-150,l),
(662,-163,o),
(476,-84,o),
(430,27,c),
(380,8,o),
(335,-5,o),
(322,-5,cs),
(296,-5,o),
(253,13,o),
(218,38,c),
(217,8,l),
(334,-99,o),
(569,-175,o),
(782,-175,cs)
);
},
{
closed = 1;
nodes = (
(185,2,o),
(138,172,o),
(190,398,cs),
(229,564,o),
(351,692,o),
(471,692,cs),
(603,692,o),
(652,532,o),
(603,319,cs),
(561,139,o),
(437,2,o),
(316,2,cs)
);
}
);
width = 727;
}
);
metricLeft = O;
metricWidth = O;
unicode = 81;
},
{
glyphname = R;
lastChange = "2024-11-11 18:59:14 +0000";
layers = (
{
layerId = m002;
shapes = (
{
closed = 1;
nodes = (
(540,-3,o),
(596,-2,o),
(622,0,c),
(629,39,l),
(628,38,o),
(613,38,o),
(595,38,cs),
(572,38,o),
(524,41,o),
(513,66,cs),
(439,226,o),
(377,340,o),
(367,357,c),
(371,328,l),
(492,352,o),
(587,439,o),
(609,537,cs),
(630,627,o),
(563,700,o),
(444,700,cs),
(409,700,o),
(313,698,o),
(288,698,cs),
(244,698,o),
(202,700,o),
(159,700,c),
(152,662,l),
(158,662,o),
(158,662,o),
(170,662,cs),
(210,662,o),
(237,639,o),
(227,593,cs),
(214,539,o),
(114,103,o),
(107,73,cs),
(101,47,o),
(73,38,o),
(50,38,cs),
(22,38,l),
(16,0,l),
(254,0,l),
(260,38,l),
(249,38,o),
(232,38,o),
(207,38,cs),
(195,38,o),
(186,46,o),
(192,72,cs),
(202,116,o),
(311,588,o),
(319,625,cs),
(325,648,o),
(349,655,o),
(370,655,cs),
(391,655,o),
(404,655,o),
(424,655,cs),
(488,655,o),
(519,601,o),
(499,517,cs),
(478,426,o),
(400,372,o),
(310,372,cs),
(213,372,l),
(205,327,l),
(294,327,l),
(334,219,o),
(384,114,o),
(411,60,cs),
(428,23,o),
(456,-3,o),
(485,-3,cs)
);
}
);
width = 649;
},
{
associatedMasterId = m002;
layerId = "B8A82B29-DBB5-4469-9D79-07BAE11AEB45";
name = "Groote Garmond Romyn";
shapes = (
{
closed = 1;
nodes = (
(657,-3,o),
(723,-2,o),
(753,0,c),
(753,39,l),
(752,38,o),
(735,38,o),
(713,38,cs),
(687,38,o),
(631,56,o),
(611,81,cs),
(481,241,o),
(377,345,o),
(360,362,c),
(380,328,l),
(504,352,o),
(592,439,o),
(592,537,cs),
(592,627,o),
(493,700,o),
(353,700,cs),
(312,700,o),
(200,698,o),
(170,698,cs),
(119,698,o),
(69,700,o),
(18,700,c),
(18,662,l),
(25,662,o),
(24,662,o),
(39,662,cs),
(86,662,o),
(127,639,o),
(127,593,cs),
(127,539,o),
(127,103,o),
(127,73,cs),
(127,47,o),
(100,38,o),
(72,38,cs),
(40,38,l),
(40,0,l),
(320,0,l),
(320,38,l),
(306,38,o),
(287,38,o),
(257,38,cs),
(243,38,o),
(227,56,o),
(227,72,cs),
(227,116,o),
(227,588,o),
(227,625,cs),
(227,638,o),
(251,655,o),
(276,655,cs),
(300,655,o),
(316,655,o),
(339,655,cs),
(415,655,o),
(468,601,o),
(468,517,cs),
(468,426,o),
(393,372,o),
(287,372,cs),
(173,372,l),
(173,327,l),
(278,327,l),
(355,219,o),
(442,114,o),
(488,60,cs),
(519,23,o),
(559,-3,o),
(593,-3,cs)
);
}
);
width = 762;
},
{
layerId = m003;
shapes = (
{
closed = 1;
nodes = (
(533,-3,o),
(589,-2,o),
(615,0,c),
(622,29,l),
(621,28,o),
(606,28,o),
(588,28,cs),
(565,28,o),
(517,41,o),
(506,66,cs),
(432,226,o),
(370,340,o),
(360,357,c),
(364,328,l),
(485,352,o),
(580,439,o),
(602,537,cs),
(623,627,o),
(556,700,o),
(437,700,cs),
(402,700,o),
(306,698,o),
(281,698,cs),
(237,698,o),
(195,700,o),
(152,700,c),
(145,672,l),
(151,672,o),
(151,672,o),
(163,672,cs),
(203,672,o),
(230,639,o),
(220,593,cs),
(207,539,o),
(107,103,o),
(100,73,cs),
(94,47,o),
(66,28,o),
(43,28,cs),
(15,28,l),
(9,0,l),
(247,0,l),
(253,28,l),
(242,28,o),
(225,28,o),
(200,28,cs),
(188,28,o),
(179,46,o),
(185,72,cs),
(195,116,o),
(304,588,o),
(312,625,cs),
(318,648,o),
(342,665,o),
(363,665,cs),
(384,665,o),
(397,665,o),
(417,665,cs),
(481,665,o),
(512,601,o),
(492,517,cs),
(471,426,o),
(393,362,o),
(303,362,cs),
(206,362,l),
(198,327,l),
(287,327,l),
(327,219,o),
(377,114,o),
(404,60,cs),
(421,23,o),
(449,-3,o),
(478,-3,cs)
);
}
);
width = 635;
},
{
associatedMasterId = m003;
layerId = "112862B9-426A-4217-842E-8D0AAC7DB232";
name = "Groote Garmond Romyn";
shapes = (
{
closed = 1;
nodes = (
(657,-3,o),
(723,-2,o),
(753,0,c),
(753,39,l),
(752,38,o),
(735,38,o),
(713,38,cs),
(687,38,o),
(631,56,o),
(611,81,cs),
(481,241,o),
(377,345,o),
(360,362,c),
(380,328,l),
(504,352,o),
(592,439,o),
(592,537,cs),
(592,627,o),
(493,700,o),
(353,700,cs),
(312,700,o),
(200,698,o),
(170,698,cs),
(119,698,o),
(69,700,o),
(18,700,c),
(18,662,l),
(25,662,o),
(24,662,o),
(39,662,cs),
(86,662,o),
(127,639,o),
(127,593,cs),
(127,539,o),
(127,103,o),
(127,73,cs),
(127,47,o),
(100,38,o),
(72,38,cs),
(40,38,l),
(40,0,l),
(320,0,l),
(320,38,l),
(306,38,o),
(287,38,o),
(257,38,cs),
(243,38,o),
(227,56,o),
(227,72,cs),
(227,116,o),
(227,588,o),
(227,625,cs),
(227,638,o),
(251,655,o),
(276,655,cs),
(300,655,o),
(316,655,o),
(339,655,cs),
(415,655,o),
(468,601,o),
(468,517,cs),
(468,426,o),
(393,372,o),
(287,372,cs),
(173,372,l),
(173,327,l),
(278,327,l),
(355,219,o),
(442,114,o),
(488,60,cs),
(519,23,o),
(559,-3,o),
(593,-3,cs)
);
}
);
width = 762;
},
{
layerId = m01;
shapes = (
{
closed = 1;
nodes = (
(545,-3,o),
(601,-2,o),
(627,0,c),
(634,47,l),
(633,46,o),
(618,46,o),
(600,46,cs),
(577,46,o),
(529,41,o),
(518,66,cs),
(444,226,o),
(382,340,o),
(372,357,c),
(376,328,l),
(497,352,o),
(592,439,o),
(614,537,cs),
(635,627,o),
(568,700,o),
(449,700,cs),
(414,700,o),
(318,698,o),
(293,698,cs),
(249,698,o),
(207,700,o),
(164,700,c),
(157,655,l),
(163,655,o),
(163,655,o),
(175,655,cs),
(215,655,o),
(242,639,o),
(232,593,cs),
(219,539,o),
(119,103,o),
(112,73,cs),
(106,47,o),
(78,46,o),
(55,46,cs),
(27,46,l),
(21,0,l),
(259,0,l),
(265,46,l),
(254,46,o),
(237,46,o),
(212,46,cs),
(200,46,o),
(191,46,o),
(197,72,cs),
(207,116,o),
(316,588,o),
(324,625,cs),
(330,648,o),
(354,648,o),
(375,648,cs),
(396,648,o),
(409,648,o),
(429,648,cs),
(493,648,o),
(524,601,o),
(504,517,cs),
(483,426,o),
(405,380,o),
(315,380,cs),
(218,380,l),
(210,327,l),
(299,327,l),
(339,219,o),
(389,114,o),
(416,60,cs),
(433,23,o),
(461,-3,o),
(490,-3,cs)
);
}
);
width = 660;
},
{
layerId = "F2DFA844-ADB6-4558-8504-1E1502925A9B";
shapes = (
{
closed = 1;
nodes = (
(526,-3,o),
(582,-2,o),
(608,0,c),
(615,19,l),
(614,18,o),
(599,18,o),
(581,18,cs),
(558,18,o),
(510,41,o),
(499,66,cs),
(425,226,o),
(363,340,o),
(353,357,c),
(357,328,l),
(478,352,o),
(573,439,o),
(595,537,cs),
(616,627,o),
(549,700,o),
(430,700,cs),
(395,700,o),
(299,698,o),
(274,698,cs),
(230,698,o),
(188,700,o),
(145,700,c),
(138,682,l),
(144,682,o),
(144,682,o),
(156,682,cs),
(196,682,o),
(223,639,o),
(213,593,cs),
(200,539,o),
(100,103,o),
(93,73,cs),
(87,47,o),
(59,18,o),
(36,18,cs),
(8,18,l),
(2,0,l),
(240,0,l),
(246,18,l),
(235,18,o),
(218,18,o),
(193,18,cs),
(181,18,o),
(172,46,o),
(178,72,cs),
(188,116,o),
(297,588,o),
(305,625,cs),
(311,648,o),
(335,675,o),
(356,675,cs),
(377,675,o),
(390,675,o),
(410,675,cs),
(474,675,o),
(505,601,o),
(485,517,cs),
(464,426,o),
(386,352,o),
(296,352,cs),
(199,352,l),
(191,327,l),
(280,327,l),
(320,219,o),
(370,114,o),
(397,60,cs),
(414,23,o),
(442,-3,o),
(471,-3,cs)
);
}
);
width = 621;
}
);
metricLeft = H;
unicode = 82;
},
{
glyphname = S;
lastChange = "2024-11-11 18:59:14 +0000";
layers = (
{
layerId = m002;
shapes = (
{
closed = 1;
nodes = (
(319,-16,o),
(427,71,o),
(456,194,cs),
(502,395,o),
(217,384,o),
(259,563,cs),
(275,633,o),
(340,672,o),
(396,672,cs),
(462,672,o),
(483,618,o),
(477,527,c),
(500,527,l),
(541,704,l),
(510,704,l),
(498,673,l),
(480,696,o),
(438,712,o),
(395,712,cs),
(284,712,o),
(187,634,o),
(161,524,cs),
(116,329,o),
(399,334,o),
(356,148,cs),
(338,70,o),
(263,24,o),
(193,24,cs),
(107,24,o),
(82,95,o),
(107,209,c),
(69,209,l),
(44,100,l),
(63,32,o),
(125,-16,o),
(193,-16,cs)
);
}
);
width = 521;
},
{
associatedMasterId = m002;
layerId = "40C7D379-C9C3-4E8F-B375-79D2F40F5C21";
name = "Groote Garmond Romyn";
shapes = (
{
closed = 1;
nodes = (
(410,-16,o),
(514,71,o),
(514,194,cs),
(514,395,o),
(182,384,o),
(182,563,cs),
(182,633,o),
(234,672,o),
(300,672,cs),
(377,672,o),
(433,618,o),
(450,527,c),
(476,527,l),
(476,704,l),
(451,704,l),
(434,673,l),
(406,696,o),
(352,712,o),
(302,712,cs),
(171,712,o),
(78,634,o),
(78,524,cs),
(78,329,o),
(409,334,o),
(409,148,cs),
(409,70,o),
(348,24,o),
(266,24,cs),
(164,24,o),
(100,95,o),
(98,209,c),
(55,209,l),
(55,100,l),
(96,32,o),
(182,-16,o),
(262,-16,cs)
);
}
);
width = 578;
},
{
layerId = m003;
shapes = (
{
closed = 1;
nodes = (
(312,-16,o),
(420,71,o),
(449,194,cs),
(495,395,o),
(210,384,o),
(252,563,cs),
(268,633,o),
(333,682,o),
(389,682,cs),
(455,682,o),
(486,618,o),
(480,527,c),
(493,527,l),
(534,704,l),
(513,704,l),
(491,673,l),
(473,696,o),
(431,712,o),
(388,712,cs),
(277,712,o),
(180,634,o),
(154,524,cs),
(109,329,o),
(392,334,o),
(349,148,cs),
(331,70,o),
(256,14,o),
(186,14,cs),
(100,14,o),
(65,95,o),
(90,209,c),
(62,209,l),
(37,100,l),
(56,32,o),
(118,-16,o),
(186,-16,cs)
);
}
);
width = 507;
},
{
associatedMasterId = m003;
layerId = "DF851C7D-90A0-4F94-AE59-87873875CD2D";
name = "Groote Garmond Romyn";
shapes = (
{
closed = 1;
nodes = (
(410,-16,o),
(514,71,o),
(514,194,cs),
(514,395,o),
(182,384,o),
(182,563,cs),
(182,633,o),
(234,672,o),
(300,672,cs),
(377,672,o),
(433,618,o),
(450,527,c),
(476,527,l),
(476,704,l),
(451,704,l),
(434,673,l),
(406,696,o),
(352,712,o),
(302,712,cs),
(171,712,o),
(78,634,o),
(78,524,cs),
(78,329,o),
(409,334,o),
(409,148,cs),
(409,70,o),
(348,24,o),
(266,24,cs),
(164,24,o),
(100,95,o),
(98,209,c),
(55,209,l),
(55,100,l),
(96,32,o),
(182,-16,o),
(262,-16,cs)
);
}
);
width = 578;
},
{
layerId = m01;
shapes = (
{
closed = 1;
nodes = (
(324,-16,o),
(432,71,o),
(461,194,cs),
(507,395,o),
(222,384,o),
(264,563,cs),
(280,633,o),
(345,665,o),
(401,665,cs),
(467,665,o),
(481,618,o),
(475,527,c),
(505,527,l),
(546,704,l),
(508,704,l),
(503,673,l),
(485,696,o),
(443,712,o),
(400,712,cs),
(289,712,o),
(192,634,o),
(166,524,cs),
(121,329,o),
(404,334,o),
(361,148,cs),
(343,70,o),
(268,32,o),
(198,32,cs),
(112,32,o),
(95,95,o),
(120,209,c),
(74,209,l),
(49,100,l),
(68,32,o),
(130,-16,o),
(198,-16,cs)
);
}
);
width = 532;
},
{
layerId = "F2DFA844-ADB6-4558-8504-1E1502925A9B";
shapes = (
{
closed = 1;
nodes = (
(305,-16,o),
(413,71,o),
(442,194,cs),
(488,395,o),
(203,384,o),
(245,563,cs),
(261,633,o),
(326,692,o),
(382,692,cs),
(448,692,o),
(489,618,o),
(483,527,c),
(486,527,l),
(527,704,l),
(516,704,l),
(484,673,l),
(466,696,o),
(424,712,o),
(381,712,cs),
(270,712,o),
(173,634,o),
(147,524,cs),
(102,329,o),
(385,334,o),
(342,148,cs),
(324,70,o),
(249,4,o),
(179,4,cs),
(93,4,o),
(48,95,o),
(73,209,c),
(55,209,l),
(30,100,l),
(49,32,o),
(111,-16,o),
(179,-16,cs)
);
}
);
width = 493;
}
);
metricLeft = O;
metricRight = O;
unicode = 83;
},
{
glyphname = T;
lastChange = "2024-11-11 18:59:41 +0000";
layers = (
{
layerId = m002;
shapes = (
{
closed = 1;
nodes = (
(386,0,l),
(392,38,l),
(383,38,o),
(376,38,o),
(364,38,cs),
(352,38,o),
(302,42,o),
(308,66,cs),
(454,695,l),
(369,695,l),
(323,497,o),
(232,104,o),
(230,95,cs),
(224,68,o),
(191,34,o),
(159,34,cs),
(136,34,l),
(130,0,l)
);
},
{
closed = 1;
nodes = (
(662,552,l),
(686,713,l),
(645,700,l),
(163,700,l),
(136,711,l),
(86,562,l),
(109,556,l),
(181,660,l),
(608,660,l),
(635,546,l)
);
}
);
width = 601;
},
{
associatedMasterId = m002;
layerId = "41E47ACF-CA0E-4717-84A3-4FFB967B3FE4";
name = "Groote Garmond Romyn";
shapes = (
{
closed = 1;
nodes = (
(514,0,l),
(514,38,l),
(503,38,o),
(495,38,o),
(481,38,cs),
(467,38,o),
(405,42,o),
(405,66,cs),
(405,695,l),
(305,695,l),
(305,497,o),
(305,104,o),
(305,95,cs),
(305,68,o),
(278,34,o),
(241,34,cs),
(213,34,l),
(213,0,l)
);
},
{
closed = 1;
nodes = (
(689,552,l),
(673,713,l),
(629,700,l),
(62,700,l),
(27,711,l),
(9,562,l),
(35,556,l),
(82,655,l),
(608,655,l),
(660,546,l)
);
}
);
width = 698;
},
{
layerId = m003;
shapes = (
{
closed = 1;
nodes = (
(379,0,l),
(385,28,l),
(376,28,o),
(369,28,o),
(357,28,cs),
(345,28,o),
(294,32,o),
(301,66,cs),
(447,695,l),
(362,695,l),
(316,497,o),
(225,104,o),
(223,95,cs),
(217,68,o),
(184,24,o),
(152,24,cs),
(129,24,l),
(123,0,l)
);
},
{
closed = 1;
nodes = (
(655,552,l),
(679,713,l),
(638,700,l),
(156,700,l),
(129,711,l),
(79,562,l),
(92,556,l),
(164,660,l),
(611,660,l),
(638,546,l)
);
}
);
width = 587;
},
{
associatedMasterId = m003;
layerId = "79EFE187-6D43-44CE-9D11-59DE2A1E3B27";
name = "Groote Garmond Romyn";
shapes = (
{
closed = 1;
nodes = (
(514,0,l),
(514,38,l),
(503,38,o),
(495,38,o),
(481,38,cs),
(467,38,o),
(405,42,o),
(405,66,cs),
(405,695,l),
(305,695,l),
(305,497,o),
(305,104,o),
(305,95,cs),
(305,68,o),
(278,34,o),
(241,34,cs),
(213,34,l),
(213,0,l)
);
},
{
closed = 1;
nodes = (
(689,552,l),
(673,713,l),
(629,700,l),
(62,700,l),
(27,711,l),
(9,562,l),
(35,556,l),
(82,655,l),
(608,655,l),
(660,546,l)
);
}
);
width = 698;
},
{
layerId = m01;
shapes = (
{
closed = 1;
nodes = (
(391,0,l),
(397,46,l),
(388,46,o),
(381,46,o),
(369,46,cs),
(357,46,o),
(308,50,o),
(313,66,c),
(459,695,l),
(374,695,l),
(328,497,o),
(237,104,o),
(235,95,cs),
(229,68,o),
(196,42,o),
(164,42,cs),
(141,42,l),
(135,0,l)
);
},
{
closed = 1;
nodes = (
(667,552,l),
(691,713,l),
(650,700,l),
(168,700,l),
(141,711,l),
(91,562,l),
(122,556,l),
(194,660,l),
(606,660,l),
(633,546,l)
);
}
);
width = 612;
},
{
layerId = "F2DFA844-ADB6-4558-8504-1E1502925A9B";
shapes = (
{
closed = 1;
nodes = (
(372,0,l),
(378,18,l),
(369,18,o),
(362,18,o),
(350,18,cs),
(338,18,o),
(286,22,o),
(294,66,c),
(440,695,l),
(355,695,l),
(309,497,o),
(218,104,o),
(216,95,cs),
(210,68,o),
(177,14,o),
(145,14,cs),
(122,14,l),
(116,0,l)
);
},
{
closed = 1;
nodes = (
(648,552,l),
(672,713,l),
(631,700,l),
(149,700,l),
(122,711,l),
(72,562,l),
(75,556,l),
(147,660,l),
(614,660,l),
(641,546,l)
);
}
);
width = 573;
}
);
unicode = 84;
},
{
glyphname = U;
lastChange = "2024-11-11 18:59:14 +0000";
layers = (
{
anchors = (
{
name = bottom;
pos = (298,0);
},
{
name = ogonek;
pos = (591,10);
},
{
name = top;
pos = (468,635);
},
{
name = topright;
pos = (855,700);
}
);
layerId = m002;
shapes = (
{
closed = 1;
nodes = (
(487,-11,o),
(622,95,o),
(657,246,cs),
(713,484,o),
(748,635,o),
(742,611,cs),
(749,640,o),
(773,661,o),
(801,661,cs),
(812,661,l),
(819,699,l),
(581,699,l),
(574,661,l),
(606,661,o),
(658,661,o),
(669,661,cs),
(687,661,o),
(695,637,o),
(687,603,cs),
(650,448,o),
(615,298,o),
(604,241,cs),
(576,124,o),
(464,41,o),
(333,41,cs),
(224,41,o),
(161,104,o),
(182,193,cs),
(230,406,o),
(272,585,o),
(282,626,cs),
(287,646,o),
(314,661,o),
(347,661,cs),
(361,661,l),
(368,699,l),
(164,699,l),
(157,661,l),
(163,661,o),
(168,661,o),
(176,661,cs),
(193,661,o),
(196,623,o),
(184,570,cs),
(207,668,o),
(171,512,o),
(97,192,cs),
(69,73,o),
(166,-11,o),
(332,-11,cs)
);
}
);
width = 728;
},
{
associatedMasterId = m002;
layerId = "D5D6DE5E-A23A-4A25-9E8C-49BE8007E013";
name = "Groote Garmond Romyn";
shapes = (
{
closed = 1;
nodes = (
(602,-11,o),
(742,100,o),
(742,256,cs),
(742,457,o),
(742,578,o),
(742,611,cs),
(742,642,o),
(762,661,o),
(795,661,cs),
(809,661,l),
(809,699,l),
(529,699,l),
(529,661,l),
(566,661,o),
(627,661,o),
(640,661,cs),
(670,661,o),
(682,634,o),
(682,603,cs),
(682,578,o),
(682,266,o),
(682,251,cs),
(682,128,o),
(573,41,o),
(419,41,cs),
(289,41,o),
(197,108,o),
(197,203,cs),
(197,269,o),
(197,606,o),
(197,626,cs),
(197,656,o),
(232,661,o),
(262,661,cs),
(278,661,l),
(278,699,l),
(38,699,l),
(38,661,l),
(45,661,o),
(51,661,o),
(60,661,cs),
(78,661,o),
(97,631,o),
(97,570,cs),
(97,514,o),
(97,254,o),
(97,202,cs),
(97,77,o),
(225,-11,o),
(405,-11,cs)
);
}
);
width = 826;
},
{
anchors = (
{
name = bottom;
pos = (291,0);
},
{
name = ogonek;
pos = (587,10);
},
{
name = top;
pos = (442,635);
},
{
name = topright;
pos = (851,700);
}
);
layerId = m003;
shapes = (
{
closed = 1;
nodes = (
(491,-11,o),
(615,95,o),
(650,246,cs),
(697,447,o),
(727,578,o),
(735,611,cs),
(742,642,o),
(765,671,o),
(794,671,cs),
(805,671,l),
(812,699,l),
(574,699,l),
(567,671,l),
(599,671,o),
(651,671,o),
(662,671,cs),
(687,671,o),
(697,634,o),
(690,603,cs),
(684,578,o),
(610,256,o),
(607,241,cs),
(578,118,o),
(462,31,o),
(326,31,cs),
(222,31,o),
(153,98,o),
(175,193,cs),
(190,259,o),
(270,606,o),
(275,626,cs),
(282,656,o),
(315,671,o),
(340,671,cs),
(354,671,l),
(361,699,l),
(157,699,l),
(150,671,l),
(156,671,o),
(161,671,o),
(169,671,cs),
(184,671,o),
(191,631,o),
(177,570,cs),
(164,514,o),
(102,244,o),
(90,192,cs),
(62,73,o),
(168,-11,o),
(325,-11,cs)
);
}
);
width = 714;
},
{
associatedMasterId = m003;
layerId = "0D632471-F035-43A1-881F-2FF9F93BB3C1";
name = "Groote Garmond Romyn";
shapes = (
{
closed = 1;
nodes = (
(602,-11,o),
(742,100,o),
(742,256,cs),
(742,457,o),
(742,578,o),
(742,611,cs),
(742,642,o),
(762,661,o),
(795,661,cs),
(809,661,l),
(809,699,l),
(529,699,l),
(529,661,l),
(566,661,o),
(627,661,o),
(640,661,cs),
(670,661,o),
(682,634,o),
(682,603,cs),
(682,578,o),
(682,266,o),
(682,251,cs),
(682,128,o),
(573,41,o),
(419,41,cs),
(289,41,o),
(197,108,o),
(197,203,cs),
(197,269,o),
(197,606,o),
(197,626,cs),
(197,656,o),
(232,661,o),
(262,661,cs),
(278,661,l),
(278,699,l),
(38,699,l),
(38,661,l),
(45,661,o),
(51,661,o),
(60,661,cs),
(78,661,o),
(97,631,o),
(97,570,cs),
(97,514,o),
(97,254,o),
(97,202,cs),
(97,77,o),
(225,-11,o),
(405,-11,cs)
);
}
);
width = 826;
},
{
anchors = (
{
name = bottom;
pos = (304,0);
},
{
name = ogonek;
pos = (602,10);
},
{
name = top;
pos = (518,700);
},
{
name = topright;
pos = (867,700);
}
);
layerId = m01;
shapes = (
{
closed = 1;
nodes = (
(484,-11,o),
(627,95,o),
(662,246,cs),
(725,512,o),
(764,678,o),
(747,611,cs),
(754,639,o),
(779,654,o),
(806,654,cs),
(817,654,l),
(824,699,l),
(586,699,l),
(579,654,l),
(611,654,o),
(663,654,o),
(674,654,cs),
(687,654,o),
(694,639,o),
(685,603,cs),
(625,351,o),
(619,330,o),
(602,241,c),
(575,129,o),
(466,49,o),
(338,49,cs),
(226,49,o),
(167,109,o),
(187,193,cs),
(260,516,o),
(274,569,o),
(287,626,cs),
(291,639,o),
(313,654,o),
(352,654,cs),
(366,654,l),
(373,699,l),
(169,699,l),
(162,654,l),
(168,654,o),
(173,654,o),
(181,654,cs),
(200,654,o),
(200,617,o),
(189,570,cs),
(239,784,o),
(223,713,o),
(102,192,cs),
(74,73,o),
(165,-11,o),
(337,-11,cs)
);
}
);
width = 739;
},
{
anchors = (
{
name = bottom;
pos = (284,0);
},
{
name = ogonek;
pos = (567,10);
},
{
name = top;
pos = (416,635);
},
{
name = topright;
pos = (828,700);
}
);
layerId = "F2DFA844-ADB6-4558-8504-1E1502925A9B";
shapes = (
{
closed = 1;
nodes = (
(495,-11,o),
(608,95,o),
(643,246,cs),
(681,410,o),
(706,521,o),
(728,611,cs),
(735,644,o),
(757,681,o),
(787,681,cs),
(798,681,l),
(805,699,l),
(567,699,l),
(560,681,l),
(592,681,o),
(644,681,o),
(655,681,cs),
(687,681,o),
(699,631,o),
(693,603,cs),
(718,708,o),
(605,214,o),
(610,241,c),
(580,112,o),
(460,21,o),
(319,21,cs),
(220,21,o),
(145,92,o),
(168,193,cs),
(150,112,o),
(268,627,o),
(268,626,cs),
(277,666,o),
(316,681,o),
(333,681,cs),
(347,681,l),
(354,699,l),
(150,699,l),
(143,681,l),
(149,681,o),
(154,681,o),
(162,681,cs),
(175,681,o),
(186,639,o),
(170,570,cs),
(121,360,o),
(33,-24,o),
(83,192,cs),
(55,73,o),
(170,-11,o),
(318,-11,cs)
);
}
);
width = 700;
}
);
metricLeft = n;
metricRight = n;
unicode = 85;
},
{
glyphname = V;
lastChange = "2024-11-11 18:59:14 +0000";
layers = (
{
layerId = m002;
shapes = (
{
closed = 1;
nodes = (
(272,0,l),
(614,641,ls),
(623,657,o),
(646,659,o),
(668,659,cs),
(703,659,l),
(711,700,l),
(515,700,l),
(508,659,l),
(554,659,ls),
(574,659,o),
(581,658,o),
(572,641,cs),
(310,150,l),
(247,621,ls),
(243,651,o),
(265,662,o),
(290,662,cs),
(334,662,l),
(341,700,l),
(111,700,l),
(105,662,l),
(134,662,ls),
(146,662,o),
(157,653,o),
(162,627,c),
(240,-12,l)
);
}
);
width = 598;
},
{
associatedMasterId = m002;
layerId = "3B9B7337-952C-469A-9574-7977706CE7D0";
name = "Groote Garmond Romyn";
shapes = (
{
closed = 1;
nodes = (
(388,0,l),
(617,641,ls),
(623,657,o),
(646,659,o),
(672,659,cs),
(714,659,l),
(714,700,l),
(484,700,l),
(484,659,l),
(538,659,ls),
(562,659,o),
(573,658,o),
(567,641,cs),
(392,150,l),
(190,621,ls),
(177,651,o),
(197,662,o),
(227,662,cs),
(279,662,l),
(279,700,l),
(9,700,l),
(9,662,l),
(43,662,ls),
(57,662,o),
(76,653,o),
(88,627,c),
(354,-12,l)
);
}
);
width = 723;
},
{
layerId = m003;
shapes = (
{
closed = 1;
nodes = (
(265,0,l),
(607,641,ls),
(616,657,o),
(639,669,o),
(661,669,cs),
(696,669,l),
(704,700,l),
(508,700,l),
(501,669,l),
(547,669,ls),
(567,669,o),
(574,658,o),
(565,641,cs),
(303,150,l),
(240,621,ls),
(236,651,o),
(258,672,o),
(283,672,cs),
(327,672,l),
(334,700,l),
(104,700,l),
(98,672,l),
(127,672,ls),
(139,672,o),
(150,653,o),
(155,627,c),
(233,-12,l)
);
}
);
width = 584;
},
{
associatedMasterId = m003;
layerId = "CEA38F5D-B215-4D7E-BAC0-79E16FCC6AFD";
name = "Groote Garmond Romyn";
shapes = (
{
closed = 1;
nodes = (
(388,0,l),
(617,641,ls),
(623,657,o),
(646,659,o),
(672,659,cs),
(714,659,l),
(714,700,l),
(484,700,l),
(484,659,l),
(538,659,ls),
(562,659,o),
(573,658,o),
(567,641,cs),
(392,150,l),
(190,621,ls),
(177,651,o),
(197,662,o),
(227,662,cs),
(279,662,l),
(279,700,l),
(9,700,l),
(9,662,l),
(43,662,ls),
(57,662,o),
(76,653,o),
(88,627,c),
(354,-12,l)
);
}
);
width = 723;
},
{
layerId = m01;
shapes = (
{
closed = 1;
nodes = (
(277,0,l),
(619,641,ls),
(628,657,o),
(651,652,o),
(673,652,cs),
(708,652,l),
(716,700,l),
(520,700,l),
(513,652,l),
(559,652,ls),
(579,652,o),
(586,658,o),
(577,641,cs),
(315,150,l),
(252,621,ls),
(248,651,o),
(270,655,o),
(295,655,cs),
(339,655,l),
(346,700,l),
(116,700,l),
(110,655,l),
(139,655,ls),
(151,655,o),
(162,653,o),
(167,627,c),
(245,-12,l)
);
}
);
width = 609;
},
{
layerId = "F2DFA844-ADB6-4558-8504-1E1502925A9B";
shapes = (
{
closed = 1;
nodes = (
(258,0,l),
(600,641,ls),
(609,657,o),
(632,679,o),
(654,679,cs),
(689,679,l),
(697,700,l),
(501,700,l),
(494,679,l),
(540,679,ls),
(560,679,o),
(567,658,o),
(558,641,cs),
(296,150,l),
(233,621,ls),
(229,651,o),
(251,682,o),
(276,682,cs),
(320,682,l),
(327,700,l),
(97,700,l),
(91,682,l),
(120,682,ls),
(132,682,o),
(143,653,o),
(148,627,c),
(226,-12,l)
);
}
);
width = 570;
}
);
unicode = 86;
},
{
glyphname = W;
lastChange = "2024-11-11 18:59:14 +0000";
layers = (
{
layerId = m002;
shapes = (
{
closed = 1;
nodes = (
(552,0,l),
(878,641,ls),
(886,657,o),
(909,659,o),
(931,659,cs),
(967,659,l),
(974,700,l),
(815,700,l),
(808,659,l),
(817,659,ls),
(838,659,o),
(840,651,o),
(835,641,cs),
(604,167,l),
(583,616,ls),
(582,646,o),
(596,662,o),
(622,662,cs),
(649,662,l),
(655,700,l),
(443,700,l),
(436,662,l),
(465,662,ls),
(477,662,o),
(489,653,o),
(493,627,c),
(521,-12,l)
);
},
{
closed = 1;
nodes = (
(221,0,l),
(580,662,l),
(537,662,l),
(273,164,l),
(251,621,ls),
(250,651,o),
(265,662,o),
(290,662,cs),
(317,662,l),
(324,700,l),
(111,700,l),
(105,662,l),
(134,662,ls),
(146,662,o),
(157,653,o),
(162,627,c),
(189,-12,l)
);
}
);
width = 872;
},
{
associatedMasterId = m002;
layerId = "E09BA9A6-FF19-435F-9B06-D103E9E877D2";
name = "Groote Garmond Romyn";
shapes = (
{
closed = 1;
nodes = (
(718,0,l),
(927,641,ls),
(929,648,o),
(956,659,o),
(982,659,cs),
(1024,659,l),
(1024,700,l),
(837,700,l),
(837,659,l),
(848,659,ls),
(872,659,o),
(880,649,o),
(877,641,cs),
(732,187,l),
(587,616,ls),
(577,646,o),
(587,662,o),
(617,662,cs),
(649,662,l),
(649,700,l),
(399,700,l),
(399,662,l),
(433,662,ls),
(447,662,o),
(466,653,o),
(478,627,c),
(684,-12,l)
);
},
{
closed = 1;
nodes = (
(328,0,l),
(568,662,l),
(518,662,l),
(343,184,l),
(195,621,ls),
(185,651,o),
(197,662,o),
(227,662,cs),
(259,662,l),
(259,700,l),
(9,700,l),
(9,662,l),
(43,662,ls),
(57,662,o),
(76,653,o),
(88,627,c),
(294,-12,l)
);
}
);
width = 1033;
},
{
layerId = m003;
shapes = (
{
closed = 1;
nodes = (
(545,0,l),
(871,641,ls),
(879,657,o),
(902,669,o),
(924,669,cs),
(960,669,l),
(967,700,l),
(808,700,l),
(801,669,l),
(810,669,ls),
(831,669,o),
(837,658,o),
(828,641,cs),
(597,167,l),
(576,616,ls),
(575,646,o),
(589,672,o),
(615,672,cs),
(642,672,l),
(648,700,l),
(436,700,l),
(429,672,l),
(458,672,ls),
(470,672,o),
(482,653,o),
(486,627,c),
(514,-12,l)
);
},
{
closed = 1;
nodes = (
(214,0,l),
(573,672,l),
(530,672,l),
(266,164,l),
(244,621,ls),
(243,651,o),
(258,672,o),
(283,672,cs),
(310,672,l),
(317,700,l),
(104,700,l),
(98,672,l),
(127,672,ls),
(139,672,o),
(150,653,o),
(155,627,c),
(182,-12,l)
);
}
);
width = 858;
},
{
associatedMasterId = m003;
layerId = "7E06DBC4-A713-4A6A-8382-A07154152019";
name = "Groote Garmond Romyn";
shapes = (
{
closed = 1;
nodes = (
(718,0,l),
(927,641,ls),
(929,648,o),
(956,659,o),
(982,659,cs),
(1024,659,l),
(1024,700,l),
(837,700,l),
(837,659,l),
(848,659,ls),
(872,659,o),
(880,649,o),
(877,641,cs),
(732,187,l),
(587,616,ls),
(577,646,o),
(587,662,o),
(617,662,cs),
(649,662,l),
(649,700,l),
(399,700,l),
(399,662,l),
(433,662,ls),
(447,662,o),
(466,653,o),
(478,627,c),
(684,-12,l)
);
},
{
closed = 1;
nodes = (
(328,0,l),
(568,662,l),
(518,662,l),
(343,184,l),
(195,621,ls),
(185,651,o),
(197,662,o),
(227,662,cs),
(259,662,l),
(259,700,l),
(9,700,l),
(9,662,l),
(43,662,ls),
(57,662,o),
(76,653,o),
(88,627,c),
(294,-12,l)
);
}
);
width = 1033;
},
{
layerId = m01;
shapes = (
{
closed = 1;
nodes = (
(557,0,l),
(883,641,ls),
(891,657,o),
(914,652,o),
(936,652,cs),
(972,652,l),
(979,700,l),
(820,700,l),
(813,652,l),
(822,652,ls),
(843,652,o),
(842,646,o),
(840,641,cs),
(609,167,l),
(588,616,ls),
(587,646,o),
(601,655,o),
(627,655,cs),
(654,655,l),
(660,700,l),
(448,700,l),
(441,655,l),
(470,655,ls),
(482,655,o),
(494,653,o),
(498,627,c),
(526,-12,l)
);
},
{
closed = 1;
nodes = (
(226,0,l),
(585,655,l),
(542,655,l),
(278,164,l),
(256,621,ls),
(255,651,o),
(270,655,o),
(295,655,cs),
(322,655,l),
(329,700,l),
(116,700,l),
(110,655,l),
(139,655,ls),
(151,655,o),
(162,653,o),
(167,627,c),
(194,-12,l)
);
}
);
width = 883;
},
{
layerId = "F2DFA844-ADB6-4558-8504-1E1502925A9B";
shapes = (
{
closed = 1;
nodes = (
(538,0,l),
(864,641,ls),
(872,657,o),
(895,679,o),
(917,679,cs),
(953,679,l),
(960,700,l),
(801,700,l),
(794,679,l),
(803,679,ls),
(824,679,o),
(834,665,o),
(821,641,cs),
(590,167,l),
(569,616,ls),
(568,646,o),
(582,682,o),
(608,682,cs),
(635,682,l),
(641,700,l),
(429,700,l),
(422,682,l),
(451,682,ls),
(463,682,o),
(475,653,o),
(479,627,c),
(507,-12,l)
);
},
{
closed = 1;
nodes = (
(207,0,l),
(566,682,l),
(523,682,l),
(259,164,l),
(237,621,ls),
(236,651,o),
(251,682,o),
(276,682,cs),
(303,682,l),
(310,700,l),
(97,700,l),
(91,682,l),
(120,682,ls),
(132,682,o),
(143,653,o),
(148,627,c),
(175,-12,l)
);
}
);
width = 844;
}
);
unicode = 87;
},
{
glyphname = X;
lastChange = "2024-11-11 18:59:14 +0000";
layers = (
{
layerId = m002;
shapes = (
{
closed = 1;
nodes = (
(563,0,l),
(569,38,l),
(544,38,l),
(522,38,o),
(501,55,o),
(493,79,cs),
(428,281,o),
(346,514,o),
(294,642,cs),
(290,654,o),
(302,662,o),
(323,662,cs),
(375,662,l),
(382,700,l),
(144,700,l),
(137,662,l),
(147,662,l),
(172,662,o),
(192,657,o),
(195,649,cs),
(292,376,o),
(369,155,o),
(381,116,cs),
(396,70,o),
(384,38,o),
(352,38,cs),
(314,38,l),
(308,0,l)
);
},
{
closed = 1;
nodes = (
(193,0,l),
(199,38,l),
(192,38,o),
(193,38,o),
(176,38,cs),
(130,38,o),
(118,65,o),
(147,104,cs),
(157,116,o),
(247,216,o),
(365,346,c),
(345,369,l),
(273,289,o),
(159,165,o),
(70,70,cs),
(52,51,o),
(11,38,o),
(-29,38,c),
(-36,0,l)
);
},
{
closed = 1;
nodes = (
(653,651,l),
(659,657,o),
(672,662,o),
(686,662,cs),
(721,662,l),
(728,700,l),
(497,700,l),
(491,662,l),
(503,662,o),
(512,662,o),
(555,662,cs),
(586,662,o),
(579,628,o),
(538,579,cs),
(518,555,o),
(440,464,o),
(350,359,c),
(370,336,l)
);
}
);
width = 645;
},
{
associatedMasterId = m002;
layerId = "B0C80651-7D61-4AED-9CB9-2694C4C1D12E";
name = "Groote Garmond Romyn";
shapes = (
{
closed = 1;
nodes = (
(722,0,l),
(722,38,l),
(692,38,l),
(675,38,o),
(638,59,o),
(618,89,cs),
(501,269,o),
(343,483,o),
(232,632,cs),
(219,650,o),
(230,662,o),
(257,662,cs),
(319,662,l),
(319,700,l),
(39,700,l),
(39,662,l),
(51,662,l),
(72,662,o),
(104,652,o),
(113,639,cs),
(146,591,o),
(466,132,o),
(477,116,cs),
(511,64,o),
(500,38,o),
(466,38,cs),
(422,38,l),
(422,0,l)
);
},
{
closed = 1;
nodes = (
(287,0,l),
(287,38,l),
(278,38,o),
(279,38,o),
(260,38,cs),
(200,38,o),
(177,59,o),
(205,104,cs),
(212,115,o),
(294,210,o),
(399,341,c),
(369,374,l),
(307,295,o),
(211,176,o),
(131,80,cs),
(110,55,o),
(63,38,o),
(18,38,c),
(18,0,l)
);
},
{
closed = 1;
nodes = (
(643,641,l),
(654,655,o),
(670,662,o),
(685,662,cs),
(726,662,l),
(726,700,l),
(455,700,l),
(455,662,l),
(469,662,o),
(480,662,o),
(530,662,cs),
(565,662,o),
(574,633,o),
(536,579,cs),
(502,530,o),
(489,525,o),
(369,364,c),
(399,331,l)
);
}
);
width = 744;
},
{
layerId = m003;
shapes = (
{
closed = 1;
nodes = (
(556,0,l),
(562,28,l),
(537,28,l),
(522,28,o),
(496,49,o),
(486,79,cs),
(428,259,o),
(347,493,o),
(287,642,cs),
(281,660,o),
(293,672,o),
(316,672,cs),
(368,672,l),
(375,700,l),
(137,700,l),
(130,672,l),
(140,672,l),
(158,672,o),
(183,662,o),
(188,649,cs),
(205,601,o),
(369,132,o),
(374,116,cs),
(391,64,o),
(373,28,o),
(345,28,cs),
(307,28,l),
(301,0,l)
);
},
{
closed = 1;
nodes = (
(186,0,l),
(192,28,l),
(185,28,o),
(186,28,o),
(169,28,cs),
(118,28,o),
(106,59,o),
(140,104,cs),
(149,115,o),
(239,215,o),
(358,346,c),
(345,369,l),
(274,290,o),
(160,166,o),
(70,70,cs),
(46,45,o),
(2,28,o),
(-36,28,c),
(-43,0,l)
);
},
{
closed = 1;
nodes = (
(639,651,l),
(651,665,o),
(667,672,o),
(679,672,cs),
(714,672,l),
(721,700,l),
(490,700,l),
(484,672,l),
(496,672,o),
(505,672,o),
(548,672,cs),
(577,672,o),
(576,633,o),
(531,579,cs),
(491,530,o),
(482,520,o),
(343,359,c),
(356,336,l)
);
}
);
width = 631;
},
{
associatedMasterId = m003;
layerId = "16477629-8259-447D-B812-091909061D05";
name = "Groote Garmond Romyn";
shapes = (
{
closed = 1;
nodes = (
(722,0,l),
(722,38,l),
(692,38,l),
(675,38,o),
(638,59,o),
(618,89,cs),
(501,269,o),
(343,483,o),
(232,632,cs),
(219,650,o),
(230,662,o),
(257,662,cs),
(319,662,l),
(319,700,l),
(39,700,l),
(39,662,l),
(51,662,l),
(72,662,o),
(104,652,o),
(113,639,cs),
(146,591,o),
(466,132,o),
(477,116,cs),
(511,64,o),
(500,38,o),
(466,38,cs),
(422,38,l),
(422,0,l)
);
},
{
closed = 1;
nodes = (
(287,0,l),
(287,38,l),
(278,38,o),
(279,38,o),
(260,38,cs),
(200,38,o),
(177,59,o),
(205,104,cs),
(212,115,o),
(294,210,o),
(399,341,c),
(369,374,l),
(307,295,o),
(211,176,o),
(131,80,cs),
(110,55,o),
(63,38,o),
(18,38,c),
(18,0,l)
);
},
{
closed = 1;
nodes = (
(643,641,l),
(654,655,o),
(670,662,o),
(685,662,cs),
(726,662,l),
(726,700,l),
(455,700,l),
(455,662,l),
(469,662,o),
(480,662,o),
(530,662,cs),
(565,662,o),
(574,633,o),
(536,579,cs),
(502,530,o),
(489,525,o),
(369,364,c),
(399,331,l)
);
}
);
width = 744;
},
{
layerId = m01;
shapes = (
{
closed = 1;
nodes = (
(568,0,l),
(574,46,l),
(549,46,ls),
(522,46,o),
(505,60,o),
(498,79,cs),
(428,298,o),
(345,530,o),
(299,642,c),
(297,650,o),
(309,655,o),
(328,655,cs),
(380,655,l),
(387,700,l),
(149,700,l),
(142,655,l),
(152,655,ls),
(183,655,o),
(199,653,o),
(200,649,cs),
(357,207,o),
(369,172,o),
(386,116,cs),
(400,75,o),
(392,46,o),
(357,46,cs),
(319,46,l),
(313,0,l)
);
},
{
closed = 1;
nodes = (
(198,0,l),
(204,46,l),
(197,46,o),
(198,46,o),
(181,46,cs),
(139,46,o),
(127,70,o),
(152,104,cs),
(163,117,o),
(253,217,o),
(370,346,c),
(345,369,l),
(272,288,o),
(158,164,o),
(70,70,cs),
(57,56,o),
(18,46,o),
(-24,46,c),
(-31,0,l)
);
},
{
closed = 1;
nodes = (
(664,651,l),
(665,651,o),
(676,655,o),
(691,655,cs),
(726,655,l),
(733,700,l),
(502,700,l),
(496,655,l),
(508,655,o),
(517,655,o),
(560,655,cs),
(593,655,o),
(581,624,o),
(543,579,cs),
(538,574,o),
(409,422,o),
(355,359,c),
(381,336,l)
);
}
);
width = 656;
},
{
layerId = "F2DFA844-ADB6-4558-8504-1E1502925A9B";
shapes = (
{
closed = 1;
nodes = (
(549,0,l),
(555,18,l),
(530,18,ls),
(522,18,o),
(491,43,o),
(479,79,cs),
(428,237,o),
(348,472,o),
(280,642,c),
(272,666,o),
(284,682,o),
(309,682,cs),
(361,682,l),
(368,700,l),
(130,700,l),
(123,682,l),
(133,682,ls),
(144,682,o),
(174,667,o),
(181,649,cs),
(118,826,o),
(369,109,o),
(367,116,cs),
(386,58,o),
(362,18,o),
(338,18,cs),
(300,18,l),
(294,0,l)
);
},
{
closed = 1;
nodes = (
(179,0,l),
(185,18,l),
(178,18,o),
(179,18,o),
(162,18,cs),
(106,18,o),
(94,53,o),
(133,104,cs),
(141,114,o),
(231,214,o),
(351,346,c),
(345,369,l),
(275,291,o),
(161,167,o),
(70,70,cs),
(40,39,o),
(-7,18,o),
(-43,18,c),
(-50,0,l)
);
},
{
closed = 1;
nodes = (
(625,651,ls),
(643,673,o),
(662,682,o),
(672,682,cs),
(707,682,l),
(714,700,l),
(483,700,l),
(477,682,l),
(489,682,o),
(498,682,o),
(541,682,cs),
(568,682,o),
(573,638,o),
(524,579,cs),
(464,505,o),
(524,576,o),
(336,359,c),
(342,336,l)
);
}
);
width = 617;
}
);
metricLeft = n;
metricRight = n;
unicode = 88;
},
{
glyphname = Y;
lastChange = "2024-11-11 18:59:56 +0000";
layers = (
{
layerId = m002;
shapes = (
{
closed = 1;
nodes = (
(326,319,l),
(260,632,l),
(257,650,o),
(275,662,o),
(303,662,cs),
(378,662,l),
(385,700,l),
(121,700,l),
(115,662,l),
(150,662,l),
(163,662,o),
(175,657,o),
(177,649,c),
(250,292,l)
);
},
{
closed = 1;
nodes = (
(355,0,l),
(361,38,l),
(352,38,o),
(345,38,o),
(333,38,cs),
(297,38,o),
(274,50,o),
(277,66,cs),
(335,314,l),
(250,314,l),
(199,95,l),
(191,59,o),
(162,34,o),
(128,34,cs),
(105,34,l),
(99,0,l)
);
},
{
closed = 1;
nodes = (
(335,314,l),
(572,651,l),
(578,657,o),
(595,662,o),
(613,662,cs),
(648,662,l),
(654,700,l),
(475,700,l),
(468,662,l),
(505,662,l),
(513,662,o),
(513,649,o),
(501,630,cs),
(297,314,l)
);
}
);
width = 562;
},
{
associatedMasterId = m002;
layerId = "F5BB848F-83B6-47E3-BDD9-47E50DED61DD";
name = "Groote Garmond Romyn";
shapes = (
{
closed = 1;
nodes = (
(474,0,l),
(474,38,l),
(463,38,o),
(455,38,o),
(441,38,cs),
(427,38,o),
(365,42,o),
(365,66,cs),
(365,314,l),
(265,314,l),
(265,95,l),
(265,68,o),
(238,34,o),
(201,34,cs),
(173,34,l),
(173,0,l)
);
},
{
closed = 1;
nodes = (
(365,319,l),
(202,632,l),
(189,660,o),
(202,662,o),
(230,662,cs),
(319,662,l),
(319,700,l),
(9,700,l),
(9,662,l),
(51,662,l),
(62,662,o),
(80,662,o),
(89,649,c),
(271,292,l)
);
},
{
closed = 1;
nodes = (
(553,641,l),
(563,653,o),
(580,662,o),
(595,662,cs),
(636,662,l),
(636,700,l),
(425,700,l),
(425,662,l),
(480,662,l),
(498,662,o),
(504,655,o),
(490,630,cs),
(312,314,l),
(365,314,l)
);
}
);
width = 645;
},
{
layerId = m003;
shapes = (
{
closed = 1;
nodes = (
(319,319,l),
(253,632,l),
(248,660,o),
(272,672,o),
(296,672,cs),
(371,672,l),
(378,700,l),
(114,700,l),
(108,672,l),
(143,672,l),
(153,672,o),
(166,662,o),
(170,649,c),
(243,292,l)
);
},
{
closed = 1;
nodes = (
(348,0,l),
(354,28,l),
(345,28,o),
(338,28,o),
(326,28,cs),
(314,28,o),
(263,32,o),
(270,66,cs),
(328,314,l),
(243,314,l),
(192,95,l),
(186,68,o),
(153,24,o),
(121,24,cs),
(98,24,l),
(92,0,l)
);
},
{
closed = 1;
nodes = (
(328,314,l),
(565,651,l),
(577,663,o),
(593,672,o),
(606,672,cs),
(641,672,l),
(647,700,l),
(468,700,l),
(461,672,l),
(508,672,l),
(523,672,o),
(523,655,o),
(507,630,cs),
(295,314,l)
);
}
);
width = 548;
},
{
associatedMasterId = m003;
layerId = "E802D1BE-37AB-4F09-B5E4-974714F43EA4";
name = "Groote Garmond Romyn";
shapes = (
{
closed = 1;
nodes = (
(474,0,l),
(474,38,l),
(463,38,o),
(455,38,o),
(441,38,cs),
(427,38,o),
(365,42,o),
(365,66,cs),
(365,314,l),
(265,314,l),
(265,95,l),
(265,68,o),
(238,34,o),
(201,34,cs),
(173,34,l),
(173,0,l)
);
},
{
closed = 1;
nodes = (
(365,319,l),
(202,632,l),
(189,660,o),
(202,662,o),
(230,662,cs),
(319,662,l),
(319,700,l),
(9,700,l),
(9,662,l),
(51,662,l),
(62,662,o),
(80,662,o),
(89,649,c),
(271,292,l)
);
},
{
closed = 1;
nodes = (
(553,641,l),
(563,653,o),
(580,662,o),
(595,662,cs),
(636,662,l),
(636,700,l),
(425,700,l),
(425,662,l),
(480,662,l),
(498,662,o),
(504,655,o),
(490,630,cs),
(312,314,l),
(365,314,l)
);
}
);
width = 645;
},
{
layerId = m01;
shapes = (
{
closed = 1;
nodes = (
(331,319,l),
(265,632,l),
(264,643,o),
(277,655,o),
(308,655,cs),
(383,655,l),
(390,700,l),
(126,700,l),
(120,655,l),
(155,655,ls),
(171,655,o),
(182,653,o),
(182,649,c),
(255,292,l)
);
},
{
closed = 1;
nodes = (
(360,0,l),
(366,46,l),
(357,46,o),
(350,46,o),
(338,46,cs),
(284,46,o),
(282,64,o),
(282,66,c),
(340,314,l),
(255,314,l),
(204,95,ls),
(195,52,o),
(169,42,o),
(133,42,cs),
(110,42,l),
(104,0,l)
);
},
{
closed = 1;
nodes = (
(340,314,l),
(577,651,l),
(579,653,o),
(597,655,o),
(618,655,cs),
(653,655,l),
(659,700,l),
(480,700,l),
(473,655,l),
(503,655,ls),
(506,655,o),
(506,645,o),
(497,630,cs),
(299,314,l)
);
}
);
width = 573;
},
{
layerId = "F2DFA844-ADB6-4558-8504-1E1502925A9B";
shapes = (
{
closed = 1;
nodes = (
(312,319,l),
(246,632,ls),
(239,670,o),
(269,682,o),
(289,682,cs),
(364,682,l),
(371,700,l),
(107,700,l),
(101,682,l),
(136,682,ls),
(143,682,o),
(157,667,o),
(163,649,c),
(236,292,l)
);
},
{
closed = 1;
nodes = (
(341,0,l),
(347,18,l),
(338,18,o),
(331,18,o),
(319,18,c),
(331,18,o),
(252,14,o),
(263,66,cs),
(321,314,l),
(236,314,l),
(185,95,ls),
(181,77,o),
(144,14,o),
(114,14,cs),
(91,14,l),
(85,0,l)
);
},
{
closed = 1;
nodes = (
(321,314,l),
(558,651,l),
(576,669,o),
(591,682,o),
(599,682,cs),
(634,682,l),
(640,700,l),
(461,700,l),
(454,682,l),
(511,682,ls),
(533,682,o),
(533,661,o),
(513,630,cs),
(293,314,l)
);
}
);
width = 534;
}
);
unicode = 89;
},
{
glyphname = Z;
lastChange = "2024-11-11 18:59:14 +0000";
layers = (
{
layerId = m002;
shapes = (
{
closed = 1;
nodes = (
(198,0,l),
(206,45,l),
(147,45,ls),
(127,45,o),
(126,52,o),
(145,77,c),
(611,649,l),
(623,700,l),
(223,700,l),
(123,482,l),
(161,476,l),
(227,587,o),
(292,655,o),
(316,655,cs),
(492,655,ls),
(512,655,o),
(514,650,o),
(495,628,cs),
(398,516,o),
(188,256,o),
(-15,0,c)
);
},
{
closed = 1;
nodes = (
(449,0,l),
(538,212,l),
(514,219,l),
(469,141,o),
(391,45,o),
(340,45,cs),
(267,45,l),
(78,45,l),
(25,45,l),
(17,0,l)
);
}
);
width = 595;
},
{
associatedMasterId = m002;
layerId = "EA2B3DEB-42F8-4840-8A29-665B5A55AEF4";
name = "Groote Garmond Romyn";
shapes = (
{
closed = 1;
nodes = (
(295,0,l),
(295,45,l),
(226,45,ls),
(202,45,o),
(196,52,o),
(212,77,c),
(605,649,l),
(605,700,l),
(134,700,l),
(76,482,l),
(121,476,l),
(168,587,o),
(213,655,o),
(242,655,cs),
(460,655,ls),
(484,655,o),
(490,650,o),
(474,628,cs),
(391,516,o),
(214,256,o),
(45,0,c)
);
},
{
closed = 1;
nodes = (
(590,0,l),
(638,212,l),
(597,219,l),
(566,141,o),
(513,45,o),
(453,45,cs),
(367,45,l),
(145,45,l),
(82,45,l),
(82,0,l)
);
}
);
width = 693;
},
{
layerId = m003;
shapes = (
{
closed = 1;
nodes = (
(191,0,l),
(199,35,l),
(140,35,ls),
(120,35,o),
(119,52,o),
(138,77,c),
(604,649,l),
(616,700,l),
(216,700,l),
(116,482,l),
(144,476,l),
(210,587,o),
(275,665,o),
(299,665,cs),
(485,665,ls),
(505,665,o),
(507,650,o),
(488,628,cs),
(391,516,o),
(181,256,o),
(-22,0,c)
);
},
{
closed = 1;
nodes = (
(442,0,l),
(531,212,l),
(507,219,l),
(462,141,o),
(384,35,o),
(333,35,cs),
(260,35,l),
(71,35,l),
(18,35,l),
(10,0,l)
);
}
);
width = 581;
},
{
associatedMasterId = m003;
layerId = "715A520A-9E7F-47F9-BFC8-2BDDB641084E";
name = "Groote Garmond Romyn";
shapes = (
{
closed = 1;
nodes = (
(295,0,l),
(295,45,l),
(226,45,ls),
(202,45,o),
(196,52,o),
(212,77,c),
(605,649,l),
(605,700,l),
(134,700,l),
(76,482,l),
(121,476,l),
(168,587,o),
(213,655,o),
(242,655,cs),
(460,655,ls),
(484,655,o),
(490,650,o),
(474,628,cs),
(391,516,o),
(214,256,o),
(45,0,c)
);
},
{
closed = 1;
nodes = (
(590,0,l),
(638,212,l),
(597,219,l),
(566,141,o),
(513,45,o),
(453,45,cs),
(367,45,l),
(145,45,l),
(82,45,l),
(82,0,l)
);
}
);
width = 693;
},
{
layerId = m01;
shapes = (
{
closed = 1;
nodes = (
(203,0,l),
(211,53,l),
(152,53,ls),
(132,53,o),
(131,52,o),
(150,77,cs),
(616,649,l),
(628,700,l),
(228,700,l),
(128,482,l),
(174,476,l),
(240,587,o),
(305,648,o),
(329,648,cs),
(497,648,ls),
(517,648,o),
(519,650,o),
(500,628,cs),
(403,516,o),
(193,256,o),
(-10,0,c)
);
},
{
closed = 1;
nodes = (
(454,0,l),
(543,212,l),
(519,219,l),
(474,141,o),
(396,53,o),
(345,53,cs),
(272,53,l),
(83,53,l),
(30,53,l),
(22,0,l)
);
}
);
width = 606;
},
{
layerId = "F2DFA844-ADB6-4558-8504-1E1502925A9B";
shapes = (
{
closed = 1;
nodes = (
(184,0,l),
(192,25,l),
(133,25,ls),
(113,25,o),
(112,52,o),
(131,77,cs),
(597,649,l),
(609,700,l),
(209,700,l),
(109,482,l),
(127,476,l),
(193,587,o),
(258,675,o),
(282,675,cs),
(478,675,ls),
(498,675,o),
(500,650,o),
(481,628,cs),
(384,516,o),
(174,256,o),
(-29,0,c)
);
},
{
closed = 1;
nodes = (
(435,0,l),
(524,212,l),
(500,219,l),
(455,141,o),
(377,25,o),
(326,25,cs),
(253,25,l),
(64,25,l),
(11,25,l),
(3,0,l)
);
}
);
width = 567;
}
);
unicode = 90;
},
{
glyphname = N.alt;
lastChange = "2024-11-11 18:59:14 +0000";
layers = (
{
layerId = m002;
shapes = (
{
closed = 1;
nodes = (
(618,-1,l),
(760,614,ls),
(773,672,o),
(828,672,o),
(849,672,cs),
(870,672,o),
(894,672,o),
(917,672,c),
(924,700,l),
(562,700,l),
(555,672,l),
(653,672,ls),
(671,672,o),
(707,647,o),
(700,616,cs),
(693,585,o),
(625,289,o),
(586,119,c),
(605,101,l),
(348,702,l),
(143,702,l),
(137,674,l),
(241,674,ls),
(268,674,o),
(289,632,o),
(299,609,cs),
(551,-1,l)
);
},
{
closed = 1;
nodes = (
(353,4,l),
(359,28,l),
(322,28,o),
(280,28,o),
(247,28,cs),
(214,28,o),
(203,66,o),
(213,108,cs),
(333,627,l),
(295,702,l),
(290,702,l),
(276,640,o),
(152,105,o),
(150,94,cs),
(146,77,o),
(123,32,o),
(94,32,cs),
(-43,32,l),
(-49,4,l)
);
}
);
width = 795;
},
{
layerId = m003;
shapes = (
{
closed = 1;
nodes = (
(611,-1,l),
(753,614,ls),
(766,672,o),
(821,672,o),
(842,672,cs),
(863,672,o),
(887,672,o),
(910,672,c),
(917,700,l),
(555,700,l),
(548,672,l),
(646,672,ls),
(664,672,o),
(700,647,o),
(693,616,cs),
(686,585,o),
(618,289,o),
(579,119,c),
(598,101,l),
(341,702,l),
(136,702,l),
(130,674,l),
(234,674,ls),
(261,674,o),
(282,632,o),
(292,609,cs),
(544,-1,l)
);
},
{
closed = 1;
nodes = (
(346,4,l),
(352,28,l),
(315,28,o),
(273,28,o),
(240,28,cs),
(207,28,o),
(196,66,o),
(206,108,cs),
(326,627,l),
(288,702,l),
(283,702,l),
(269,640,o),
(145,105,o),
(143,94,cs),
(139,77,o),
(116,32,o),
(87,32,cs),
(-50,32,l),
(-56,4,l)
);
}
);
width = 781;
},
{
layerId = m01;
shapes = (
{
closed = 1;
nodes = (
(623,-1,l),
(765,614,ls),
(778,672,o),
(833,672,o),
(854,672,cs),
(875,672,o),
(899,672,o),
(922,672,c),
(929,700,l),
(567,700,l),
(560,672,l),
(658,672,ls),
(676,672,o),
(712,647,o),
(705,616,cs),
(698,585,o),
(630,289,o),
(591,119,c),
(610,101,l),
(353,702,l),
(148,702,l),
(142,674,l),
(246,674,ls),
(273,674,o),
(294,632,o),
(304,609,cs),
(556,-1,l)
);
},
{
closed = 1;
nodes = (
(358,4,l),
(364,28,l),
(327,28,o),
(285,28,o),
(252,28,cs),
(219,28,o),
(208,66,o),
(218,108,cs),
(338,627,l),
(300,702,l),
(295,702,l),
(281,640,o),
(157,105,o),
(155,94,cs),
(151,77,o),
(128,32,o),
(99,32,cs),
(-38,32,l),
(-44,4,l)
);
}
);
width = 806;
},
{
layerId = "F2DFA844-ADB6-4558-8504-1E1502925A9B";
shapes = (
{
closed = 1;
nodes = (
(604,-1,l),
(746,614,ls),
(759,672,o),
(814,672,o),
(835,672,cs),
(856,672,o),
(880,672,o),
(903,672,c),
(910,700,l),
(548,700,l),
(541,672,l),
(639,672,ls),
(657,672,o),
(693,647,o),
(686,616,cs),
(679,585,o),
(611,289,o),
(572,119,c),
(591,101,l),
(334,702,l),
(129,702,l),
(123,674,l),
(227,674,ls),
(254,674,o),
(275,632,o),
(285,609,cs),
(537,-1,l)
);
},
{
closed = 1;
nodes = (
(339,4,l),
(345,28,l),
(308,28,o),
(266,28,o),
(233,28,cs),
(200,28,o),
(189,66,o),
(199,108,cs),
(319,627,l),
(281,702,l),
(276,702,l),
(262,640,o),
(138,105,o),
(136,94,cs),
(132,77,o),
(109,32,o),
(80,32,cs),
(-57,32,l),
(-63,4,l)
);
}
);
width = 767;
}
);
},
{
glyphname = a;
lastChange = "2024-11-11 18:59:14 +0000";
layers = (
{
anchors = (
{
name = bottom;
pos = (163,0);
},
{
name = ogonek;
pos = (348,10);
},
{
name = top;
pos = (295,435);
}
);
background = {
shapes = (
{
closed = 1;
nodes = (
(235,-8,o),
(333,86,o),
(384,220,cs),
(448,389,o),
(408,508,o),
(288,508,cs),
(200,508,o),
(100,410,o),
(48,272,cs),
(-13,108,o),
(28,-8,o),
(146,-8,cs)
);
},
{
closed = 1;
nodes = (
(89,20,o),
(85,137,o),
(147,302,cs),
(186,406,o),
(240,480,o),
(278,480,cs),
(346,480,o),
(349,360,o),
(285,190,cs),
(247,90,o),
(194,20,o),
(157,20,cs)
);
}
);
};
layerId = m002;
shapes = (
{
closed = 1;
nodes = (
(117,-8,o),
(202,53,o),
(283,140,c),
(266,168,l),
(207,108,o),
(146,66,o),
(119,66,cs),
(91,66,o),
(97,128,o),
(133,229,cs),
(185,370,o),
(265,460,o),
(326,460,cs),
(337,460,o),
(358,456,o),
(376,437,c),
(414,476,l),
(398,495,o),
(373,508,o),
(354,508,cs),
(240,508,o),
(112,379,o),
(45,197,cs),
(2,77,o),
(15,-8,o),
(77,-8,cs)
);
},
{
closed = 1;
nodes = (
(324,-8,o),
(402,82,o),
(451,210,c),
(421,220,l),
(386,129,o),
(345,64,o),
(322,64,cs),
(302,64,o),
(307,105,o),
(334,177,cs),
(372,284,o),
(424,421,o),
(460,508,c),
(382,500,l),
(288,250,o),
(211,52,o),
(242,135,c),
(211,51,o),
(220,-8,o),
(263,-8,cs)
);
}
);
width = 457;
},
{
associatedMasterId = m002;
layerId = "0AA07DD8-00D6-402C-B121-76C1653733C0";
name = "7. Nov. 24, 00:06";
shapes = (
{
closed = 1;
nodes = (
(386,427,l),
(364,443,o),
(341,460,o),
(326,460,cs),
(253,460,o),
(163,346,o),
(113,184,cs),
(95,125,o),
(89,76,o),
(108,76,cs),
(131,76,o),
(206,136,o),
(276,208,c),
(293,190,l),
(187,77,o),
(81,-10,o),
(46,-10,cs),
(-3,-10,o),
(-12,61,o),
(16,152,cs),
(81,363,o),
(222,508,o),
(354,508,cs),
(374,508,o),
(402,493,o),
(424,476,c)
);
},
{
closed = 1;
nodes = (
(457,500,l),
(414,395,o),
(364,261,o),
(334,177,cs),
(307,105,o),
(302,54,o),
(322,54,cs),
(345,54,o),
(386,119,o),
(421,210,c),
(451,210,l),
(402,82,o),
(324,-8,o),
(263,-8,cs),
(220,-8,o),
(211,51,o),
(242,135,cs),
(211,52,o),
(288,250,o),
(382,500,c)
);
}
);
width = 467;
},
{
associatedMasterId = m002;
background = {
shapes = (
{
closed = 1;
nodes = (
(200,83,o),
(113,-8,o),
(67,-8,cs),
(3,-8,o),
(-18,54,o),
(15,141,cs),
(38,202,o),
(65,270,o),
(82,315,cs),
(109,387,o),
(115,438,o),
(96,438,cs),
(72,438,o),
(29,373,o),
(-8,282,c),
(-38,282,l),
(15,414,o),
(95,508,o),
(155,508,cs),
(199,508,o),
(206,445,o),
(173,357,cs),
(136,259,o),
(109,190,o),
(109,192,cs),
(83,118,o),
(83,66,o),
(110,66,cs),
(145,66,o),
(215,145,o),
(277,257,c),
(277,212,l)
);
},
{
closed = 1;
nodes = (
(442,500,l),
(402,401,o),
(351,268,o),
(319,177,cs),
(292,105,o),
(287,54,o),
(307,54,cs),
(330,54,o),
(371,119,o),
(406,210,c),
(436,210,l),
(387,82,o),
(309,-8,o),
(248,-8,cs),
(205,-8,o),
(196,51,o),
(227,135,cs),
(196,52,o),
(273,250,o),
(367,500,c)
);
}
);
};
layerId = "1D363441-946F-44AD-A9C5-8CF4D87ECED2";
name = "8. Nov. 24, 10:52";
shapes = (
{
closed = 1;
nodes = (
(376,417,l),
(343,441,o),
(313,452,o),
(286,452,cs),
(209,452,o),
(152,362,o),
(103,205,cs),
(89,162,o),
(82,126,o),
(82,101,cs),
(82,79,o),
(101,56,o),
(112,56,cs),
(166,56,o),
(230,120,o),
(286,197,c),
(293,190,l),
(221,73,o),
(135,-10,o),
(86,-10,cs),
(16,-10,o),
(-13,57,o),
(16,152,cs),
(80,361,o),
(220,508,o),
(354,508,cs),
(372,508,o),
(401,495,o),
(424,476,c)
);
},
{
closed = 1;
nodes = (
(460,508,l),
(424,421,o),
(372,284,o),
(334,177,cs),
(307,105,o),
(302,54,o),
(322,54,cs),
(345,54,o),
(386,119,o),
(421,210,c),
(451,210,l),
(402,82,o),
(324,-8,o),
(263,-8,cs),
(220,-8,o),
(211,51,o),
(242,135,cs),
(211,52,o),
(288,250,o),
(382,500,c)
);
},
{
closed = 1;
nodes = (
(89,-10,o),
(183,73,o),
(293,190,c),
(276,208,l),
(195,125,o),
(126,66,o),
(109,66,cs),
(83,66,o),
(82,115,o),
(107,184,cs),
(166,346,o),
(257,460,o),
(326,460,cs),
(335,460,o),
(359,446,o),
(386,427,c),
(424,476,l),
(400,495,o),
(371,508,o),
(354,508,cs),
(232,508,o),
(91,361,o),
(15,152,cs),
(-19,57,o),
(2,-10,o),
(66,-10,cs)
);
}
);
width = 467;
},
{
anchors = (
{
name = bottom;
pos = (156,0);
},
{
name = ogonek;
pos = (343,10);
},
{
name = top;
pos = (288,435);
}
);
background = {
shapes = (
{
closed = 1;
nodes = (
(235,-8,o),
(333,86,o),
(384,220,cs),
(448,389,o),
(408,508,o),
(288,508,cs),
(200,508,o),
(100,410,o),
(48,272,cs),
(-13,108,o),
(28,-8,o),
(146,-8,cs)
);
},
{
closed = 1;
nodes = (
(89,20,o),
(85,137,o),
(147,302,cs),
(186,406,o),
(240,480,o),
(278,480,cs),
(346,480,o),
(349,360,o),
(285,190,cs),
(247,90,o),
(194,20,o),
(157,20,cs)
);
}
);
};
layerId = m003;
shapes = (
{
closed = 1;
nodes = (
(110,-8,o),
(195,53,o),
(276,140,c),
(259,158,l),
(200,98,o),
(139,56,o),
(112,56,cs),
(84,56,o),
(90,128,o),
(126,229,cs),
(178,370,o),
(258,470,o),
(319,470,cs),
(330,470,o),
(351,456,o),
(369,437,c),
(407,476,l),
(391,495,o),
(366,508,o),
(347,508,cs),
(233,508,o),
(105,379,o),
(38,197,cs),
(-5,77,o),
(8,-8,o),
(70,-8,cs)
);
},
{
closed = 1;
nodes = (
(317,-8,o),
(395,82,o),
(444,210,c),
(414,210,l),
(379,119,o),
(338,54,o),
(315,54,cs),
(295,54,o),
(300,105,o),
(327,177,cs),
(365,284,o),
(417,421,o),
(453,508,c),
(375,500,l),
(281,250,o),
(204,52,o),
(235,135,c),
(204,51,o),
(213,-8,o),
(256,-8,cs)
);
}
);
width = 443;
},
{
associatedMasterId = m003;
layerId = "0DE6FB79-B0B6-414C-BAFE-4B31CAFD69E7";
name = "7. Nov. 24, 00:06";
shapes = (
{
closed = 1;
nodes = (
(386,427,l),
(364,443,o),
(341,460,o),
(326,460,cs),
(253,460,o),
(163,346,o),
(113,184,cs),
(95,125,o),
(89,76,o),
(108,76,cs),
(131,76,o),
(206,136,o),
(276,208,c),
(293,190,l),
(187,77,o),
(81,-10,o),
(46,-10,cs),
(-3,-10,o),
(-12,61,o),
(16,152,cs),
(81,363,o),
(222,508,o),
(354,508,cs),
(374,508,o),
(402,493,o),
(424,476,c)
);
},
{
closed = 1;
nodes = (
(457,500,l),
(414,395,o),
(364,261,o),
(334,177,cs),
(307,105,o),
(302,54,o),
(322,54,cs),
(345,54,o),
(386,119,o),
(421,210,c),
(451,210,l),
(402,82,o),
(324,-8,o),
(263,-8,cs),
(220,-8,o),
(211,51,o),
(242,135,cs),
(211,52,o),
(288,250,o),
(382,500,c)
);
}
);
width = 467;
},
{
associatedMasterId = m003;
background = {
shapes = (
{
closed = 1;
nodes = (
(200,83,o),
(113,-8,o),
(67,-8,cs),
(3,-8,o),
(-18,54,o),
(15,141,cs),
(38,202,o),
(65,270,o),
(82,315,cs),
(109,387,o),
(115,438,o),
(96,438,cs),
(72,438,o),
(29,373,o),
(-8,282,c),
(-38,282,l),
(15,414,o),
(95,508,o),
(155,508,cs),
(199,508,o),
(206,445,o),
(173,357,cs),
(136,259,o),
(109,190,o),
(109,192,cs),
(83,118,o),
(83,66,o),
(110,66,cs),
(145,66,o),
(215,145,o),
(277,257,c),
(277,212,l)
);
},
{
closed = 1;
nodes = (
(442,500,l),
(402,401,o),
(351,268,o),
(319,177,cs),
(292,105,o),
(287,54,o),
(307,54,cs),
(330,54,o),
(371,119,o),
(406,210,c),
(436,210,l),
(387,82,o),
(309,-8,o),
(248,-8,cs),
(205,-8,o),
(196,51,o),
(227,135,cs),
(196,52,o),
(273,250,o),
(367,500,c)
);
}
);
};
layerId = "90AB4BE1-A270-4CBB-8974-CA3C0A24FD98";
name = "8. Nov. 24, 10:52";
shapes = (
{
closed = 1;
nodes = (
(376,417,l),
(343,441,o),
(313,452,o),
(286,452,cs),
(209,452,o),
(152,362,o),
(103,205,cs),
(89,162,o),
(82,126,o),
(82,101,cs),
(82,79,o),
(101,56,o),
(112,56,cs),
(166,56,o),
(230,120,o),
(286,197,c),
(293,190,l),
(221,73,o),
(135,-10,o),
(86,-10,cs),
(16,-10,o),
(-13,57,o),
(16,152,cs),
(80,361,o),
(220,508,o),
(354,508,cs),
(372,508,o),
(401,495,o),
(424,476,c)
);
},
{
closed = 1;
nodes = (
(460,508,l),
(424,421,o),
(372,284,o),
(334,177,cs),
(307,105,o),
(302,54,o),
(322,54,cs),
(345,54,o),
(386,119,o),
(421,210,c),
(451,210,l),
(402,82,o),
(324,-8,o),
(263,-8,cs),
(220,-8,o),
(211,51,o),
(242,135,cs),
(211,52,o),
(288,250,o),
(382,500,c)
);
},
{
closed = 1;
nodes = (
(89,-10,o),
(183,73,o),
(293,190,c),
(276,208,l),
(195,125,o),
(126,66,o),
(109,66,cs),
(83,66,o),
(82,115,o),
(107,184,cs),
(166,346,o),
(257,460,o),
(326,460,cs),
(335,460,o),
(359,446,o),
(386,427,c),
(424,476,l),
(400,495,o),
(371,508,o),
(354,508,cs),
(232,508,o),
(91,361,o),
(15,152,cs),
(-19,57,o),
(2,-10,o),
(66,-10,cs)
);
}
);
width = 467;
},
{
anchors = (
{
name = bottom;
pos = (168,0);
},
{
name = ogonek;
pos = (358,10);
},
{
name = top;
pos = (300,435);
}
);
layerId = m01;
shapes = (
{
closed = 1;
nodes = (
(122,-8,o),
(207,53,o),
(288,140,c),
(271,176,l),
(212,116,o),
(151,74,o),
(124,74,cs),
(96,74,o),
(102,128,o),
(138,229,cs),
(190,370,o),
(270,453,o),
(331,453,cs),
(342,453,o),
(363,456,o),
(381,437,c),
(419,476,l),
(403,495,o),
(378,508,o),
(359,508,cs),
(245,508,o),
(117,379,o),
(50,197,cs),
(7,77,o),
(20,-8,o),
(82,-8,cs)
);
},
{
closed = 1;
nodes = (
(329,-8,o),
(407,82,o),
(456,210,c),
(426,228,l),
(391,137,o),
(350,72,o),
(327,72,cs),
(307,72,o),
(312,105,o),
(339,177,cs),
(377,284,o),
(429,421,o),
(465,508,c),
(387,500,l),
(293,250,o),
(216,52,o),
(247,135,c),
(216,51,o),
(225,-8,o),
(268,-8,cs)
);
}
);
width = 468;
},
{
anchors = (
{
name = bottom;
pos = (149,0);
},
{
name = ogonek;
pos = (323,10);
},
{
name = top;
pos = (281,435);
}
);
layerId = "F2DFA844-ADB6-4558-8504-1E1502925A9B";
shapes = (
{
closed = 1;
nodes = (
(103,-8,o),
(188,53,o),
(269,140,c),
(252,148,l),
(193,88,o),
(132,46,o),
(105,46,cs),
(77,46,o),
(83,128,o),
(119,229,cs),
(171,370,o),
(251,480,o),
(312,480,cs),
(323,480,o),
(344,456,o),
(362,437,c),
(400,476,l),
(384,495,o),
(359,508,o),
(340,508,cs),
(226,508,o),
(98,379,o),
(31,197,cs),
(-12,77,o),
(1,-8,o),
(63,-8,cs)
);
},
{
closed = 1;
nodes = (
(310,-8,o),
(388,82,o),
(437,210,c),
(407,200,l),
(372,109,o),
(331,44,o),
(308,44,cs),
(288,44,o),
(293,105,o),
(320,177,cs),
(358,284,o),
(410,421,o),
(446,508,c),
(368,500,l),
(274,250,o),
(197,52,o),
(228,135,c),
(197,51,o),
(206,-8,o),
(249,-8,cs)
);
}
);
width = 429;
}
);
metricWidth = o;
unicode = 97;
},
{
glyphname = b;
lastChange = "2024-11-11 18:59:14 +0000";
layers = (
{
background = {
shapes = (
{
closed = 1;
nodes = (
(38,0,l),
(288,700,l),
(213,700,l),
(-39,0,l)
);
},
{
closed = 1;
nodes = (
(89,672,l),
(143,675,o),
(189,659,o),
(200,634,c),
(213,700,l),
(99,700,l)
);
},
{
closed = 1;
nodes = (
(176,349,o),
(247,434,o),
(286,434,cs),
(363,434,o),
(357,305,o),
(298,152,cs),
(273,87,o),
(250,54,o),
(235,54,cs),
(191,54,o),
(244,129,o),
(200,129,cs),
(177,129,o),
(147,115,o),
(140,95,cs),
(116,35,o),
(136,-8,o),
(175,-8,cs),
(243,-8,o),
(323,85,o),
(375,217,c),
(437,387,o),
(429,508,o),
(348,508,cs),
(285,508,o),
(179,399,o),
(92,246,c),
(115,228,l)
);
},
{
closed = 0;
nodes = (
(-59,-200,l),
(286,700,l)
);
},
{
closed = 0;
nodes = (
(16,-200,l),
(361,700,l)
);
},
{
closed = 0;
nodes = (
(156,-200,l),
(501,700,l)
);
},
{
closed = 0;
nodes = (
(231,-200,l),
(576,700,l)
);
},
{
closed = 0;
nodes = (
(-164,-200,l),
(181,700,l)
);
},
{
closed = 0;
nodes = (
(-134,-200,l),
(211,700,l)
);
},
{
closed = 0;
nodes = (
(306,-200,l),
(651,700,l)
);
},
{
closed = 0;
nodes = (
(336,-200,l),
(681,700,l)
);
}
);
};
layerId = m002;
shapes = (
{
closed = 1;
nodes = (
(229,-8,o),
(353,116,o),
(417,291,cs),
(463,418,o),
(443,508,o),
(369,508,cs),
(303,508,o),
(192,383,o),
(101,207,c),
(130,179,l),
(196,322,o),
(272,424,o),
(312,424,cs),
(365,424,o),
(369,351,o),
(328,234,cs),
(290,127,o),
(228,52,o),
(179,52,cs),
(127,52,o),
(93,86,o),
(90,133,c),
(23,41,l),
(58,12,o),
(97,-8,o),
(118,-8,cs)
);
},
{
closed = 1;
nodes = (
(112,79,o),
(257,572,o),
(300,700,c),
(225,700,l),
(23,41,l),
(92,18,l)
);
},
{
closed = 1;
nodes = (
(225,700,l),
(111,700,l),
(103,662,l),
(157,665,o),
(205,649,o),
(216,624,c)
);
}
);
width = 466;
},
{
background = {
shapes = (
{
closed = 1;
nodes = (
(38,0,l),
(288,700,l),
(213,700,l),
(-39,0,l)
);
},
{
closed = 1;
nodes = (
(89,672,l),
(143,675,o),
(189,659,o),
(200,634,c),
(213,700,l),
(99,700,l)
);
},
{
closed = 1;
nodes = (
(176,349,o),
(247,434,o),
(286,434,cs),
(363,434,o),
(357,305,o),
(298,152,cs),
(273,87,o),
(250,54,o),
(235,54,cs),
(191,54,o),
(244,129,o),
(200,129,cs),
(177,129,o),
(147,115,o),
(140,95,cs),
(116,35,o),
(136,-8,o),
(175,-8,cs),
(243,-8,o),
(323,85,o),
(375,217,c),
(437,387,o),
(429,508,o),
(348,508,cs),
(285,508,o),
(179,399,o),
(92,246,c),
(115,228,l)
);
},
{
closed = 0;
nodes = (
(-59,-200,l),
(286,700,l)
);
},
{
closed = 0;
nodes = (
(16,-200,l),
(361,700,l)
);
},
{
closed = 0;
nodes = (
(156,-200,l),
(501,700,l)
);
},
{
closed = 0;
nodes = (
(231,-200,l),
(576,700,l)
);
},
{
closed = 0;
nodes = (
(-164,-200,l),
(181,700,l)
);
},
{
closed = 0;
nodes = (
(-134,-200,l),
(211,700,l)
);
},
{
closed = 0;
nodes = (
(306,-200,l),
(651,700,l)
);
},
{
closed = 0;
nodes = (
(336,-200,l),
(681,700,l)
);
}
);
};
layerId = m003;
shapes = (
{
closed = 1;
nodes = (
(222,-8,o),
(346,116,o),
(410,291,cs),
(456,418,o),
(436,508,o),
(362,508,cs),
(296,508,o),
(185,383,o),
(94,207,c),
(123,189,l),
(189,332,o),
(265,434,o),
(305,434,cs),
(358,434,o),
(367,351,o),
(326,234,cs),
(288,127,o),
(226,52,o),
(177,52,cs),
(125,52,o),
(86,86,o),
(83,133,c),
(16,41,l),
(51,12,o),
(90,-8,o),
(111,-8,cs)
);
},
{
closed = 1;
nodes = (
(105,79,o),
(250,572,o),
(293,700,c),
(218,700,l),
(16,41,l),
(85,18,l)
);
},
{
closed = 1;
nodes = (
(218,700,l),
(104,700,l),
(96,672,l),
(150,675,o),
(198,659,o),
(209,634,c)
);
}
);
width = 452;
},
{
layerId = m01;
shapes = (
{
closed = 1;
nodes = (
(234,-8,o),
(358,116,o),
(422,291,cs),
(468,418,o),
(448,508,o),
(374,508,cs),
(308,508,o),
(197,383,o),
(106,207,c),
(135,172,l),
(201,315,o),
(277,417,o),
(317,417,cs),
(370,417,o),
(371,351,o),
(330,234,cs),
(292,127,o),
(230,52,o),
(181,52,cs),
(129,52,o),
(98,86,o),
(95,133,c),
(28,41,l),
(63,12,o),
(102,-8,o),
(123,-8,cs)
);
},
{
closed = 1;
nodes = (
(117,79,o),
(262,572,o),
(305,700,c),
(230,700,l),
(28,41,l),
(97,18,l)
);
},
{
closed = 1;
nodes = (
(230,700,l),
(116,700,l),
(108,655,l),
(162,658,o),
(210,642,o),
(221,617,c)
);
}
);
width = 477;
},
{
layerId = "F2DFA844-ADB6-4558-8504-1E1502925A9B";
shapes = (
{
closed = 1;
nodes = (
(215,-8,o),
(339,116,o),
(403,291,cs),
(449,418,o),
(429,508,o),
(355,508,cs),
(289,508,o),
(178,383,o),
(87,207,c),
(116,199,l),
(182,342,o),
(258,444,o),
(298,444,cs),
(351,444,o),
(365,351,o),
(324,234,cs),
(286,127,o),
(224,52,o),
(175,52,cs),
(123,52,o),
(79,86,o),
(76,133,c),
(9,41,l),
(44,12,o),
(83,-8,o),
(104,-8,cs)
);
},
{
closed = 1;
nodes = (
(98,79,o),
(243,572,o),
(286,700,c),
(211,700,l),
(9,41,l),
(78,18,l)
);
},
{
closed = 1;
nodes = (
(211,700,l),
(97,700,l),
(89,682,l),
(143,685,o),
(191,669,o),
(202,644,c)
);
}
);
width = 438;
}
);
metricLeft = l;
metricRight = o;
unicode = 98;
},
{
glyphname = c;
lastChange = "2024-11-11 18:59:14 +0000";
layers = (
{
background = {
shapes = (
{
closed = 0;
nodes = (
(251,479,ls),
(293,479,o),
(307,433,o),
(284,367,cs),
(279,354,o),
(282,344,o),
(291,344,cs),
(325,344,o),
(356,363,o),
(365,391,cs),
(389,459,o),
(350,507,o),
(272,507,cs)
);
}
);
};
layerId = m002;
shapes = (
{
closed = 1;
nodes = (
(217,-8,o),
(283,55,o),
(330,144,c),
(306,169,l),
(258,88,o),
(207,30,o),
(146,30,cs),
(90,30,o),
(97,136,o),
(158,300,cs),
(197,405,o),
(241,470,o),
(279,470,cs),
(324,470,o),
(339,432,o),
(314,363,cs),
(311,352,o),
(314,344,o),
(322,344,cs),
(357,344,o),
(388,364,o),
(397,393,cs),
(419,460,o),
(378,508,o),
(296,508,cs),
(203,508,o),
(110,409,o),
(58,270,cs),
(-3,107,o),
(26,-8,o),
(132,-8,cs)
);
}
);
width = 393;
},
{
background = {
shapes = (
{
closed = 0;
nodes = (
(251,479,ls),
(293,479,o),
(307,433,o),
(284,367,cs),
(279,354,o),
(282,344,o),
(291,344,cs),
(325,344,o),
(356,363,o),
(365,391,cs),
(389,459,o),
(350,507,o),
(272,507,cs)
);
}
);
};
layerId = m003;
shapes = (
{
closed = 1;
nodes = (
(210,-8,o),
(276,55,o),
(323,144,c),
(299,159,l),
(251,78,o),
(200,20,o),
(139,20,cs),
(83,20,o),
(90,136,o),
(151,300,cs),
(190,405,o),
(234,480,o),
(272,480,cs),
(317,480,o),
(332,432,o),
(307,363,cs),
(304,352,o),
(307,344,o),
(315,344,cs),
(350,344,o),
(381,364,o),
(390,393,cs),
(412,460,o),
(371,508,o),
(289,508,cs),
(196,508,o),
(103,409,o),
(51,270,cs),
(-10,107,o),
(19,-8,o),
(125,-8,cs)
);
}
);
width = 379;
},
{
layerId = m01;
shapes = (
{
closed = 1;
nodes = (
(222,-8,o),
(288,55,o),
(335,144,c),
(311,177,l),
(263,96,o),
(212,38,o),
(151,38,cs),
(95,38,o),
(102,136,o),
(163,300,cs),
(202,405,o),
(246,463,o),
(284,463,cs),
(329,463,o),
(344,432,o),
(319,363,cs),
(316,352,o),
(319,344,o),
(327,344,cs),
(362,344,o),
(393,364,o),
(402,393,cs),
(424,460,o),
(383,508,o),
(301,508,cs),
(208,508,o),
(115,409,o),
(63,270,cs),
(2,107,o),
(31,-8,o),
(137,-8,cs)
);
}
);
width = 404;
},
{
layerId = "F2DFA844-ADB6-4558-8504-1E1502925A9B";
shapes = (
{
closed = 1;
nodes = (
(203,-8,o),
(269,55,o),
(316,144,c),
(292,149,l),
(244,68,o),
(193,10,o),
(132,10,cs),
(76,10,o),
(83,136,o),
(144,300,cs),
(183,405,o),
(227,490,o),
(265,490,cs),
(310,490,o),
(325,432,o),
(300,363,cs),
(297,352,o),
(300,344,o),
(308,344,cs),
(343,344,o),
(374,364,o),
(383,393,cs),
(405,460,o),
(364,508,o),
(282,508,cs),
(189,508,o),
(96,409,o),
(44,270,cs),
(-17,107,o),
(12,-8,o),
(118,-8,cs)
);
}
);
width = 365;
}
);
metricLeft = o;
metricRight = o;
unicode = 99;
},
{
glyphname = d;
lastChange = "2024-11-11 18:59:14 +0000";
layers = (
{
background = {
shapes = (
{
closed = 1;
nodes = (
(111,-8,o),
(196,53,o),
(277,140,c),
(260,158,l),
(201,98,o),
(140,56,o),
(113,56,cs),
(85,56,o),
(91,128,o),
(127,229,cs),
(179,370,o),
(259,470,o),
(320,470,cs),
(331,470,o),
(352,456,o),
(370,437,c),
(408,476,l),
(392,495,o),
(367,508,o),
(348,508,cs),
(234,508,o),
(106,379,o),
(39,197,cs),
(-4,77,o),
(9,-8,o),
(71,-8,cs)
);
},
{
closed = 1;
nodes = (
(318,-8,o),
(396,82,o),
(445,210,c),
(415,210,l),
(380,119,o),
(339,54,o),
(316,54,cs),
(296,54,o),
(301,105,o),
(328,177,cs),
(366,284,o),
(418,421,o),
(454,508,c),
(376,500,l),
(282,250,o),
(205,52,o),
(236,135,c),
(205,51,o),
(214,-8,o),
(257,-8,cs)
);
}
);
};
layerId = m002;
shapes = (
{
closed = 1;
nodes = (
(123,-8,o),
(204,53,o),
(281,140,c),
(263,168,l),
(207,108,o),
(148,66,o),
(121,66,cs),
(93,66,o),
(95,128,o),
(126,229,cs),
(171,370,o),
(246,460,o),
(307,460,cs),
(318,460,o),
(339,456,o),
(358,437,c),
(394,476,l),
(377,495,o),
(352,508,o),
(333,508,cs),
(219,508,o),
(97,379,o),
(40,197,cs),
(3,77,o),
(21,-8,o),
(83,-8,cs)
);
},
{
closed = 1;
nodes = (
(340,-8,o),
(419,82,o),
(454,210,c),
(424,220,l),
(398,129,o),
(357,64,o),
(335,64,cs),
(315,64,o),
(316,109,o),
(341,185,cs),
(511,700,l),
(435,700,l),
(254,143,ls),
(225,56,o),
(235,-8,o),
(277,-8,cs)
);
},
{
closed = 1;
nodes = (
(435,700,l),
(321,700,l),
(315,662,l),
(370,665,o),
(418,649,o),
(430,624,c)
);
}
);
width = 457;
},
{
associatedMasterId = m002;
layerId = "04FBF142-B7E8-4618-86E4-5F9AAA1308FB";
name = "7. Nov. 24, 00:11";
shapes = (
{
closed = 1;
nodes = (
(98,-3,o),
(197,77,o),
(303,190,c),
(286,208,l),
(216,136,o),
(150,85,o),
(127,85,cs),
(108,85,o),
(107,127,o),
(125,186,cs),
(175,348,o),
(261,463,o),
(334,463,cs),
(348,463,o),
(373,451,o),
(396,435,c),
(434,484,l),
(412,501,o),
(382,513,o),
(362,513,cs),
(230,513,o),
(91,363,o),
(26,152,cs),
(-2,61,o),
(14,-3,o),
(63,-3,cs)
);
},
{
closed = 1;
nodes = (
(326,-6,o),
(410,88,o),
(463,220,c),
(433,220,l),
(402,142,o),
(359,87,o),
(330,87,cs),
(318,87,o),
(325,128,o),
(347,187,cs),
(369,248,o),
(481,573,o),
(531,701,c),
(456,701,l),
(255,145,l),
(222,57,o),
(225,-6,o),
(262,-6,cs)
);
},
{
closed = 1;
nodes = (
(336,648,l),
(391,651,o),
(437,635,o),
(447,610,c),
(456,701,l),
(342,702,l)
);
}
);
width = 463;
},
{
background = {
shapes = (
{
closed = 1;
nodes = (
(111,-8,o),
(196,53,o),
(277,140,c),
(260,158,l),
(201,98,o),
(140,56,o),
(113,56,cs),
(85,56,o),
(91,128,o),
(127,229,cs),
(179,370,o),
(259,470,o),
(320,470,cs),
(331,470,o),
(352,456,o),
(370,437,c),
(408,476,l),
(392,495,o),
(367,508,o),
(348,508,cs),
(234,508,o),
(106,379,o),
(39,197,cs),
(-4,77,o),
(9,-8,o),
(71,-8,cs)
);
},
{
closed = 1;
nodes = (
(318,-8,o),
(396,82,o),
(445,210,c),
(415,210,l),
(380,119,o),
(339,54,o),
(316,54,cs),
(296,54,o),
(301,105,o),
(328,177,cs),
(366,284,o),
(418,421,o),
(454,508,c),
(376,500,l),
(282,250,o),
(205,52,o),
(236,135,c),
(205,51,o),
(214,-8,o),
(257,-8,cs)
);
}
);
};
layerId = m003;
shapes = (
{
closed = 1;
nodes = (
(116,-8,o),
(197,53,o),
(274,140,c),
(256,158,l),
(200,98,o),
(141,56,o),
(114,56,cs),
(86,56,o),
(88,128,o),
(119,229,cs),
(164,370,o),
(239,470,o),
(300,470,cs),
(311,470,o),
(332,456,o),
(351,437,c),
(387,476,l),
(370,495,o),
(345,508,o),
(326,508,cs),
(212,508,o),
(90,379,o),
(33,197,cs),
(-4,77,o),
(14,-8,o),
(76,-8,cs)
);
},
{
closed = 1;
nodes = (
(333,-8,o),
(412,82,o),
(447,210,c),
(417,210,l),
(391,119,o),
(350,54,o),
(328,54,cs),
(308,54,o),
(309,109,o),
(334,185,cs),
(504,700,l),
(428,700,l),
(247,143,ls),
(218,56,o),
(228,-8,o),
(270,-8,cs)
);
},
{
closed = 1;
nodes = (
(428,700,l),
(314,700,l),
(308,672,l),
(363,675,o),
(411,659,o),
(423,634,c)
);
}
);
width = 443;
},
{
associatedMasterId = m003;
layerId = "993377BE-703F-43F0-9103-9C55914F64D0";
name = "7. Nov. 24, 00:11";
shapes = (
{
closed = 1;
nodes = (
(98,-3,o),
(197,77,o),
(303,190,c),
(286,208,l),
(216,136,o),
(150,85,o),
(127,85,cs),
(108,85,o),
(107,127,o),
(125,186,cs),
(175,348,o),
(261,463,o),
(334,463,cs),
(348,463,o),
(373,451,o),
(396,435,c),
(434,484,l),
(412,501,o),
(382,513,o),
(362,513,cs),
(230,513,o),
(91,363,o),
(26,152,cs),
(-2,61,o),
(14,-3,o),
(63,-3,cs)
);
},
{
closed = 1;
nodes = (
(326,-6,o),
(410,88,o),
(463,220,c),
(433,220,l),
(402,142,o),
(359,87,o),
(330,87,cs),
(318,87,o),
(325,128,o),
(347,187,cs),
(369,248,o),
(481,573,o),
(531,701,c),
(456,701,l),
(255,145,l),
(222,57,o),
(225,-6,o),
(262,-6,cs)
);
},
{
closed = 1;
nodes = (
(336,648,l),
(391,651,o),
(437,635,o),
(447,610,c),
(456,701,l),
(342,702,l)
);
}
);
width = 463;
},
{
layerId = m01;
shapes = (
{
closed = 1;
nodes = (
(128,-8,o),
(209,53,o),
(286,140,c),
(268,176,l),
(212,116,o),
(153,74,o),
(126,74,cs),
(98,74,o),
(100,128,o),
(131,229,cs),
(176,370,o),
(251,453,o),
(312,453,cs),
(323,453,o),
(344,456,o),
(363,437,c),
(399,476,l),
(382,495,o),
(357,508,o),
(338,508,cs),
(224,508,o),
(102,379,o),
(45,197,cs),
(8,77,o),
(26,-8,o),
(88,-8,cs)
);
},
{
closed = 1;
nodes = (
(345,-8,o),
(424,82,o),
(459,210,c),
(429,228,l),
(403,137,o),
(362,72,o),
(340,72,cs),
(320,72,o),
(321,109,o),
(346,185,cs),
(516,700,l),
(440,700,l),
(259,143,ls),
(230,56,o),
(240,-8,o),
(282,-8,cs)
);
},
{
closed = 1;
nodes = (
(440,700,l),
(326,700,l),
(320,655,l),
(375,658,o),
(423,642,o),
(435,617,c)
);
}
);
width = 468;
},
{
layerId = "F2DFA844-ADB6-4558-8504-1E1502925A9B";
shapes = (
{
closed = 1;
nodes = (
(109,-8,o),
(190,53,o),
(267,140,c),
(249,148,l),
(193,88,o),
(134,46,o),
(107,46,cs),
(79,46,o),
(81,128,o),
(112,229,cs),
(157,370,o),
(232,480,o),
(293,480,cs),
(304,480,o),
(325,456,o),
(344,437,c),
(380,476,l),
(363,495,o),
(338,508,o),
(319,508,cs),
(205,508,o),
(83,379,o),
(26,197,cs),
(-11,77,o),
(7,-8,o),
(69,-8,cs)
);
},
{
closed = 1;
nodes = (
(326,-8,o),
(405,82,o),
(440,210,c),
(410,200,l),
(384,109,o),
(343,44,o),
(321,44,cs),
(301,44,o),
(302,109,o),
(327,185,cs),
(497,700,l),
(421,700,l),
(240,143,ls),
(211,56,o),
(221,-8,o),
(263,-8,cs)
);
},
{
closed = 1;
nodes = (
(421,700,l),
(307,700,l),
(301,682,l),
(356,685,o),
(404,669,o),
(416,644,c)
);
}
);
width = 429;
}
);
metricWidth = a;
unicode = 100;
},
{
glyphname = e;
lastChange = "2024-11-11 19:15:15 +0000";
layers = (
{
background = {
shapes = (
{
closed = 1;
nodes = (
(207,-8,o),
(305,86,o),
(356,220,cs),
(420,389,o),
(380,508,o),
(260,508,cs),
(171,508,o),
(71,410,o),
(19,272,cs),
(-42,108,o),
(-1,-8,o),
(118,-8,cs)
);
},
{
closed = 1;
nodes = (
(60,20,o),
(56,137,o),
(118,302,cs),
(157,406,o),
(212,480,o),
(250,480,cs),
(318,480,o),
(321,360,o),
(257,190,cs),
(219,90,o),
(166,20,o),
(129,20,cs)
);
}
);
};
layerId = m002;
shapes = (
{
closed = 1;
nodes = (
(203,-8,o),
(283,55,o),
(332,144,c),
(308,169,l),
(259,88,o),
(195,30,o),
(153,30,cs),
(97,30,o),
(92,128,o),
(147,280,cs),
(189,397,o),
(247,470,o),
(281,470,cs),
(307,470,o),
(308,431,o),
(284,361,cs),
(263,302,o),
(196,261,o),
(121,261,c),
(94,202,l),
(235,231,o),
(355,310,o),
(384,391,cs),
(408,460,o),
(371,508,o),
(296,508,cs),
(206,508,o),
(105,401,o),
(52,250,cs),
(-1,99,o),
(35,-8,o),
(138,-8,cs)
);
}
);
width = 394;
},
{
background = {
shapes = (
{
closed = 1;
nodes = (
(207,-8,o),
(305,86,o),
(356,220,cs),
(420,389,o),
(380,508,o),
(260,508,cs),
(171,508,o),
(71,410,o),
(19,272,cs),
(-42,108,o),
(-1,-8,o),
(118,-8,cs)
);
},
{
closed = 1;
nodes = (
(60,20,o),
(56,137,o),
(118,302,cs),
(157,406,o),
(212,480,o),
(250,480,cs),
(318,480,o),
(321,360,o),
(257,190,cs),
(219,90,o),
(166,20,o),
(129,20,cs)
);
}
);
};
layerId = m003;
shapes = (
{
closed = 1;
nodes = (
(196,-8,o),
(276,55,o),
(325,144,c),
(301,159,l),
(252,78,o),
(188,20,o),
(146,20,cs),
(90,20,o),
(85,128,o),
(140,280,cs),
(182,397,o),
(240,480,o),
(274,480,cs),
(300,480,o),
(301,431,o),
(277,361,cs),
(256,302,o),
(189,261,o),
(114,261,c),
(87,202,l),
(228,231,o),
(348,310,o),
(377,391,cs),
(401,460,o),
(364,508,o),
(289,508,cs),
(199,508,o),
(98,401,o),
(45,250,cs),
(-8,99,o),
(28,-8,o),
(131,-8,cs)
);
}
);
width = 380;
},
{
layerId = m01;
shapes = (
{
closed = 1;
nodes = (
(208,-8,o),
(288,55,o),
(337,144,c),
(313,177,l),
(264,96,o),
(200,38,o),
(158,38,cs),
(102,38,o),
(97,128,o),
(152,280,cs),
(194,397,o),
(252,463,o),
(286,463,cs),
(312,463,o),
(313,431,o),
(289,361,cs),
(268,302,o),
(201,261,o),
(126,261,c),
(99,202,l),
(240,231,o),
(360,310,o),
(389,391,cs),
(413,460,o),
(376,508,o),
(301,508,cs),
(211,508,o),
(110,401,o),
(57,250,cs),
(4,99,o),
(40,-8,o),
(143,-8,cs)
);
}
);
width = 405;
},
{
layerId = "F2DFA844-ADB6-4558-8504-1E1502925A9B";
shapes = (
{
closed = 1;
nodes = (
(189,-8,o),
(269,55,o),
(318,144,c),
(294,149,l),
(245,68,o),
(181,10,o),
(139,10,cs),
(83,10,o),
(78,128,o),
(133,280,cs),
(175,397,o),
(233,490,o),
(267,490,cs),
(293,490,o),
(294,431,o),
(270,361,cs),
(249,302,o),
(182,261,o),
(107,261,c),
(80,202,l),
(221,231,o),
(341,310,o),
(370,391,cs),
(394,460,o),
(357,508,o),
(282,508,cs),
(192,508,o),
(91,401,o),
(38,250,cs),
(-15,99,o),
(21,-8,o),
(124,-8,cs)
);
}
);
width = 366;
}
);
metricLeft = o;
metricRight = o;
unicode = 101;
},
{
glyphname = f;
lastChange = "2024-11-11 18:59:14 +0000";
layers = (
{
background = {
shapes = (
{
closed = 1;
nodes = (
(-25,-210,o),
(75,-45,o),
(116,89,cs),
(122,109,o),
(219,459,o),
(255,577,cs),
(272,630,o),
(305,678,o),
(325,678,cs),
(381,678,o),
(407,649,o),
(394,608,c),
(469,614,l),
(489,680,o),
(453,726,o),
(383,726,cs),
(290,726,o),
(196,636,o),
(157,509,cs),
(130,421,o),
(15,14,o),
(5,-19,cs),
(-19,-97,o),
(-46,-153,o),
(-61,-153,cs),
(-94,-153,o),
(-111,-132,o),
(-102,-102,c),
(-167,-99,l),
(-187,-164,o),
(-158,-210,o),
(-96,-210,cs)
);
},
{
closed = 1;
nodes = (
(297,408,l),
(310,450,l),
(46,450,l),
(33,408,l)
);
}
);
};
layerId = m002;
shapes = (
{
closed = 1;
nodes = (
(52,-208,o),
(134,-63,o),
(171,142,cs),
(236,507,ls),
(254,608,o),
(293,670,o),
(330,670,cs),
(362,670,o),
(373,639,o),
(358,581,cs),
(354,568,o),
(358,558,o),
(368,558,cs),
(401,558,o),
(430,578,o),
(437,606,cs),
(451,663,o),
(413,703,o),
(345,703,cs),
(256,703,o),
(177,616,o),
(155,493,cs),
(90,128,ls),
(56,-58,o),
(13,-175,o),
(2,-175,cs),
(-30,-175,o),
(-41,-144,o),
(-26,-86,cs),
(-22,-73,o),
(-26,-63,o),
(-36,-63,cs),
(-69,-63,o),
(-98,-83,o),
(-105,-111,cs),
(-119,-168,o),
(-81,-208,o),
(-13,-208,cs)
);
},
{
closed = 1;
nodes = (
(330,408,l),
(343,450,l),
(79,450,l),
(66,408,l)
);
}
);
width = 312;
},
{
background = {
shapes = (
{
closed = 1;
nodes = (
(-25,-210,o),
(75,-45,o),
(116,89,cs),
(122,109,o),
(219,459,o),
(255,577,cs),
(272,630,o),
(305,678,o),
(325,678,cs),
(381,678,o),
(407,649,o),
(394,608,c),
(469,614,l),
(489,680,o),
(453,726,o),
(383,726,cs),
(290,726,o),
(196,636,o),
(157,509,cs),
(130,421,o),
(15,14,o),
(5,-19,cs),
(-19,-97,o),
(-46,-153,o),
(-61,-153,cs),
(-94,-153,o),
(-111,-132,o),
(-102,-102,c),
(-167,-99,l),
(-187,-164,o),
(-158,-210,o),
(-96,-210,cs)
);
},
{
closed = 1;
nodes = (
(297,408,l),
(310,450,l),
(46,450,l),
(33,408,l)
);
}
);
};
layerId = m003;
shapes = (
{
closed = 1;
nodes = (
(45,-208,o),
(127,-63,o),
(164,142,cs),
(229,507,ls),
(247,608,o),
(286,680,o),
(323,680,cs),
(355,680,o),
(366,639,o),
(351,581,cs),
(347,568,o),
(351,558,o),
(361,558,cs),
(394,558,o),
(423,578,o),
(430,606,cs),
(444,663,o),
(406,703,o),
(338,703,cs),
(249,703,o),
(170,616,o),
(148,493,cs),
(83,128,ls),
(49,-58,o),
(6,-185,o),
(-5,-185,cs),
(-37,-185,o),
(-48,-144,o),
(-33,-86,cs),
(-29,-73,o),
(-33,-63,o),
(-43,-63,cs),
(-76,-63,o),
(-105,-83,o),
(-112,-111,cs),
(-126,-168,o),
(-88,-208,o),
(-20,-208,cs)
);
},
{
closed = 1;
nodes = (
(323,408,l),
(336,450,l),
(72,450,l),
(59,408,l)
);
}
);
width = 298;
},
{
layerId = m01;
shapes = (
{
closed = 1;
nodes = (
(57,-208,o),
(139,-63,o),
(176,142,cs),
(241,507,ls),
(259,608,o),
(298,663,o),
(335,663,cs),
(367,663,o),
(378,639,o),
(363,581,cs),
(359,568,o),
(363,558,o),
(373,558,cs),
(406,558,o),
(435,578,o),
(442,606,cs),
(456,663,o),
(418,703,o),
(350,703,cs),
(261,703,o),
(182,616,o),
(160,493,cs),
(95,128,ls),
(61,-58,o),
(18,-167,o),
(7,-167,cs),
(-25,-167,o),
(-36,-144,o),
(-21,-86,cs),
(-17,-73,o),
(-21,-63,o),
(-31,-63,cs),
(-64,-63,o),
(-93,-83,o),
(-100,-111,cs),
(-114,-168,o),
(-76,-208,o),
(-8,-208,cs)
);
},
{
closed = 1;
nodes = (
(335,408,l),
(348,450,l),
(84,450,l),
(71,408,l)
);
}
);
width = 323;
},
{
layerId = "F2DFA844-ADB6-4558-8504-1E1502925A9B";
shapes = (
{
closed = 1;
nodes = (
(38,-208,o),
(120,-63,o),
(157,142,cs),
(222,507,ls),
(240,608,o),
(279,690,o),
(316,690,cs),
(348,690,o),
(359,639,o),
(344,581,cs),
(340,568,o),
(344,558,o),
(354,558,cs),
(387,558,o),
(416,578,o),
(423,606,cs),
(437,663,o),
(399,703,o),
(331,703,cs),
(242,703,o),
(163,616,o),
(141,493,cs),
(76,128,ls),
(42,-58,o),
(-1,-195,o),
(-12,-195,cs),
(-44,-195,o),
(-55,-144,o),
(-40,-86,cs),
(-36,-73,o),
(-40,-63,o),
(-50,-63,cs),
(-83,-63,o),
(-112,-83,o),
(-119,-111,cs),
(-133,-168,o),
(-95,-208,o),
(-27,-208,cs)
);
},
{
closed = 1;
nodes = (
(316,408,l),
(329,450,l),
(65,450,l),
(52,408,l)
);
}
);
width = 284;
}
);
metricWidth = l;
unicode = 102;
},
{
glyphname = g;
lastChange = "2024-11-11 18:59:14 +0000";
layers = (
{
background = {
shapes = (
{
closed = 0;
nodes = (
(-50,-200,l),
(295,700,l)
);
},
{
closed = 0;
nodes = (
(25,-200,l),
(370,700,l)
);
},
{
closed = 0;
nodes = (
(165,-200,l),
(510,700,l)
);
},
{
closed = 0;
nodes = (
(240,-200,l),
(585,700,l)
);
},
{
closed = 0;
nodes = (
(-155,-200,l),
(190,700,l)
);
},
{
closed = 0;
nodes = (
(-125,-200,l),
(220,700,l)
);
},
{
closed = 0;
nodes = (
(315,-200,l),
(660,700,l)
);
},
{
closed = 0;
nodes = (
(345,-200,l),
(690,700,l)
);
}
);
};
layerId = m002;
shapes = (
{
closed = 1;
nodes = (
(254,-208,o),
(366,-152,o),
(398,-72,cs),
(415,-30,o),
(376,18,o),
(304,44,cs),
(213,77,o),
(164,114,o),
(171,134,cs),
(181,159,o),
(204,179,o),
(226,182,c),
(182,191,l),
(148,176,o),
(116,143,o),
(105,111,cs),
(91,71,o),
(110,32,o),
(152,17,cs),
(261,-22,o),
(330,-70,o),
(320,-98,cs),
(305,-139,o),
(246,-162,o),
(179,-167,cs),
(52,-175,o),
(-16,-135,o),
(15,-57,cs),
(36,-2,o),
(93,45,o),
(152,56,c),
(134,78,l),
(36,56,o),
(-51,-6,o),
(-75,-73,cs),
(-103,-152,o),
(-19,-208,o),
(127,-208,cs)
);
},
{
closed = 1;
nodes = (
(276,163,o),
(356,223,o),
(387,307,cs),
(431,424,o),
(406,507,o),
(327,507,cs),
(238,507,o),
(150,442,o),
(116,351,cs),
(74,241,o),
(107,163,o),
(195,163,cs)
);
},
{
closed = 1;
nodes = (
(163,201,o),
(160,264,o),
(199,367,cs),
(224,432,o),
(272,468,o),
(315,468,cs),
(349,468,o),
(344,401,o),
(302,292,cs),
(280,233,o),
(240,201,o),
(206,201,cs)
);
},
{
closed = 1;
nodes = (
(395,408,o),
(430,461,o),
(440,461,c),
(452,461,o),
(464,454,o),
(469,445,c),
(508,482,l),
(503,497,o),
(479,508,o),
(450,508,cs),
(425,508,o),
(377,444,o),
(335,353,c),
(354,334,l)
);
}
);
width = 470;
},
{
associatedMasterId = m002;
background = {
shapes = (
{
closed = 0;
nodes = (
(-67,-200,l),
(278,700,l)
);
},
{
closed = 0;
nodes = (
(8,-200,l),
(353,700,l)
);
},
{
closed = 0;
nodes = (
(148,-200,l),
(493,700,l)
);
},
{
closed = 0;
nodes = (
(223,-200,l),
(568,700,l)
);
},
{
closed = 0;
nodes = (
(-172,-200,l),
(173,700,l)
);
},
{
closed = 0;
nodes = (
(-142,-200,l),
(203,700,l)
);
},
{
closed = 0;
nodes = (
(298,-200,l),
(643,700,l)
);
},
{
closed = 0;
nodes = (
(328,-200,l),
(673,700,l)
);
}
);
};
layerId = "4BB885E4-6F86-470F-8104-31D1CADBC558";
name = "6. Nov. 24, 23:26";
shapes = (
{
closed = 1;
nodes = (
(199,-248,o),
(311,-189,o),
(339,-100,cs),
(353,-51,o),
(314,-3,o),
(245,16,cs),
(162,38,o),
(104,68,o),
(104,88,cs),
(104,101,o),
(126,128,o),
(157,154,c),
(123,163,l),
(88,130,o),
(60,97,o),
(55,83,cs),
(39,39,o),
(55,0,o),
(93,-11,cs),
(202,-41,o),
(271,-89,o),
(261,-126,cs),
(250,-165,o),
(192,-196,o),
(120,-201,cs),
(-1,-209,o),
(-69,-161,o),
(-44,-85,cs),
(-31,-48,o),
(30,-6,o),
(103,18,c),
(81,45,l),
(-35,9,o),
(-124,-51,o),
(-134,-101,cs),
(-153,-191,o),
(-69,-249,o),
(68,-241,cs)
);
},
{
closed = 1;
nodes = (
(229,132,o),
(298,192,o),
(328,279,cs),
(367,399,o),
(333,482,o),
(244,479,cs),
(166,476,o),
(88,411,o),
(57,323,cs),
(16,206,o),
(58,128,o),
(160,135,cs)
);
},
{
closed = 1;
nodes = (
(125,182,o),
(111,246,o),
(140,339,cs),
(157,394,o),
(188,434,o),
(216,435,cs),
(263,437,o),
(274,366,o),
(243,264,cs),
(228,215,o),
(199,182,o),
(171,184,cs)
);
},
{
closed = 1;
nodes = (
(337,397,o),
(345,432,o),
(367,434,cs),
(384,435,o),
(430,405,o),
(441,389,c),
(470,411,l),
(463,454,o),
(444,484,o),
(424,484,cs),
(378,484,o),
(323,451,o),
(292,404,c),
(310,377,l)
);
}
);
width = 414;
},
{
background = {
shapes = (
{
closed = 0;
nodes = (
(-50,-200,l),
(295,700,l)
);
},
{
closed = 0;
nodes = (
(25,-200,l),
(370,700,l)
);
},
{
closed = 0;
nodes = (
(165,-200,l),
(510,700,l)
);
},
{
closed = 0;
nodes = (
(240,-200,l),
(585,700,l)
);
},
{
closed = 0;
nodes = (
(-155,-200,l),
(190,700,l)
);
},
{
closed = 0;
nodes = (
(-125,-200,l),
(220,700,l)
);
},
{
closed = 0;
nodes = (
(315,-200,l),
(660,700,l)
);
},
{
closed = 0;
nodes = (
(345,-200,l),
(690,700,l)
);
}
);
};
layerId = m003;
shapes = (
{
closed = 1;
nodes = (
(247,-208,o),
(359,-152,o),
(391,-72,cs),
(408,-30,o),
(369,18,o),
(297,44,cs),
(206,77,o),
(147,114,o),
(154,134,cs),
(164,159,o),
(187,179,o),
(209,182,c),
(175,191,l),
(141,176,o),
(109,143,o),
(98,111,cs),
(84,71,o),
(103,32,o),
(145,17,cs),
(254,-22,o),
(323,-70,o),
(313,-98,cs),
(298,-139,o),
(239,-172,o),
(172,-177,cs),
(45,-185,o),
(-23,-135,o),
(8,-57,cs),
(29,-2,o),
(86,45,o),
(145,56,c),
(127,78,l),
(29,56,o),
(-58,-6,o),
(-82,-73,cs),
(-110,-152,o),
(-26,-208,o),
(120,-208,cs)
);
},
{
closed = 1;
nodes = (
(269,163,o),
(349,223,o),
(380,307,cs),
(424,424,o),
(399,507,o),
(320,507,cs),
(231,507,o),
(143,442,o),
(109,351,cs),
(67,241,o),
(100,163,o),
(188,163,cs)
);
},
{
closed = 1;
nodes = (
(156,191,o),
(153,264,o),
(192,367,cs),
(217,432,o),
(265,478,o),
(308,478,cs),
(342,478,o),
(337,401,o),
(295,292,cs),
(273,233,o),
(233,191,o),
(199,191,cs)
);
},
{
closed = 1;
nodes = (
(388,408,o),
(423,461,o),
(433,461,c),
(445,461,o),
(457,454,o),
(462,445,c),
(501,482,l),
(496,497,o),
(472,508,o),
(443,508,cs),
(418,508,o),
(370,444,o),
(328,353,c),
(347,334,l)
);
}
);
width = 456;
},
{
associatedMasterId = m003;
background = {
shapes = (
{
closed = 0;
nodes = (
(-67,-200,l),
(278,700,l)
);
},
{
closed = 0;
nodes = (
(8,-200,l),
(353,700,l)
);
},
{
closed = 0;
nodes = (
(148,-200,l),
(493,700,l)
);
},
{
closed = 0;
nodes = (
(223,-200,l),
(568,700,l)
);
},
{
closed = 0;
nodes = (
(-172,-200,l),
(173,700,l)
);
},
{
closed = 0;
nodes = (
(-142,-200,l),
(203,700,l)
);
},
{
closed = 0;
nodes = (
(298,-200,l),
(643,700,l)
);
},
{
closed = 0;
nodes = (
(328,-200,l),
(673,700,l)
);
}
);
};
layerId = "CD19AF2B-D444-4E18-A45E-DA9D7905EDAB";
name = "6. Nov. 24, 23:26";
shapes = (
{
closed = 1;
nodes = (
(199,-248,o),
(311,-189,o),
(339,-100,cs),
(353,-51,o),
(314,-3,o),
(245,16,cs),
(162,38,o),
(104,68,o),
(104,88,cs),
(104,101,o),
(126,128,o),
(157,154,c),
(123,163,l),
(88,130,o),
(60,97,o),
(55,83,cs),
(39,39,o),
(55,0,o),
(93,-11,cs),
(202,-41,o),
(271,-89,o),
(261,-126,cs),
(250,-165,o),
(192,-196,o),
(120,-201,cs),
(-1,-209,o),
(-69,-161,o),
(-44,-85,cs),
(-31,-48,o),
(30,-6,o),
(103,18,c),
(81,45,l),
(-35,9,o),
(-124,-51,o),
(-134,-101,cs),
(-153,-191,o),
(-69,-249,o),
(68,-241,cs)
);
},
{
closed = 1;
nodes = (
(229,132,o),
(298,192,o),
(328,279,cs),
(367,399,o),
(333,482,o),
(244,479,cs),
(166,476,o),
(88,411,o),
(57,323,cs),
(16,206,o),
(58,128,o),
(160,135,cs)
);
},
{
closed = 1;
nodes = (
(125,182,o),
(111,246,o),
(140,339,cs),
(157,394,o),
(188,434,o),
(216,435,cs),
(263,437,o),
(274,366,o),
(243,264,cs),
(228,215,o),
(199,182,o),
(171,184,cs)
);
},
{
closed = 1;
nodes = (
(337,397,o),
(345,432,o),
(367,434,cs),
(384,435,o),
(430,405,o),
(441,389,c),
(470,411,l),
(463,454,o),
(444,484,o),
(424,484,cs),
(378,484,o),
(323,451,o),
(292,404,c),
(310,377,l)
);
}
);
width = 414;
},
{
layerId = m01;
shapes = (
{
closed = 1;
nodes = (
(259,-208,o),
(371,-152,o),
(403,-72,cs),
(420,-30,o),
(381,18,o),
(309,44,cs),
(218,77,o),
(177,114,o),
(184,134,cs),
(194,159,o),
(217,179,o),
(239,182,c),
(187,191,l),
(153,176,o),
(121,143,o),
(110,111,cs),
(96,71,o),
(115,32,o),
(157,17,cs),
(266,-22,o),
(335,-70,o),
(325,-98,cs),
(310,-139,o),
(251,-154,o),
(184,-159,cs),
(57,-167,o),
(-11,-135,o),
(20,-57,cs),
(41,-2,o),
(98,45,o),
(157,56,c),
(139,78,l),
(41,56,o),
(-46,-6,o),
(-70,-73,cs),
(-98,-152,o),
(-14,-208,o),
(132,-208,cs)
);
},
{
closed = 1;
nodes = (
(281,163,o),
(361,223,o),
(392,307,cs),
(436,424,o),
(411,507,o),
(332,507,cs),
(243,507,o),
(155,442,o),
(121,351,cs),
(79,241,o),
(112,163,o),
(200,163,cs)
);
},
{
closed = 1;
nodes = (
(168,209,o),
(165,264,o),
(204,367,cs),
(229,432,o),
(277,461,o),
(320,461,cs),
(354,461,o),
(349,401,o),
(307,292,cs),
(285,233,o),
(245,209,o),
(211,209,cs)
);
},
{
closed = 1;
nodes = (
(400,408,o),
(435,461,o),
(445,461,cs),
(457,461,o),
(469,454,o),
(474,445,c),
(513,482,l),
(508,497,o),
(484,508,o),
(455,508,cs),
(430,508,o),
(382,444,o),
(340,353,c),
(359,334,l)
);
}
);
width = 481;
},
{
layerId = "F2DFA844-ADB6-4558-8504-1E1502925A9B";
shapes = (
{
closed = 1;
nodes = (
(240,-208,o),
(352,-152,o),
(384,-72,cs),
(401,-30,o),
(362,18,o),
(290,44,cs),
(199,77,o),
(130,114,o),
(137,134,cs),
(147,159,o),
(170,179,o),
(192,182,c),
(168,191,l),
(134,176,o),
(102,143,o),
(91,111,cs),
(77,71,o),
(96,32,o),
(138,17,cs),
(247,-22,o),
(316,-70,o),
(306,-98,cs),
(291,-139,o),
(232,-182,o),
(165,-187,cs),
(38,-195,o),
(-30,-135,o),
(1,-57,cs),
(22,-2,o),
(79,45,o),
(138,56,c),
(120,78,l),
(22,56,o),
(-65,-6,o),
(-89,-73,cs),
(-117,-152,o),
(-33,-208,o),
(113,-208,cs)
);
},
{
closed = 1;
nodes = (
(262,163,o),
(342,223,o),
(373,307,cs),
(417,424,o),
(392,507,o),
(313,507,cs),
(224,507,o),
(136,442,o),
(102,351,cs),
(60,241,o),
(93,163,o),
(181,163,cs)
);
},
{
closed = 1;
nodes = (
(149,181,o),
(146,264,o),
(185,367,cs),
(210,432,o),
(258,488,o),
(301,488,cs),
(335,488,o),
(330,401,o),
(288,292,cs),
(266,233,o),
(226,181,o),
(192,181,cs)
);
},
{
closed = 1;
nodes = (
(381,408,o),
(416,461,o),
(426,461,cs),
(438,461,o),
(450,454,o),
(455,445,c),
(494,482,l),
(489,497,o),
(465,508,o),
(436,508,cs),
(411,508,o),
(363,444,o),
(321,353,c),
(340,334,l)
);
}
);
width = 442;
}
);
unicode = 103;
},
{
glyphname = h;
lastChange = "2024-11-11 18:59:14 +0000";
layers = (
{
background = {
shapes = (
{
closed = 0;
nodes = (
(-115,-200,l),
(230,700,l)
);
},
{
closed = 0;
nodes = (
(-40,-200,l),
(305,700,l)
);
},
{
closed = 0;
nodes = (
(100,-200,l),
(445,700,l)
);
},
{
closed = 0;
nodes = (
(175,-200,l),
(520,700,l)
);
},
{
closed = 0;
nodes = (
(-220,-200,l),
(125,700,l)
);
},
{
closed = 0;
nodes = (
(-190,-200,l),
(155,700,l)
);
},
{
closed = 0;
nodes = (
(250,-200,l),
(595,700,l)
);
},
{
closed = 0;
nodes = (
(280,-200,l),
(625,700,l)
);
}
);
};
layerId = m002;
shapes = (
{
closed = 1;
nodes = (
(266,-8,o),
(350,104,o),
(402,262,cs),
(448,406,o),
(434,508,o),
(369,508,cs),
(306,508,o),
(205,399,o),
(126,246,c),
(150,228,l),
(205,349,o),
(271,434,o),
(310,434,cs),
(367,434,o),
(375,346,o),
(328,207,cs),
(299,120,o),
(267,59,o),
(251,59,cs),
(211,59,o),
(252,106,o),
(212,106,cs),
(191,106,o),
(172,95,o),
(167,80,cs),
(149,28,o),
(162,-8,o),
(200,-8,cs)
);
},
{
closed = 1;
nodes = (
(85,0,l),
(298,700,l),
(223,700,l),
(8,0,l)
);
},
{
closed = 1;
nodes = (
(223,700,l),
(109,700,l),
(101,662,l),
(155,665,o),
(202,649,o),
(214,624,c)
);
}
);
width = 451;
},
{
background = {
shapes = (
{
closed = 0;
nodes = (
(-115,-200,l),
(230,700,l)
);
},
{
closed = 0;
nodes = (
(-40,-200,l),
(305,700,l)
);
},
{
closed = 0;
nodes = (
(100,-200,l),
(445,700,l)
);
},
{
closed = 0;
nodes = (
(175,-200,l),
(520,700,l)
);
},
{
closed = 0;
nodes = (
(-220,-200,l),
(125,700,l)
);
},
{
closed = 0;
nodes = (
(-190,-200,l),
(155,700,l)
);
},
{
closed = 0;
nodes = (
(250,-200,l),
(595,700,l)
);
},
{
closed = 0;
nodes = (
(280,-200,l),
(625,700,l)
);
}
);
};
layerId = m003;
shapes = (
{
closed = 1;
nodes = (
(259,-8,o),
(343,104,o),
(395,262,cs),
(441,406,o),
(427,508,o),
(362,508,cs),
(299,508,o),
(198,399,o),
(119,246,c),
(143,228,l),
(198,349,o),
(264,434,o),
(303,434,cs),
(360,434,o),
(368,336,o),
(321,197,cs),
(292,110,o),
(260,49,o),
(244,49,cs),
(204,49,o),
(245,106,o),
(205,106,cs),
(184,106,o),
(165,95,o),
(160,80,cs),
(142,28,o),
(155,-8,o),
(193,-8,cs)
);
},
{
closed = 1;
nodes = (
(78,0,l),
(291,700,l),
(216,700,l),
(1,0,l)
);
},
{
closed = 1;
nodes = (
(216,700,l),
(102,700,l),
(94,672,l),
(148,675,o),
(195,659,o),
(207,634,c)
);
}
);
width = 437;
},
{
layerId = m01;
shapes = (
{
closed = 1;
nodes = (
(271,-8,o),
(355,104,o),
(407,262,cs),
(453,406,o),
(439,508,o),
(374,508,cs),
(311,508,o),
(210,399,o),
(131,246,c),
(155,228,l),
(210,349,o),
(276,434,o),
(315,434,cs),
(372,434,o),
(380,354,o),
(333,215,cs),
(304,128,o),
(272,67,o),
(256,67,cs),
(216,67,o),
(257,106,o),
(217,106,cs),
(196,106,o),
(177,95,o),
(172,80,cs),
(154,28,o),
(167,-8,o),
(205,-8,cs)
);
},
{
closed = 1;
nodes = (
(90,0,l),
(303,700,l),
(228,700,l),
(13,0,l)
);
},
{
closed = 1;
nodes = (
(228,700,l),
(114,700,l),
(106,655,l),
(160,658,o),
(207,642,o),
(219,617,c)
);
}
);
width = 462;
},
{
layerId = "F2DFA844-ADB6-4558-8504-1E1502925A9B";
shapes = (
{
closed = 1;
nodes = (
(252,-8,o),
(336,104,o),
(388,262,cs),
(434,406,o),
(420,508,o),
(355,508,cs),
(292,508,o),
(191,399,o),
(112,246,c),
(136,228,l),
(191,349,o),
(257,434,o),
(296,434,cs),
(353,434,o),
(361,326,o),
(314,187,cs),
(285,100,o),
(253,39,o),
(237,39,cs),
(197,39,o),
(238,106,o),
(198,106,cs),
(177,106,o),
(158,95,o),
(153,80,cs),
(135,28,o),
(148,-8,o),
(186,-8,cs)
);
},
{
closed = 1;
nodes = (
(71,0,l),
(284,700,l),
(209,700,l),
(-6,0,l)
);
},
{
closed = 1;
nodes = (
(209,700,l),
(95,700,l),
(87,682,l),
(141,685,o),
(188,669,o),
(200,644,c)
);
}
);
width = 423;
}
);
metricLeft = l;
metricRight = o;
unicode = 104;
},
{
glyphname = i;
lastChange = "2024-11-11 18:59:14 +0000";
layers = (
{
layerId = m002;
shapes = (
{
closed = 1;
nodes = (
(257,612,o),
(288,633,o),
(296,659,cs),
(304,685,o),
(286,706,o),
(255,706,cs),
(224,706,o),
(194,685,o),
(186,659,cs),
(178,633,o),
(195,612,o),
(226,612,cs)
);
},
{
closed = 1;
nodes = (
(67,143,ls),
(34,55,o),
(41,-8,o),
(85,-8,cs),
(145,-8,o),
(225,86,o),
(278,218,c),
(248,228,l),
(211,137,o),
(168,72,o),
(144,72,cs),
(125,72,o),
(131,113,o),
(158,185,cs),
(251,426,ls),
(271,474,o),
(259,508,o),
(224,508,cs),
(151,508,o),
(65,418,o),
(16,290,c),
(46,280,l),
(81,371,o),
(128,436,o),
(160,436,cs),
(171,436,o),
(160,395,o),
(133,323,cs)
);
}
);
width = 272;
},
{
layerId = m003;
shapes = (
{
closed = 1;
nodes = (
(250,612,o),
(281,633,o),
(289,659,cs),
(297,685,o),
(279,706,o),
(248,706,cs),
(217,706,o),
(187,685,o),
(179,659,cs),
(171,633,o),
(188,612,o),
(219,612,cs)
);
},
{
closed = 1;
nodes = (
(60,143,ls),
(27,55,o),
(34,-8,o),
(78,-8,cs),
(138,-8,o),
(218,86,o),
(271,218,c),
(241,218,l),
(204,127,o),
(161,62,o),
(137,62,cs),
(118,62,o),
(124,113,o),
(151,185,cs),
(244,426,ls),
(264,474,o),
(252,508,o),
(217,508,cs),
(144,508,o),
(58,418,o),
(9,290,c),
(39,290,l),
(74,381,o),
(121,446,o),
(153,446,cs),
(164,446,o),
(153,395,o),
(126,323,cs)
);
}
);
width = 258;
},
{
layerId = m01;
shapes = (
{
closed = 1;
nodes = (
(262,612,o),
(293,633,o),
(301,659,cs),
(309,685,o),
(291,706,o),
(260,706,cs),
(229,706,o),
(199,685,o),
(191,659,cs),
(183,633,o),
(200,612,o),
(231,612,cs)
);
},
{
closed = 1;
nodes = (
(72,143,ls),
(39,55,o),
(46,-8,o),
(90,-8,cs),
(150,-8,o),
(230,86,o),
(283,218,c),
(253,236,l),
(216,145,o),
(173,80,o),
(149,80,cs),
(130,80,o),
(136,113,o),
(163,185,cs),
(256,426,ls),
(276,474,o),
(264,508,o),
(229,508,cs),
(156,508,o),
(70,418,o),
(21,290,c),
(51,273,l),
(86,364,o),
(133,429,o),
(165,429,cs),
(176,429,o),
(165,395,o),
(138,323,cs)
);
}
);
width = 283;
},
{
layerId = "F2DFA844-ADB6-4558-8504-1E1502925A9B";
shapes = (
{
closed = 1;
nodes = (
(243,612,o),
(274,633,o),
(282,659,cs),
(290,685,o),
(272,706,o),
(241,706,cs),
(210,706,o),
(180,685,o),
(172,659,cs),
(164,633,o),
(181,612,o),
(212,612,cs)
);
},
{
closed = 1;
nodes = (
(53,143,ls),
(20,55,o),
(27,-8,o),
(71,-8,cs),
(131,-8,o),
(211,86,o),
(264,218,c),
(234,208,l),
(197,117,o),
(154,52,o),
(130,52,cs),
(111,52,o),
(117,113,o),
(144,185,cs),
(237,426,ls),
(257,474,o),
(245,508,o),
(210,508,cs),
(137,508,o),
(51,418,o),
(2,290,c),
(32,300,l),
(67,391,o),
(114,456,o),
(146,456,cs),
(157,456,o),
(146,395,o),
(119,323,cs)
);
}
);
width = 244;
}
);
unicode = 105;
},
{
glyphname = j;
lastChange = "2024-11-11 18:59:14 +0000";
layers = (
{
background = {
shapes = (
{
closed = 0;
nodes = (
(57,132,ls),
(14,-54,o),
(-22,-175,o),
(-58,-175,cs),
(-89,-175,o),
(-99,-144,o),
(-82,-86,cs),
(-77,-73,o),
(-81,-63,o),
(-91,-63,cs),
(-125,-63,o),
(-154,-83,o),
(-162,-111,cs),
(-179,-168,o),
(-143,-208,o),
(-75,-208,cs),
(13,-208,o),
(90,-60,o),
(138,149,cs)
);
}
);
};
layerId = m002;
shapes = (
{
closed = 1;
nodes = (
(-1,-209,o),
(90,-83,o),
(151,96,cs),
(262,426,ls),
(278,474,o),
(265,508,o),
(230,508,cs),
(157,508,o),
(76,418,o),
(34,290,c),
(64,280,l),
(94,371,o),
(138,436,o),
(170,436,cs),
(179,436,o),
(170,389,o),
(149,323,cs),
(69,82,ls),
(19,-69,o),
(-33,-175,o),
(-57,-175,cs),
(-87,-175,o),
(-97,-138,o),
(-81,-86,cs),
(-77,-73,o),
(-81,-63,o),
(-90,-63,cs),
(-124,-63,o),
(-154,-85,o),
(-162,-115,cs),
(-179,-170,o),
(-141,-209,o),
(-70,-209,cs)
);
},
{
closed = 1;
nodes = (
(264,612,o),
(291,631,o),
(297,659,cs),
(305,687,o),
(287,706,o),
(255,706,cs),
(223,706,o),
(195,687,o),
(187,659,cs),
(181,631,o),
(199,612,o),
(231,612,cs)
);
}
);
width = 272;
},
{
associatedMasterId = m002;
background = {
shapes = (
{
closed = 1;
nodes = (
(-22,-158,o),
(-76,-230,o),
(-122,-230,cs),
(-160,-230,o),
(-169,-180,o),
(-144,-109,cs),
(-138,-93,o),
(-142,-81,o),
(-153,-81,cs),
(-194,-81,o),
(-232,-105,o),
(-244,-139,cs),
(-268,-209,o),
(-226,-258,o),
(-143,-258,cs),
(-43,-258,o),
(53,-169,o),
(89,-43,c),
(7,-57,l)
);
}
);
};
layerId = "BC6BBE5D-D67E-4980-A272-D35FBD1C8A65";
name = "7. Nov. 24, 19:28";
shapes = (
{
closed = 1;
nodes = (
(-12,-106,o),
(-57,-181,o),
(-103,-181,cs),
(-141,-181,o),
(-150,-131,o),
(-125,-60,cs),
(-119,-44,o),
(-123,-32,o),
(-134,-32,cs),
(-175,-32,o),
(-213,-56,o),
(-225,-90,cs),
(-249,-160,o),
(-207,-209,o),
(-124,-209,cs),
(-24,-209,o),
(60,-116,o),
(108,6,cs),
(254,381,l),
(277,455,o),
(264,508,o),
(224,508,cs),
(163,508,o),
(85,418,o),
(36,290,c),
(66,290,l),
(101,381,o),
(142,446,o),
(165,446,cs),
(185,446,o),
(180,395,o),
(153,323,cs),
(26,-8,ls)
);
},
{
closed = 1;
nodes = (
(283,612,o),
(311,631,o),
(319,659,cs),
(328,687,o),
(311,706,o),
(279,706,cs),
(247,706,o),
(218,687,o),
(209,659,cs),
(201,631,o),
(218,612,o),
(250,612,cs)
);
}
);
width = 263;
},
{
background = {
shapes = (
{
closed = 0;
nodes = (
(60,132,ls),
(17,-54,o),
(-19,-185,o),
(-55,-185,cs),
(-86,-185,o),
(-96,-144,o),
(-79,-86,cs),
(-74,-73,o),
(-78,-63,o),
(-88,-63,cs),
(-122,-63,o),
(-151,-83,o),
(-159,-111,cs),
(-176,-168,o),
(-140,-208,o),
(-72,-208,cs),
(16,-208,o),
(93,-60,o),
(141,149,cs)
);
}
);
};
layerId = m003;
shapes = (
{
closed = 1;
nodes = (
(-8,-209,o),
(83,-83,o),
(144,96,cs),
(255,426,ls),
(271,474,o),
(258,508,o),
(223,508,cs),
(150,508,o),
(69,418,o),
(27,290,c),
(57,290,l),
(87,381,o),
(131,446,o),
(163,446,cs),
(174,446,o),
(165,395,o),
(142,323,cs),
(62,82,ls),
(10,-74,o),
(-42,-185,o),
(-64,-185,cs),
(-95,-185,o),
(-105,-144,o),
(-88,-86,cs),
(-84,-73,o),
(-88,-63,o),
(-97,-63,cs),
(-132,-63,o),
(-162,-84,o),
(-169,-114,cs),
(-186,-170,o),
(-148,-209,o),
(-77,-209,cs)
);
},
{
closed = 1;
nodes = (
(257,612,o),
(284,631,o),
(290,659,cs),
(298,687,o),
(280,706,o),
(248,706,cs),
(216,706,o),
(188,687,o),
(180,659,cs),
(174,631,o),
(192,612,o),
(224,612,cs)
);
}
);
width = 258;
},
{
associatedMasterId = m003;
background = {
shapes = (
{
closed = 1;
nodes = (
(-22,-158,o),
(-76,-230,o),
(-122,-230,cs),
(-160,-230,o),
(-169,-180,o),
(-144,-109,cs),
(-138,-93,o),
(-142,-81,o),
(-153,-81,cs),
(-194,-81,o),
(-232,-105,o),
(-244,-139,cs),
(-268,-209,o),
(-226,-258,o),
(-143,-258,cs),
(-43,-258,o),
(53,-169,o),
(89,-43,c),
(7,-57,l)
);
}
);
};
layerId = "F26A99E2-B18E-42DF-831C-82EB1608A556";
name = "7. Nov. 24, 19:28";
shapes = (
{
closed = 1;
nodes = (
(-12,-106,o),
(-57,-181,o),
(-103,-181,cs),
(-141,-181,o),
(-150,-131,o),
(-125,-60,cs),
(-119,-44,o),
(-123,-32,o),
(-134,-32,cs),
(-175,-32,o),
(-213,-56,o),
(-225,-90,cs),
(-249,-160,o),
(-207,-209,o),
(-124,-209,cs),
(-24,-209,o),
(60,-116,o),
(108,6,cs),
(254,381,l),
(277,455,o),
(264,508,o),
(224,508,cs),
(163,508,o),
(85,418,o),
(36,290,c),
(66,290,l),
(101,381,o),
(142,446,o),
(165,446,cs),
(185,446,o),
(180,395,o),
(153,323,cs),
(26,-8,ls)
);
},
{
closed = 1;
nodes = (
(283,612,o),
(311,631,o),
(319,659,cs),
(328,687,o),
(311,706,o),
(279,706,cs),
(247,706,o),
(218,687,o),
(209,659,cs),
(201,631,o),
(218,612,o),
(250,612,cs)
);
}
);
width = 263;
},
{
layerId = m01;
shapes = (
{
closed = 1;
nodes = (
(4,-209,o),
(95,-83,o),
(156,96,cs),
(267,426,ls),
(283,474,o),
(270,508,o),
(235,508,cs),
(162,508,o),
(81,418,o),
(39,290,c),
(69,273,l),
(99,364,o),
(143,429,o),
(175,429,cs),
(183,429,o),
(174,385,o),
(154,323,cs),
(74,82,ls),
(26,-65,o),
(-26,-167,o),
(-52,-167,cs),
(-81,-167,o),
(-91,-133,o),
(-76,-86,cs),
(-72,-73,o),
(-76,-63,o),
(-85,-63,cs),
(-118,-63,o),
(-148,-86,o),
(-157,-116,cs),
(-174,-170,o),
(-136,-209,o),
(-65,-209,cs)
);
},
{
closed = 1;
nodes = (
(269,612,o),
(296,631,o),
(302,659,cs),
(310,687,o),
(292,706,o),
(260,706,cs),
(228,706,o),
(200,687,o),
(192,659,cs),
(186,631,o),
(204,612,o),
(236,612,cs)
);
}
);
width = 283;
},
{
layerId = "F2DFA844-ADB6-4558-8504-1E1502925A9B";
shapes = (
{
closed = 1;
nodes = (
(-15,-209,o),
(76,-83,o),
(137,96,cs),
(248,426,ls),
(264,474,o),
(251,508,o),
(216,508,cs),
(143,508,o),
(62,418,o),
(20,290,c),
(50,300,l),
(80,391,o),
(124,456,o),
(156,456,cs),
(169,456,o),
(160,401,o),
(135,323,cs),
(55,82,ls),
(1,-79,o),
(-51,-195,o),
(-71,-195,cs),
(-103,-195,o),
(-113,-150,o),
(-95,-86,cs),
(-91,-73,o),
(-95,-63,o),
(-104,-63,cs),
(-140,-63,o),
(-170,-83,o),
(-176,-113,c),
(-193,-170,o),
(-155,-209,o),
(-84,-209,cs)
);
},
{
closed = 1;
nodes = (
(250,612,o),
(277,631,o),
(283,659,cs),
(291,687,o),
(273,706,o),
(241,706,cs),
(209,706,o),
(181,687,o),
(173,659,cs),
(167,631,o),
(185,612,o),
(217,612,cs)
);
}
);
width = 244;
}
);
metricWidth = i;
unicode = 106;
},
{
glyphname = k;
lastChange = "2024-11-11 18:59:14 +0000";
layers = (
{
layerId = m002;
shapes = (
{
closed = 1;
nodes = (
(319,320,ls),
(373,354,o),
(409,418,o),
(407,461,c),
(406,489,o),
(384,508,o),
(353,508,cs),
(286,508,o),
(192,421,o),
(126,298,c),
(128,243,l),
(184,355,o),
(261,434,o),
(314,434,cs),
(326,434,o),
(335,431,o),
(335,413,cs),
(335,390,o),
(311,359,o),
(277,338,cs),
(64,206,l),
(68,163,l)
);
},
{
closed = 1;
nodes = (
(61,0,l),
(274,700,l),
(199,700,l),
(-17,0,l)
);
},
{
closed = 1;
nodes = (
(315,-8,o),
(364,29,o),
(397,82,c),
(376,107,l),
(360,86,o),
(343,70,o),
(335,69,cs),
(308,66,o),
(259,160,o),
(240,311,c),
(170,262,l),
(188,104,o),
(243,-8,o),
(279,-8,cs)
);
},
{
closed = 1;
nodes = (
(199,700,l),
(85,700,l),
(77,662,l),
(132,665,o),
(179,649,o),
(190,624,c)
);
}
);
width = 395;
},
{
layerId = m003;
shapes = (
{
closed = 1;
nodes = (
(312,330,ls),
(366,364,o),
(402,418,o),
(400,461,c),
(399,489,o),
(377,508,o),
(346,508,cs),
(279,508,o),
(185,421,o),
(119,298,c),
(121,253,l),
(177,365,o),
(254,444,o),
(307,444,cs),
(319,444,o),
(328,431,o),
(328,413,cs),
(328,390,o),
(304,359,o),
(270,338,cs),
(57,206,l),
(61,173,l)
);
},
{
closed = 1;
nodes = (
(54,0,l),
(267,700,l),
(192,700,l),
(-24,0,l)
);
},
{
closed = 1;
nodes = (
(308,-8,o),
(357,29,o),
(390,82,c),
(369,97,l),
(353,76,o),
(336,60,o),
(328,59,cs),
(301,56,o),
(252,160,o),
(233,311,c),
(163,262,l),
(181,104,o),
(236,-8,o),
(272,-8,cs)
);
},
{
closed = 1;
nodes = (
(192,700,l),
(78,700,l),
(70,672,l),
(125,675,o),
(172,659,o),
(183,634,c)
);
}
);
width = 381;
},
{
layerId = m01;
shapes = (
{
closed = 1;
nodes = (
(324,313,ls),
(378,347,o),
(414,418,o),
(412,461,cs),
(411,489,o),
(389,508,o),
(358,508,cs),
(291,508,o),
(197,421,o),
(131,298,c),
(133,236,l),
(189,348,o),
(266,427,o),
(319,427,cs),
(331,427,o),
(340,431,o),
(340,413,cs),
(340,390,o),
(316,359,o),
(282,338,cs),
(69,206,l),
(73,156,l)
);
},
{
closed = 1;
nodes = (
(66,0,l),
(279,700,l),
(204,700,l),
(-12,0,l)
);
},
{
closed = 1;
nodes = (
(320,-8,o),
(369,29,o),
(402,82,c),
(381,115,l),
(365,94,o),
(348,78,o),
(340,77,cs),
(313,74,o),
(264,160,o),
(245,311,c),
(175,262,l),
(193,104,o),
(248,-8,o),
(284,-8,cs)
);
},
{
closed = 1;
nodes = (
(204,700,l),
(90,700,l),
(82,655,l),
(137,658,o),
(184,642,o),
(195,617,c)
);
}
);
width = 406;
},
{
layerId = "F2DFA844-ADB6-4558-8504-1E1502925A9B";
shapes = (
{
closed = 1;
nodes = (
(305,340,ls),
(359,374,o),
(395,418,o),
(393,461,cs),
(392,489,o),
(370,508,o),
(339,508,cs),
(272,508,o),
(178,421,o),
(112,298,c),
(114,263,l),
(170,375,o),
(247,454,o),
(300,454,cs),
(312,454,o),
(321,431,o),
(321,413,cs),
(321,390,o),
(297,359,o),
(263,338,cs),
(50,206,l),
(54,183,l)
);
},
{
closed = 1;
nodes = (
(47,0,l),
(260,700,l),
(185,700,l),
(-31,0,l)
);
},
{
closed = 1;
nodes = (
(301,-8,o),
(350,29,o),
(383,82,c),
(362,87,l),
(346,66,o),
(329,50,o),
(321,49,cs),
(294,46,o),
(245,160,o),
(226,311,c),
(156,262,l),
(174,104,o),
(229,-8,o),
(265,-8,cs)
);
},
{
closed = 1;
nodes = (
(185,700,l),
(71,700,l),
(63,682,l),
(118,685,o),
(165,669,o),
(176,644,c)
);
}
);
width = 367;
}
);
unicode = 107;
},
{
glyphname = l;
lastChange = "2024-11-11 18:59:14 +0000";
layers = (
{
background = {
shapes = (
{
closed = 1;
nodes = (
(218,500,l),
(178,401,o),
(127,268,o),
(95,177,cs),
(68,105,o),
(63,54,o),
(83,54,cs),
(106,54,o),
(147,119,o),
(182,210,c),
(212,210,l),
(163,82,o),
(85,-8,o),
(24,-8,cs),
(-19,-8,o),
(-28,51,o),
(3,135,cs),
(-28,52,o),
(49,250,o),
(143,500,c)
);
}
);
};
layerId = m002;
shapes = (
{
closed = 1;
nodes = (
(134,-8,o),
(208,82,o),
(250,210,c),
(220,220,l),
(189,129,o),
(150,64,o),
(128,64,cs),
(108,64,o),
(112,108,o),
(137,185,c),
(294,700,l),
(219,700,l),
(48,143,l),
(19,55,o),
(29,-8,o),
(71,-8,cs)
);
},
{
closed = 1;
nodes = (
(219,700,l),
(105,700,l),
(97,662,l),
(152,665,o),
(199,649,o),
(210,624,c)
);
}
);
width = 272;
},
{
background = {
shapes = (
{
closed = 1;
nodes = (
(218,500,l),
(178,401,o),
(127,268,o),
(95,177,cs),
(68,105,o),
(63,54,o),
(83,54,cs),
(106,54,o),
(147,119,o),
(182,210,c),
(212,210,l),
(163,82,o),
(85,-8,o),
(24,-8,cs),
(-19,-8,o),
(-28,51,o),
(3,135,cs),
(-28,52,o),
(49,250,o),
(143,500,c)
);
}
);
};
layerId = m003;
shapes = (
{
closed = 1;
nodes = (
(127,-8,o),
(201,82,o),
(243,210,c),
(213,210,l),
(182,119,o),
(143,54,o),
(121,54,cs),
(101,54,o),
(105,108,o),
(130,185,c),
(287,700,l),
(212,700,l),
(41,143,l),
(12,55,o),
(22,-8,o),
(64,-8,cs)
);
},
{
closed = 1;
nodes = (
(212,700,l),
(98,700,l),
(90,672,l),
(145,675,o),
(192,659,o),
(203,634,c)
);
}
);
width = 258;
},
{
layerId = m01;
shapes = (
{
closed = 1;
nodes = (
(139,-8,o),
(213,82,o),
(255,210,c),
(225,228,l),
(194,137,o),
(155,72,o),
(133,72,cs),
(113,72,o),
(117,108,o),
(142,185,cs),
(299,700,l),
(224,700,l),
(53,143,ls),
(24,55,o),
(34,-8,o),
(76,-8,cs)
);
},
{
closed = 1;
nodes = (
(224,700,l),
(110,700,l),
(102,655,l),
(157,658,o),
(204,642,o),
(215,617,c)
);
}
);
width = 283;
},
{
layerId = "F2DFA844-ADB6-4558-8504-1E1502925A9B";
shapes = (
{
closed = 1;
nodes = (
(120,-8,o),
(194,82,o),
(236,210,c),
(206,200,l),
(175,109,o),
(136,44,o),
(114,44,cs),
(94,44,o),
(98,108,o),
(123,185,cs),
(280,700,l),
(205,700,l),
(34,143,ls),
(5,55,o),
(15,-8,o),
(57,-8,cs)
);
},
{
closed = 1;
nodes = (
(205,700,l),
(91,700,l),
(83,682,l),
(138,685,o),
(185,669,o),
(196,644,c)
);
}
);
width = 244;
}
);
metricWidth = i;
unicode = 108;
},
